M48
; DRILL file {KiCad (5.1.9)-1} date 04/18/21 17:00:47
; FORMAT={-:-/ absolute / inch / decimal}
; #@! TF.CreationDate,2021-04-18T17:00:47-02:30
; #@! TF.GenerationSoftware,Kicad,Pcbnew,(5.1.9)-1
; #@! TF.FileFunction,Plated,1,4,PTH
FMAT,2
INCH
T1C0.0157
T2C0.0276
%
G90
G05
T1
X4.05Y-4.725
X4.075Y-5.475
X4.08Y-5.68
X4.1Y-3.7
X4.1Y-3.975
X4.1Y-4.25
X4.1Y-4.5
X4.275Y-5.55
X4.325Y-4.675
X4.375Y-4.5
X4.44Y-5.38
X4.4461Y-5.4824
X4.4461Y-5.5529
X4.5039Y-5.4824
X4.5039Y-5.5529
X4.525Y-3.9
X4.525Y-4.175
X4.525Y-4.45
X4.58Y-5.62
X4.5856Y-4.7
X4.6Y-5.16
X4.6398Y-5.1802
X4.65Y-5.425
X4.675Y-4.675
X4.7Y-4.4
X4.7Y-4.86
X4.7Y-4.925
X4.7Y-5.025
X4.725Y-5.825
X4.74Y-4.58
X4.7785Y-4.5
X4.7965Y-4.95
X4.825Y-4.45
X4.825Y-4.525
X4.825Y-5.825
X4.86Y-3.42
X4.9Y-3.1
X4.9Y-3.175
X4.9Y-5.575
X4.9Y-5.65
X4.94Y-3.28
X4.94Y-4.54
X4.9468Y-4.025
X4.95Y-2.7
X4.9742Y-4.1
X5.0Y-3.1
X5.0Y-3.175
X5.06Y-5.26
X5.075Y-3.55
X5.075Y-4.35
X5.075Y-4.475
X5.1Y-3.1
X5.1Y-3.175
X5.1Y-4.525
X5.12Y-5.0978
X5.1278Y-4.5528
X5.15Y-2.7
X5.16Y-3.28
X5.175Y-4.45
X5.2Y-4.95
X5.2Y-5.475
X5.2Y-5.675
X5.2028Y-4.4778
X5.24Y-3.4
X5.3Y-4.75
X5.35Y-4.9
X5.4Y-5.55
X5.42Y-4.9
X5.5Y-4.875
X5.5394Y-4.875
X5.55Y-3.6
X5.5711Y-5.4824
X5.5711Y-5.5529
X5.6289Y-5.4824
X5.6289Y-5.5529
X5.675Y-4.725
X5.7Y-3.875
X5.72Y-5.62
X5.75Y-4.475
X5.775Y-5.425
X5.825Y-3.625
X5.85Y-3.425
X5.85Y-5.8
X5.875Y-3.625
X5.9Y-3.875
X5.925Y-3.425
X5.925Y-3.625
X5.95Y-4.575
X5.95Y-4.725
X5.95Y-5.8
X6.0Y-4.25
X6.0Y-5.55
X6.0Y-5.625
T2
X5.825Y-4.475
X5.825Y-4.525
X5.825Y-4.575
X5.875Y-4.475
X5.875Y-4.525
X5.875Y-4.575
T0
M30
