%TF.GenerationSoftware,KiCad,Pcbnew,(5.1.9)-1*%
%TF.CreationDate,2021-04-18T17:00:14-02:30*%
%TF.ProjectId,flamingo,666c616d-696e-4676-9f2e-6b696361645f,rev?*%
%TF.SameCoordinates,Original*%
%TF.FileFunction,Copper,L4,Bot*%
%TF.FilePolarity,Positive*%
%FSLAX46Y46*%
G04 Gerber Fmt 4.6, Leading zero omitted, Abs format (unit mm)*
G04 Created by KiCad (PCBNEW (5.1.9)-1) date 2021-04-18 17:00:14*
%MOMM*%
%LPD*%
G01*
G04 APERTURE LIST*
%TA.AperFunction,SMDPad,CuDef*%
%ADD10R,3.000000X1.000000*%
%TD*%
%TA.AperFunction,ComponentPad*%
%ADD11O,1.000000X1.000000*%
%TD*%
%TA.AperFunction,ComponentPad*%
%ADD12R,1.000000X1.000000*%
%TD*%
%TA.AperFunction,ViaPad*%
%ADD13C,0.800000*%
%TD*%
%TA.AperFunction,Conductor*%
%ADD14C,0.250000*%
%TD*%
G04 APERTURE END LIST*
D10*
%TO.P,J5,2*%
%TO.N,GND*%
X125730000Y-70485000D03*
%TO.P,J5,1*%
%TO.N,VCC*%
X130770000Y-70485000D03*
%TD*%
D11*
%TO.P,J1,6*%
%TO.N,RST_SW*%
X149225000Y-113665000D03*
%TO.P,J1,5*%
%TO.N,+3V3*%
X147955000Y-113665000D03*
%TO.P,J1,4*%
%TO.N,Net-(J1-Pad4)*%
X149225000Y-114935000D03*
%TO.P,J1,3*%
%TO.N,PA14_SWCLK*%
X147955000Y-114935000D03*
%TO.P,J1,2*%
%TO.N,GND*%
X149225000Y-116205000D03*
D12*
%TO.P,J1,1*%
%TO.N,PA13_SWDAT*%
X147955000Y-116205000D03*
%TD*%
D13*
%TO.N,GND*%
X137668000Y-124460000D03*
X122555000Y-147955000D03*
X120015000Y-147955000D03*
X152400000Y-107950000D03*
X151130000Y-116205000D03*
X122555000Y-113030000D03*
X124460000Y-78740000D03*
X127000000Y-78740000D03*
X129540000Y-78740000D03*
X119380000Y-125095000D03*
X102870000Y-120015000D03*
X149225000Y-92075000D03*
X148590000Y-86995000D03*
X140970000Y-91440000D03*
X104140000Y-107950000D03*
X104140000Y-114300000D03*
X104140000Y-93980000D03*
X104140000Y-100965000D03*
X151130000Y-120015000D03*
X132080000Y-125730000D03*
X125730000Y-68580000D03*
X118745000Y-118745000D03*
X132080000Y-144145000D03*
X137160000Y-140970000D03*
X146685000Y-137795000D03*
X118110000Y-137795000D03*
X108585000Y-140970000D03*
X116332000Y-142748000D03*
X148590000Y-147320000D03*
X151130000Y-147320000D03*
X131064000Y-83312000D03*
X125476000Y-83312000D03*
X123444000Y-86868000D03*
X125476000Y-115316000D03*
X103632000Y-144272000D03*
X133096000Y-86360000D03*
X112930000Y-139252500D03*
X114400000Y-139252500D03*
X112930000Y-141042500D03*
X114400000Y-141042500D03*
X141505000Y-139252500D03*
X142975000Y-139252500D03*
X141505000Y-141042500D03*
X142975000Y-141042500D03*
X145288000Y-142748000D03*
%TO.N,RST_SW*%
X119380000Y-127635000D03*
X144145000Y-120015000D03*
%TO.N,VCC*%
X130810000Y-68580000D03*
X150495000Y-86995000D03*
X150495000Y-92075000D03*
X147955000Y-92075000D03*
X132080000Y-139065000D03*
X103505000Y-139065000D03*
X152400000Y-142875000D03*
X152400000Y-140970000D03*
X124460000Y-143510000D03*
X124460000Y-141605000D03*
%TO.N,+3V3*%
X134620000Y-120650000D03*
X122555000Y-114935000D03*
X128905000Y-90170000D03*
X129540000Y-80645000D03*
X127000000Y-80645000D03*
X124460000Y-80645000D03*
X149860000Y-98425000D03*
X144780000Y-98425000D03*
X146050000Y-113665000D03*
X111125000Y-114300000D03*
X109855000Y-118745000D03*
X114935000Y-113030000D03*
X114935000Y-106045000D03*
X114935000Y-99060000D03*
X135890000Y-124460000D03*
X119380000Y-123444000D03*
%TO.N,PB2_CS*%
X128905000Y-113665000D03*
X128905000Y-110490000D03*
%TO.N,PB1_SDO*%
X126345000Y-104140000D03*
X139700000Y-123825000D03*
%TO.N,PB0_RDY_INT*%
X125649401Y-102235000D03*
X140700003Y-123825000D03*
%TO.N,PA1_TIM2CH2*%
X117851347Y-131576653D03*
X112776000Y-136652000D03*
%TO.N,PA0_TIM2CH1*%
X121830000Y-125730000D03*
X130048000Y-129482998D03*
%TO.N,PB3_USART2_TX*%
X130247108Y-115642108D03*
X132152108Y-113737108D03*
%TO.N,PB4_USART2_RX*%
X129540000Y-114935000D03*
X131445000Y-113030000D03*
%TO.N,PF0_STATUSLED*%
X121375000Y-114300000D03*
X119380000Y-111760000D03*
%TO.N,PA5_nFAULT*%
X128524000Y-133604000D03*
X120396000Y-116332000D03*
%TO.N,PA2_nFAULT*%
X116474997Y-119380000D03*
X116840000Y-131064000D03*
%TD*%
D14*
%TO.N,GND*%
X125730000Y-70485000D02*
X125730000Y-68580000D01*
%TO.N,RST_SW*%
X144145000Y-127635000D02*
X144145000Y-120015000D01*
X125533002Y-130810000D02*
X140970000Y-130810000D01*
X122358002Y-127635000D02*
X125533002Y-130810000D01*
X140970000Y-130810000D02*
X144145000Y-127635000D01*
X119380000Y-127635000D02*
X122358002Y-127635000D01*
%TO.N,VCC*%
X130770000Y-68620000D02*
X130810000Y-68580000D01*
X130770000Y-70485000D02*
X130770000Y-68620000D01*
%TO.N,+3V3*%
X147955000Y-113665000D02*
X146050000Y-113665000D01*
%TO.N,PB2_CS*%
X128905000Y-113665000D02*
X128905000Y-110490000D01*
%TO.N,PB1_SDO*%
X126365000Y-104140000D02*
X126345000Y-104140000D01*
X139700000Y-117495000D02*
X126345000Y-104140000D01*
X139700000Y-123825000D02*
X139700000Y-117495000D01*
%TO.N,PB0_RDY_INT*%
X125649401Y-102371399D02*
X125649401Y-102235000D01*
X140700003Y-117422001D02*
X125649401Y-102371399D01*
X140700003Y-123825000D02*
X140700003Y-117422001D01*
%TO.N,PA1_TIM2CH2*%
X117851347Y-131576653D02*
X113284000Y-136144000D01*
X113284000Y-136144000D02*
X112776000Y-136652000D01*
%TO.N,PA0_TIM2CH1*%
X124370000Y-128270000D02*
X124460000Y-128270000D01*
X121830000Y-125730000D02*
X124370000Y-128270000D01*
X128835002Y-128270000D02*
X130048000Y-129482998D01*
X124370000Y-128270000D02*
X128835002Y-128270000D01*
%TO.N,PB3_USART2_TX*%
X130247108Y-115642108D02*
X132152108Y-113737108D01*
%TO.N,PB4_USART2_RX*%
X129540000Y-114935000D02*
X131445000Y-113030000D01*
%TO.N,PF0_STATUSLED*%
X119380000Y-112305000D02*
X119380000Y-111760000D01*
X121375000Y-114300000D02*
X119380000Y-112305000D01*
%TO.N,PA5_nFAULT*%
X128524000Y-133604000D02*
X128016000Y-134112000D01*
X128016000Y-134112000D02*
X121412000Y-134112000D01*
X121412000Y-134112000D02*
X117348000Y-130048000D01*
X117348000Y-130048000D02*
X117348000Y-118872000D01*
X119888000Y-116332000D02*
X120396000Y-116332000D01*
X117348000Y-118872000D02*
X119888000Y-116332000D01*
%TO.N,PA2_nFAULT*%
X116474997Y-130698997D02*
X116840000Y-131064000D01*
X116474997Y-119380000D02*
X116474997Y-130698997D01*
%TD*%
M02*
