%TF.GenerationSoftware,KiCad,Pcbnew,(5.1.9)-1*%
%TF.CreationDate,2021-05-10T18:00:28-02:30*%
%TF.ProjectId,flamingo,666c616d-696e-4676-9f2e-6b696361645f,rev?*%
%TF.SameCoordinates,Original*%
%TF.FileFunction,Copper,L3,Inr*%
%TF.FilePolarity,Positive*%
%FSLAX46Y46*%
G04 Gerber Fmt 4.6, Leading zero omitted, Abs format (unit mm)*
G04 Created by KiCad (PCBNEW (5.1.9)-1) date 2021-05-10 18:00:28*
%MOMM*%
%LPD*%
G01*
G04 APERTURE LIST*
%TA.AperFunction,ComponentPad*%
%ADD10O,1.000000X1.000000*%
%TD*%
%TA.AperFunction,ComponentPad*%
%ADD11R,1.000000X1.000000*%
%TD*%
%TA.AperFunction,ViaPad*%
%ADD12C,0.800000*%
%TD*%
%TA.AperFunction,Conductor*%
%ADD13C,0.254000*%
%TD*%
%TA.AperFunction,Conductor*%
%ADD14C,0.100000*%
%TD*%
G04 APERTURE END LIST*
D10*
%TO.N,RST_SW*%
%TO.C,J1*%
X149225000Y-113665000D03*
%TO.N,+3V3*%
X147955000Y-113665000D03*
%TO.N,Net-(J1-Pad4)*%
X149225000Y-114935000D03*
%TO.N,PA14_SWCLK*%
X147955000Y-114935000D03*
%TO.N,GND*%
X149225000Y-116205000D03*
D11*
%TO.N,PA13_SWDAT*%
X147955000Y-116205000D03*
%TD*%
D12*
%TO.N,GND*%
X137668000Y-124460000D03*
X122555000Y-147955000D03*
X120015000Y-147955000D03*
X152400000Y-107950000D03*
X151130000Y-116205000D03*
X122555000Y-113030000D03*
X124460000Y-78740000D03*
X127000000Y-78740000D03*
X129540000Y-78740000D03*
X119380000Y-125095000D03*
X102870000Y-120015000D03*
X149225000Y-90551000D03*
X104140000Y-107950000D03*
X104140000Y-114300000D03*
X104140000Y-93980000D03*
X104140000Y-100965000D03*
X151130000Y-120015000D03*
X132080000Y-125730000D03*
X125730000Y-68580000D03*
X118745000Y-118745000D03*
X132080000Y-144145000D03*
X137160000Y-140970000D03*
X146685000Y-137795000D03*
X118110000Y-137795000D03*
X108585000Y-140970000D03*
X116332000Y-142748000D03*
X148590000Y-147320000D03*
X151130000Y-147320000D03*
X131064000Y-83312000D03*
X125476000Y-83312000D03*
X123444000Y-86868000D03*
X125476000Y-115316000D03*
X103632000Y-144272000D03*
X133096000Y-86360000D03*
X112930000Y-139252500D03*
X114400000Y-139252500D03*
X112930000Y-141042500D03*
X114400000Y-141042500D03*
X141505000Y-139252500D03*
X142975000Y-139252500D03*
X141505000Y-141042500D03*
X142975000Y-141042500D03*
X145288000Y-142748000D03*
X146812000Y-93472000D03*
X152400000Y-96520000D03*
X150876000Y-86868000D03*
%TO.N,RST_SW*%
X119380000Y-127635000D03*
X144145000Y-120015000D03*
%TO.N,VCC*%
X130810000Y-68580000D03*
X152400000Y-142875000D03*
X152400000Y-140970000D03*
X124460000Y-143510000D03*
X124460000Y-141605000D03*
%TO.N,+3V3*%
X134620000Y-120650000D03*
X122555000Y-114935000D03*
X128905000Y-90170000D03*
X129540000Y-80645000D03*
X127000000Y-80645000D03*
X124460000Y-80645000D03*
X146050000Y-113665000D03*
X111125000Y-114300000D03*
X109855000Y-118745000D03*
X114935000Y-113030000D03*
X114935000Y-106045000D03*
X114935000Y-99060000D03*
X135890000Y-124460000D03*
X119380000Y-123444000D03*
X123444000Y-111760000D03*
X134620000Y-113792000D03*
X132588000Y-139192000D03*
X103632000Y-139192000D03*
%TO.N,PB2_CS*%
X128905000Y-113665000D03*
X128905000Y-110490000D03*
%TO.N,PB0_RDY_INT*%
X125649401Y-102235000D03*
X140700003Y-123825000D03*
%TO.N,PA1_TIM2CH2*%
X117851347Y-131576653D03*
X112776000Y-136652000D03*
%TO.N,PA0_TIM2CH1*%
X121830000Y-125730000D03*
X130048000Y-129482998D03*
%TO.N,PB3_USART2_TX*%
X130247108Y-115642108D03*
X132152108Y-113737108D03*
%TO.N,PB4_USART2_RX*%
X129540000Y-114935000D03*
X131445000Y-113030000D03*
%TO.N,PF0_STATUSLED*%
X121375000Y-114300000D03*
X119380000Y-111760000D03*
%TO.N,PA5_nFAULT*%
X128524000Y-133604000D03*
X120396000Y-116332000D03*
%TO.N,PA2_nFAULT*%
X116474997Y-119380000D03*
X116840000Y-131064000D03*
%TD*%
D13*
%TO.N,VCC*%
X153115208Y-66209780D02*
X153438625Y-66381744D01*
X153722484Y-66613254D01*
X153955965Y-66895486D01*
X154130183Y-67217695D01*
X154178000Y-67372165D01*
X154178000Y-148528512D01*
X154135220Y-148670206D01*
X153963257Y-148993623D01*
X153731748Y-149277482D01*
X153449514Y-149510965D01*
X153127304Y-149685184D01*
X152972835Y-149733000D01*
X103566488Y-149733000D01*
X103424794Y-149690220D01*
X103101377Y-149518257D01*
X102817518Y-149286748D01*
X102743000Y-149196671D01*
X102743000Y-147853061D01*
X118980000Y-147853061D01*
X118980000Y-148056939D01*
X119019774Y-148256898D01*
X119097795Y-148445256D01*
X119211063Y-148614774D01*
X119355226Y-148758937D01*
X119524744Y-148872205D01*
X119713102Y-148950226D01*
X119913061Y-148990000D01*
X120116939Y-148990000D01*
X120316898Y-148950226D01*
X120505256Y-148872205D01*
X120674774Y-148758937D01*
X120818937Y-148614774D01*
X120932205Y-148445256D01*
X121010226Y-148256898D01*
X121050000Y-148056939D01*
X121050000Y-147853061D01*
X121520000Y-147853061D01*
X121520000Y-148056939D01*
X121559774Y-148256898D01*
X121637795Y-148445256D01*
X121751063Y-148614774D01*
X121895226Y-148758937D01*
X122064744Y-148872205D01*
X122253102Y-148950226D01*
X122453061Y-148990000D01*
X122656939Y-148990000D01*
X122856898Y-148950226D01*
X123045256Y-148872205D01*
X123214774Y-148758937D01*
X123358937Y-148614774D01*
X123472205Y-148445256D01*
X123550226Y-148256898D01*
X123590000Y-148056939D01*
X123590000Y-147853061D01*
X123550226Y-147653102D01*
X123472205Y-147464744D01*
X123358937Y-147295226D01*
X123281772Y-147218061D01*
X147555000Y-147218061D01*
X147555000Y-147421939D01*
X147594774Y-147621898D01*
X147672795Y-147810256D01*
X147786063Y-147979774D01*
X147930226Y-148123937D01*
X148099744Y-148237205D01*
X148288102Y-148315226D01*
X148488061Y-148355000D01*
X148691939Y-148355000D01*
X148891898Y-148315226D01*
X149080256Y-148237205D01*
X149249774Y-148123937D01*
X149393937Y-147979774D01*
X149507205Y-147810256D01*
X149585226Y-147621898D01*
X149625000Y-147421939D01*
X149625000Y-147218061D01*
X150095000Y-147218061D01*
X150095000Y-147421939D01*
X150134774Y-147621898D01*
X150212795Y-147810256D01*
X150326063Y-147979774D01*
X150470226Y-148123937D01*
X150639744Y-148237205D01*
X150828102Y-148315226D01*
X151028061Y-148355000D01*
X151231939Y-148355000D01*
X151431898Y-148315226D01*
X151620256Y-148237205D01*
X151789774Y-148123937D01*
X151933937Y-147979774D01*
X152047205Y-147810256D01*
X152125226Y-147621898D01*
X152165000Y-147421939D01*
X152165000Y-147218061D01*
X152125226Y-147018102D01*
X152047205Y-146829744D01*
X151933937Y-146660226D01*
X151789774Y-146516063D01*
X151620256Y-146402795D01*
X151431898Y-146324774D01*
X151231939Y-146285000D01*
X151028061Y-146285000D01*
X150828102Y-146324774D01*
X150639744Y-146402795D01*
X150470226Y-146516063D01*
X150326063Y-146660226D01*
X150212795Y-146829744D01*
X150134774Y-147018102D01*
X150095000Y-147218061D01*
X149625000Y-147218061D01*
X149585226Y-147018102D01*
X149507205Y-146829744D01*
X149393937Y-146660226D01*
X149249774Y-146516063D01*
X149080256Y-146402795D01*
X148891898Y-146324774D01*
X148691939Y-146285000D01*
X148488061Y-146285000D01*
X148288102Y-146324774D01*
X148099744Y-146402795D01*
X147930226Y-146516063D01*
X147786063Y-146660226D01*
X147672795Y-146829744D01*
X147594774Y-147018102D01*
X147555000Y-147218061D01*
X123281772Y-147218061D01*
X123214774Y-147151063D01*
X123045256Y-147037795D01*
X122856898Y-146959774D01*
X122656939Y-146920000D01*
X122453061Y-146920000D01*
X122253102Y-146959774D01*
X122064744Y-147037795D01*
X121895226Y-147151063D01*
X121751063Y-147295226D01*
X121637795Y-147464744D01*
X121559774Y-147653102D01*
X121520000Y-147853061D01*
X121050000Y-147853061D01*
X121010226Y-147653102D01*
X120932205Y-147464744D01*
X120818937Y-147295226D01*
X120674774Y-147151063D01*
X120505256Y-147037795D01*
X120316898Y-146959774D01*
X120116939Y-146920000D01*
X119913061Y-146920000D01*
X119713102Y-146959774D01*
X119524744Y-147037795D01*
X119355226Y-147151063D01*
X119211063Y-147295226D01*
X119097795Y-147464744D01*
X119019774Y-147653102D01*
X118980000Y-147853061D01*
X102743000Y-147853061D01*
X102743000Y-144804468D01*
X102828063Y-144931774D01*
X102972226Y-145075937D01*
X103141744Y-145189205D01*
X103330102Y-145267226D01*
X103530061Y-145307000D01*
X103733939Y-145307000D01*
X103933898Y-145267226D01*
X104122256Y-145189205D01*
X104291774Y-145075937D01*
X104435937Y-144931774D01*
X104549205Y-144762256D01*
X104627226Y-144573898D01*
X104667000Y-144373939D01*
X104667000Y-144170061D01*
X104641739Y-144043061D01*
X131045000Y-144043061D01*
X131045000Y-144246939D01*
X131084774Y-144446898D01*
X131162795Y-144635256D01*
X131276063Y-144804774D01*
X131420226Y-144948937D01*
X131589744Y-145062205D01*
X131778102Y-145140226D01*
X131978061Y-145180000D01*
X132181939Y-145180000D01*
X132381898Y-145140226D01*
X132570256Y-145062205D01*
X132739774Y-144948937D01*
X132883937Y-144804774D01*
X132997205Y-144635256D01*
X133075226Y-144446898D01*
X133115000Y-144246939D01*
X133115000Y-144043061D01*
X133075226Y-143843102D01*
X132997205Y-143654744D01*
X132883937Y-143485226D01*
X132739774Y-143341063D01*
X132570256Y-143227795D01*
X132381898Y-143149774D01*
X132181939Y-143110000D01*
X131978061Y-143110000D01*
X131778102Y-143149774D01*
X131589744Y-143227795D01*
X131420226Y-143341063D01*
X131276063Y-143485226D01*
X131162795Y-143654744D01*
X131084774Y-143843102D01*
X131045000Y-144043061D01*
X104641739Y-144043061D01*
X104627226Y-143970102D01*
X104549205Y-143781744D01*
X104435937Y-143612226D01*
X104291774Y-143468063D01*
X104122256Y-143354795D01*
X103933898Y-143276774D01*
X103733939Y-143237000D01*
X103530061Y-143237000D01*
X103330102Y-143276774D01*
X103141744Y-143354795D01*
X102972226Y-143468063D01*
X102828063Y-143612226D01*
X102743000Y-143739532D01*
X102743000Y-142646061D01*
X115297000Y-142646061D01*
X115297000Y-142849939D01*
X115336774Y-143049898D01*
X115414795Y-143238256D01*
X115528063Y-143407774D01*
X115672226Y-143551937D01*
X115841744Y-143665205D01*
X116030102Y-143743226D01*
X116230061Y-143783000D01*
X116433939Y-143783000D01*
X116633898Y-143743226D01*
X116822256Y-143665205D01*
X116991774Y-143551937D01*
X117135937Y-143407774D01*
X117249205Y-143238256D01*
X117327226Y-143049898D01*
X117367000Y-142849939D01*
X117367000Y-142646061D01*
X144253000Y-142646061D01*
X144253000Y-142849939D01*
X144292774Y-143049898D01*
X144370795Y-143238256D01*
X144484063Y-143407774D01*
X144628226Y-143551937D01*
X144797744Y-143665205D01*
X144986102Y-143743226D01*
X145186061Y-143783000D01*
X145389939Y-143783000D01*
X145589898Y-143743226D01*
X145778256Y-143665205D01*
X145947774Y-143551937D01*
X146091937Y-143407774D01*
X146205205Y-143238256D01*
X146283226Y-143049898D01*
X146323000Y-142849939D01*
X146323000Y-142646061D01*
X146283226Y-142446102D01*
X146205205Y-142257744D01*
X146091937Y-142088226D01*
X145947774Y-141944063D01*
X145778256Y-141830795D01*
X145589898Y-141752774D01*
X145389939Y-141713000D01*
X145186061Y-141713000D01*
X144986102Y-141752774D01*
X144797744Y-141830795D01*
X144628226Y-141944063D01*
X144484063Y-142088226D01*
X144370795Y-142257744D01*
X144292774Y-142446102D01*
X144253000Y-142646061D01*
X117367000Y-142646061D01*
X117327226Y-142446102D01*
X117249205Y-142257744D01*
X117135937Y-142088226D01*
X116991774Y-141944063D01*
X116822256Y-141830795D01*
X116633898Y-141752774D01*
X116433939Y-141713000D01*
X116230061Y-141713000D01*
X116030102Y-141752774D01*
X115841744Y-141830795D01*
X115672226Y-141944063D01*
X115528063Y-142088226D01*
X115414795Y-142257744D01*
X115336774Y-142446102D01*
X115297000Y-142646061D01*
X102743000Y-142646061D01*
X102743000Y-140868061D01*
X107550000Y-140868061D01*
X107550000Y-141071939D01*
X107589774Y-141271898D01*
X107667795Y-141460256D01*
X107781063Y-141629774D01*
X107925226Y-141773937D01*
X108094744Y-141887205D01*
X108283102Y-141965226D01*
X108483061Y-142005000D01*
X108686939Y-142005000D01*
X108886898Y-141965226D01*
X109075256Y-141887205D01*
X109244774Y-141773937D01*
X109388937Y-141629774D01*
X109502205Y-141460256D01*
X109580226Y-141271898D01*
X109620000Y-141071939D01*
X109620000Y-140868061D01*
X109580226Y-140668102D01*
X109502205Y-140479744D01*
X109388937Y-140310226D01*
X109244774Y-140166063D01*
X109075256Y-140052795D01*
X108886898Y-139974774D01*
X108686939Y-139935000D01*
X108483061Y-139935000D01*
X108283102Y-139974774D01*
X108094744Y-140052795D01*
X107925226Y-140166063D01*
X107781063Y-140310226D01*
X107667795Y-140479744D01*
X107589774Y-140668102D01*
X107550000Y-140868061D01*
X102743000Y-140868061D01*
X102743000Y-139724468D01*
X102828063Y-139851774D01*
X102972226Y-139995937D01*
X103141744Y-140109205D01*
X103330102Y-140187226D01*
X103530061Y-140227000D01*
X103733939Y-140227000D01*
X103933898Y-140187226D01*
X104122256Y-140109205D01*
X104291774Y-139995937D01*
X104435937Y-139851774D01*
X104549205Y-139682256D01*
X104627226Y-139493898D01*
X104667000Y-139293939D01*
X104667000Y-139150561D01*
X111895000Y-139150561D01*
X111895000Y-139354439D01*
X111934774Y-139554398D01*
X112012795Y-139742756D01*
X112126063Y-139912274D01*
X112270226Y-140056437D01*
X112406512Y-140147500D01*
X112270226Y-140238563D01*
X112126063Y-140382726D01*
X112012795Y-140552244D01*
X111934774Y-140740602D01*
X111895000Y-140940561D01*
X111895000Y-141144439D01*
X111934774Y-141344398D01*
X112012795Y-141532756D01*
X112126063Y-141702274D01*
X112270226Y-141846437D01*
X112439744Y-141959705D01*
X112628102Y-142037726D01*
X112828061Y-142077500D01*
X113031939Y-142077500D01*
X113231898Y-142037726D01*
X113420256Y-141959705D01*
X113589774Y-141846437D01*
X113665000Y-141771211D01*
X113740226Y-141846437D01*
X113909744Y-141959705D01*
X114098102Y-142037726D01*
X114298061Y-142077500D01*
X114501939Y-142077500D01*
X114701898Y-142037726D01*
X114890256Y-141959705D01*
X115059774Y-141846437D01*
X115203937Y-141702274D01*
X115317205Y-141532756D01*
X115395226Y-141344398D01*
X115435000Y-141144439D01*
X115435000Y-140940561D01*
X115420579Y-140868061D01*
X136125000Y-140868061D01*
X136125000Y-141071939D01*
X136164774Y-141271898D01*
X136242795Y-141460256D01*
X136356063Y-141629774D01*
X136500226Y-141773937D01*
X136669744Y-141887205D01*
X136858102Y-141965226D01*
X137058061Y-142005000D01*
X137261939Y-142005000D01*
X137461898Y-141965226D01*
X137650256Y-141887205D01*
X137819774Y-141773937D01*
X137963937Y-141629774D01*
X138077205Y-141460256D01*
X138155226Y-141271898D01*
X138195000Y-141071939D01*
X138195000Y-140868061D01*
X138155226Y-140668102D01*
X138077205Y-140479744D01*
X137963937Y-140310226D01*
X137819774Y-140166063D01*
X137650256Y-140052795D01*
X137461898Y-139974774D01*
X137261939Y-139935000D01*
X137058061Y-139935000D01*
X136858102Y-139974774D01*
X136669744Y-140052795D01*
X136500226Y-140166063D01*
X136356063Y-140310226D01*
X136242795Y-140479744D01*
X136164774Y-140668102D01*
X136125000Y-140868061D01*
X115420579Y-140868061D01*
X115395226Y-140740602D01*
X115317205Y-140552244D01*
X115203937Y-140382726D01*
X115059774Y-140238563D01*
X114923488Y-140147500D01*
X115059774Y-140056437D01*
X115203937Y-139912274D01*
X115317205Y-139742756D01*
X115395226Y-139554398D01*
X115435000Y-139354439D01*
X115435000Y-139150561D01*
X115422966Y-139090061D01*
X131553000Y-139090061D01*
X131553000Y-139293939D01*
X131592774Y-139493898D01*
X131670795Y-139682256D01*
X131784063Y-139851774D01*
X131928226Y-139995937D01*
X132097744Y-140109205D01*
X132286102Y-140187226D01*
X132486061Y-140227000D01*
X132689939Y-140227000D01*
X132889898Y-140187226D01*
X133078256Y-140109205D01*
X133247774Y-139995937D01*
X133391937Y-139851774D01*
X133505205Y-139682256D01*
X133583226Y-139493898D01*
X133623000Y-139293939D01*
X133623000Y-139150561D01*
X140470000Y-139150561D01*
X140470000Y-139354439D01*
X140509774Y-139554398D01*
X140587795Y-139742756D01*
X140701063Y-139912274D01*
X140845226Y-140056437D01*
X140981512Y-140147500D01*
X140845226Y-140238563D01*
X140701063Y-140382726D01*
X140587795Y-140552244D01*
X140509774Y-140740602D01*
X140470000Y-140940561D01*
X140470000Y-141144439D01*
X140509774Y-141344398D01*
X140587795Y-141532756D01*
X140701063Y-141702274D01*
X140845226Y-141846437D01*
X141014744Y-141959705D01*
X141203102Y-142037726D01*
X141403061Y-142077500D01*
X141606939Y-142077500D01*
X141806898Y-142037726D01*
X141995256Y-141959705D01*
X142164774Y-141846437D01*
X142240000Y-141771211D01*
X142315226Y-141846437D01*
X142484744Y-141959705D01*
X142673102Y-142037726D01*
X142873061Y-142077500D01*
X143076939Y-142077500D01*
X143276898Y-142037726D01*
X143465256Y-141959705D01*
X143634774Y-141846437D01*
X143778937Y-141702274D01*
X143892205Y-141532756D01*
X143970226Y-141344398D01*
X144010000Y-141144439D01*
X144010000Y-140940561D01*
X143970226Y-140740602D01*
X143892205Y-140552244D01*
X143778937Y-140382726D01*
X143634774Y-140238563D01*
X143498488Y-140147500D01*
X143634774Y-140056437D01*
X143778937Y-139912274D01*
X143892205Y-139742756D01*
X143970226Y-139554398D01*
X144010000Y-139354439D01*
X144010000Y-139150561D01*
X143970226Y-138950602D01*
X143892205Y-138762244D01*
X143778937Y-138592726D01*
X143634774Y-138448563D01*
X143465256Y-138335295D01*
X143276898Y-138257274D01*
X143076939Y-138217500D01*
X142873061Y-138217500D01*
X142673102Y-138257274D01*
X142484744Y-138335295D01*
X142315226Y-138448563D01*
X142240000Y-138523789D01*
X142164774Y-138448563D01*
X141995256Y-138335295D01*
X141806898Y-138257274D01*
X141606939Y-138217500D01*
X141403061Y-138217500D01*
X141203102Y-138257274D01*
X141014744Y-138335295D01*
X140845226Y-138448563D01*
X140701063Y-138592726D01*
X140587795Y-138762244D01*
X140509774Y-138950602D01*
X140470000Y-139150561D01*
X133623000Y-139150561D01*
X133623000Y-139090061D01*
X133583226Y-138890102D01*
X133505205Y-138701744D01*
X133391937Y-138532226D01*
X133247774Y-138388063D01*
X133078256Y-138274795D01*
X132889898Y-138196774D01*
X132689939Y-138157000D01*
X132486061Y-138157000D01*
X132286102Y-138196774D01*
X132097744Y-138274795D01*
X131928226Y-138388063D01*
X131784063Y-138532226D01*
X131670795Y-138701744D01*
X131592774Y-138890102D01*
X131553000Y-139090061D01*
X115422966Y-139090061D01*
X115395226Y-138950602D01*
X115317205Y-138762244D01*
X115203937Y-138592726D01*
X115059774Y-138448563D01*
X114890256Y-138335295D01*
X114701898Y-138257274D01*
X114501939Y-138217500D01*
X114298061Y-138217500D01*
X114098102Y-138257274D01*
X113909744Y-138335295D01*
X113740226Y-138448563D01*
X113665000Y-138523789D01*
X113589774Y-138448563D01*
X113420256Y-138335295D01*
X113231898Y-138257274D01*
X113031939Y-138217500D01*
X112828061Y-138217500D01*
X112628102Y-138257274D01*
X112439744Y-138335295D01*
X112270226Y-138448563D01*
X112126063Y-138592726D01*
X112012795Y-138762244D01*
X111934774Y-138950602D01*
X111895000Y-139150561D01*
X104667000Y-139150561D01*
X104667000Y-139090061D01*
X104627226Y-138890102D01*
X104549205Y-138701744D01*
X104435937Y-138532226D01*
X104291774Y-138388063D01*
X104122256Y-138274795D01*
X103933898Y-138196774D01*
X103733939Y-138157000D01*
X103530061Y-138157000D01*
X103330102Y-138196774D01*
X103141744Y-138274795D01*
X102972226Y-138388063D01*
X102828063Y-138532226D01*
X102743000Y-138659532D01*
X102743000Y-137693061D01*
X117075000Y-137693061D01*
X117075000Y-137896939D01*
X117114774Y-138096898D01*
X117192795Y-138285256D01*
X117306063Y-138454774D01*
X117450226Y-138598937D01*
X117619744Y-138712205D01*
X117808102Y-138790226D01*
X118008061Y-138830000D01*
X118211939Y-138830000D01*
X118411898Y-138790226D01*
X118600256Y-138712205D01*
X118769774Y-138598937D01*
X118913937Y-138454774D01*
X119027205Y-138285256D01*
X119105226Y-138096898D01*
X119145000Y-137896939D01*
X119145000Y-137693061D01*
X145650000Y-137693061D01*
X145650000Y-137896939D01*
X145689774Y-138096898D01*
X145767795Y-138285256D01*
X145881063Y-138454774D01*
X146025226Y-138598937D01*
X146194744Y-138712205D01*
X146383102Y-138790226D01*
X146583061Y-138830000D01*
X146786939Y-138830000D01*
X146986898Y-138790226D01*
X147175256Y-138712205D01*
X147344774Y-138598937D01*
X147488937Y-138454774D01*
X147602205Y-138285256D01*
X147680226Y-138096898D01*
X147720000Y-137896939D01*
X147720000Y-137693061D01*
X147680226Y-137493102D01*
X147602205Y-137304744D01*
X147488937Y-137135226D01*
X147344774Y-136991063D01*
X147175256Y-136877795D01*
X146986898Y-136799774D01*
X146786939Y-136760000D01*
X146583061Y-136760000D01*
X146383102Y-136799774D01*
X146194744Y-136877795D01*
X146025226Y-136991063D01*
X145881063Y-137135226D01*
X145767795Y-137304744D01*
X145689774Y-137493102D01*
X145650000Y-137693061D01*
X119145000Y-137693061D01*
X119105226Y-137493102D01*
X119027205Y-137304744D01*
X118913937Y-137135226D01*
X118769774Y-136991063D01*
X118600256Y-136877795D01*
X118411898Y-136799774D01*
X118211939Y-136760000D01*
X118008061Y-136760000D01*
X117808102Y-136799774D01*
X117619744Y-136877795D01*
X117450226Y-136991063D01*
X117306063Y-137135226D01*
X117192795Y-137304744D01*
X117114774Y-137493102D01*
X117075000Y-137693061D01*
X102743000Y-137693061D01*
X102743000Y-136778673D01*
X111741295Y-136755422D01*
X111780774Y-136953898D01*
X111858795Y-137142256D01*
X111972063Y-137311774D01*
X112116226Y-137455937D01*
X112285744Y-137569205D01*
X112474102Y-137647226D01*
X112674061Y-137687000D01*
X112877939Y-137687000D01*
X113077898Y-137647226D01*
X113266256Y-137569205D01*
X113435774Y-137455937D01*
X113579937Y-137311774D01*
X113693205Y-137142256D01*
X113771226Y-136953898D01*
X113811000Y-136753939D01*
X113811000Y-136750073D01*
X151765328Y-136652000D01*
X151790098Y-136649495D01*
X151813904Y-136642207D01*
X151835830Y-136630414D01*
X151855034Y-136614570D01*
X151870779Y-136595284D01*
X151882458Y-136573297D01*
X151889623Y-136549455D01*
X151892000Y-136525000D01*
X151892000Y-120716711D01*
X151933937Y-120674774D01*
X152047205Y-120505256D01*
X152125226Y-120316898D01*
X152165000Y-120116939D01*
X152165000Y-119913061D01*
X152125226Y-119713102D01*
X152047205Y-119524744D01*
X151933937Y-119355226D01*
X151892000Y-119313289D01*
X151892000Y-116906711D01*
X151933937Y-116864774D01*
X152047205Y-116695256D01*
X152125226Y-116506898D01*
X152165000Y-116306939D01*
X152165000Y-116103061D01*
X152125226Y-115903102D01*
X152047205Y-115714744D01*
X151933937Y-115545226D01*
X151892000Y-115503289D01*
X151892000Y-108855349D01*
X151909744Y-108867205D01*
X152098102Y-108945226D01*
X152298061Y-108985000D01*
X152501939Y-108985000D01*
X152701898Y-108945226D01*
X152890256Y-108867205D01*
X153059774Y-108753937D01*
X153203937Y-108609774D01*
X153317205Y-108440256D01*
X153395226Y-108251898D01*
X153435000Y-108051939D01*
X153435000Y-107848061D01*
X153395226Y-107648102D01*
X153317205Y-107459744D01*
X153203937Y-107290226D01*
X153059774Y-107146063D01*
X152890256Y-107032795D01*
X152701898Y-106954774D01*
X152501939Y-106915000D01*
X152298061Y-106915000D01*
X152098102Y-106954774D01*
X151909744Y-107032795D01*
X151892000Y-107044651D01*
X151892000Y-97425349D01*
X151909744Y-97437205D01*
X152098102Y-97515226D01*
X152298061Y-97555000D01*
X152501939Y-97555000D01*
X152701898Y-97515226D01*
X152890256Y-97437205D01*
X153059774Y-97323937D01*
X153203937Y-97179774D01*
X153317205Y-97010256D01*
X153395226Y-96821898D01*
X153435000Y-96621939D01*
X153435000Y-96418061D01*
X153395226Y-96218102D01*
X153317205Y-96029744D01*
X153203937Y-95860226D01*
X153059774Y-95716063D01*
X152890256Y-95602795D01*
X152701898Y-95524774D01*
X152501939Y-95485000D01*
X152298061Y-95485000D01*
X152098102Y-95524774D01*
X151909744Y-95602795D01*
X151892000Y-95614651D01*
X151892000Y-95250000D01*
X151889560Y-95225224D01*
X151882333Y-95201399D01*
X151870597Y-95179443D01*
X151854803Y-95160197D01*
X151835557Y-95144403D01*
X151813601Y-95132667D01*
X151789776Y-95125440D01*
X151765000Y-95123000D01*
X147447000Y-95123000D01*
X147447000Y-94292490D01*
X147471774Y-94275937D01*
X147615937Y-94131774D01*
X147729205Y-93962256D01*
X147807226Y-93773898D01*
X147847000Y-93573939D01*
X147847000Y-93370061D01*
X147807226Y-93170102D01*
X147729205Y-92981744D01*
X147615937Y-92812226D01*
X147471774Y-92668063D01*
X147447000Y-92651510D01*
X147447000Y-90449061D01*
X148190000Y-90449061D01*
X148190000Y-90652939D01*
X148229774Y-90852898D01*
X148307795Y-91041256D01*
X148421063Y-91210774D01*
X148565226Y-91354937D01*
X148734744Y-91468205D01*
X148923102Y-91546226D01*
X149123061Y-91586000D01*
X149326939Y-91586000D01*
X149526898Y-91546226D01*
X149715256Y-91468205D01*
X149884774Y-91354937D01*
X150028937Y-91210774D01*
X150142205Y-91041256D01*
X150220226Y-90852898D01*
X150260000Y-90652939D01*
X150260000Y-90449061D01*
X150220226Y-90249102D01*
X150142205Y-90060744D01*
X150028937Y-89891226D01*
X149884774Y-89747063D01*
X149715256Y-89633795D01*
X149526898Y-89555774D01*
X149326939Y-89516000D01*
X149123061Y-89516000D01*
X148923102Y-89555774D01*
X148734744Y-89633795D01*
X148565226Y-89747063D01*
X148421063Y-89891226D01*
X148307795Y-90060744D01*
X148229774Y-90249102D01*
X148190000Y-90449061D01*
X147447000Y-90449061D01*
X147447000Y-86766061D01*
X149841000Y-86766061D01*
X149841000Y-86969939D01*
X149880774Y-87169898D01*
X149958795Y-87358256D01*
X150072063Y-87527774D01*
X150216226Y-87671937D01*
X150385744Y-87785205D01*
X150574102Y-87863226D01*
X150774061Y-87903000D01*
X150977939Y-87903000D01*
X151177898Y-87863226D01*
X151366256Y-87785205D01*
X151535774Y-87671937D01*
X151679937Y-87527774D01*
X151793205Y-87358256D01*
X151871226Y-87169898D01*
X151911000Y-86969939D01*
X151911000Y-86766061D01*
X151871226Y-86566102D01*
X151793205Y-86377744D01*
X151679937Y-86208226D01*
X151535774Y-86064063D01*
X151366256Y-85950795D01*
X151177898Y-85872774D01*
X150977939Y-85833000D01*
X150774061Y-85833000D01*
X150574102Y-85872774D01*
X150385744Y-85950795D01*
X150216226Y-86064063D01*
X150072063Y-86208226D01*
X149958795Y-86377744D01*
X149880774Y-86566102D01*
X149841000Y-86766061D01*
X147447000Y-86766061D01*
X147447000Y-77470000D01*
X147444560Y-77445224D01*
X147437333Y-77421399D01*
X147425597Y-77399443D01*
X147409803Y-77380197D01*
X147390557Y-77364403D01*
X147368601Y-77352667D01*
X147344776Y-77345440D01*
X147320000Y-77343000D01*
X102743000Y-77343000D01*
X102743000Y-68478061D01*
X124695000Y-68478061D01*
X124695000Y-68681939D01*
X124734774Y-68881898D01*
X124812795Y-69070256D01*
X124926063Y-69239774D01*
X125070226Y-69383937D01*
X125239744Y-69497205D01*
X125428102Y-69575226D01*
X125628061Y-69615000D01*
X125831939Y-69615000D01*
X126031898Y-69575226D01*
X126220256Y-69497205D01*
X126389774Y-69383937D01*
X126533937Y-69239774D01*
X126647205Y-69070256D01*
X126725226Y-68881898D01*
X126765000Y-68681939D01*
X126765000Y-68478061D01*
X126725226Y-68278102D01*
X126647205Y-68089744D01*
X126533937Y-67920226D01*
X126389774Y-67776063D01*
X126220256Y-67662795D01*
X126031898Y-67584774D01*
X125831939Y-67545000D01*
X125628061Y-67545000D01*
X125428102Y-67584774D01*
X125239744Y-67662795D01*
X125070226Y-67776063D01*
X124926063Y-67920226D01*
X124812795Y-68089744D01*
X124734774Y-68278102D01*
X124695000Y-68478061D01*
X102743000Y-68478061D01*
X102743000Y-66702525D01*
X102808254Y-66622516D01*
X103090486Y-66389035D01*
X103412695Y-66214817D01*
X103567165Y-66167000D01*
X152973513Y-66167000D01*
X153115208Y-66209780D01*
%TA.AperFunction,Conductor*%
D14*
G36*
X153115208Y-66209780D02*
G01*
X153438625Y-66381744D01*
X153722484Y-66613254D01*
X153955965Y-66895486D01*
X154130183Y-67217695D01*
X154178000Y-67372165D01*
X154178000Y-148528512D01*
X154135220Y-148670206D01*
X153963257Y-148993623D01*
X153731748Y-149277482D01*
X153449514Y-149510965D01*
X153127304Y-149685184D01*
X152972835Y-149733000D01*
X103566488Y-149733000D01*
X103424794Y-149690220D01*
X103101377Y-149518257D01*
X102817518Y-149286748D01*
X102743000Y-149196671D01*
X102743000Y-147853061D01*
X118980000Y-147853061D01*
X118980000Y-148056939D01*
X119019774Y-148256898D01*
X119097795Y-148445256D01*
X119211063Y-148614774D01*
X119355226Y-148758937D01*
X119524744Y-148872205D01*
X119713102Y-148950226D01*
X119913061Y-148990000D01*
X120116939Y-148990000D01*
X120316898Y-148950226D01*
X120505256Y-148872205D01*
X120674774Y-148758937D01*
X120818937Y-148614774D01*
X120932205Y-148445256D01*
X121010226Y-148256898D01*
X121050000Y-148056939D01*
X121050000Y-147853061D01*
X121520000Y-147853061D01*
X121520000Y-148056939D01*
X121559774Y-148256898D01*
X121637795Y-148445256D01*
X121751063Y-148614774D01*
X121895226Y-148758937D01*
X122064744Y-148872205D01*
X122253102Y-148950226D01*
X122453061Y-148990000D01*
X122656939Y-148990000D01*
X122856898Y-148950226D01*
X123045256Y-148872205D01*
X123214774Y-148758937D01*
X123358937Y-148614774D01*
X123472205Y-148445256D01*
X123550226Y-148256898D01*
X123590000Y-148056939D01*
X123590000Y-147853061D01*
X123550226Y-147653102D01*
X123472205Y-147464744D01*
X123358937Y-147295226D01*
X123281772Y-147218061D01*
X147555000Y-147218061D01*
X147555000Y-147421939D01*
X147594774Y-147621898D01*
X147672795Y-147810256D01*
X147786063Y-147979774D01*
X147930226Y-148123937D01*
X148099744Y-148237205D01*
X148288102Y-148315226D01*
X148488061Y-148355000D01*
X148691939Y-148355000D01*
X148891898Y-148315226D01*
X149080256Y-148237205D01*
X149249774Y-148123937D01*
X149393937Y-147979774D01*
X149507205Y-147810256D01*
X149585226Y-147621898D01*
X149625000Y-147421939D01*
X149625000Y-147218061D01*
X150095000Y-147218061D01*
X150095000Y-147421939D01*
X150134774Y-147621898D01*
X150212795Y-147810256D01*
X150326063Y-147979774D01*
X150470226Y-148123937D01*
X150639744Y-148237205D01*
X150828102Y-148315226D01*
X151028061Y-148355000D01*
X151231939Y-148355000D01*
X151431898Y-148315226D01*
X151620256Y-148237205D01*
X151789774Y-148123937D01*
X151933937Y-147979774D01*
X152047205Y-147810256D01*
X152125226Y-147621898D01*
X152165000Y-147421939D01*
X152165000Y-147218061D01*
X152125226Y-147018102D01*
X152047205Y-146829744D01*
X151933937Y-146660226D01*
X151789774Y-146516063D01*
X151620256Y-146402795D01*
X151431898Y-146324774D01*
X151231939Y-146285000D01*
X151028061Y-146285000D01*
X150828102Y-146324774D01*
X150639744Y-146402795D01*
X150470226Y-146516063D01*
X150326063Y-146660226D01*
X150212795Y-146829744D01*
X150134774Y-147018102D01*
X150095000Y-147218061D01*
X149625000Y-147218061D01*
X149585226Y-147018102D01*
X149507205Y-146829744D01*
X149393937Y-146660226D01*
X149249774Y-146516063D01*
X149080256Y-146402795D01*
X148891898Y-146324774D01*
X148691939Y-146285000D01*
X148488061Y-146285000D01*
X148288102Y-146324774D01*
X148099744Y-146402795D01*
X147930226Y-146516063D01*
X147786063Y-146660226D01*
X147672795Y-146829744D01*
X147594774Y-147018102D01*
X147555000Y-147218061D01*
X123281772Y-147218061D01*
X123214774Y-147151063D01*
X123045256Y-147037795D01*
X122856898Y-146959774D01*
X122656939Y-146920000D01*
X122453061Y-146920000D01*
X122253102Y-146959774D01*
X122064744Y-147037795D01*
X121895226Y-147151063D01*
X121751063Y-147295226D01*
X121637795Y-147464744D01*
X121559774Y-147653102D01*
X121520000Y-147853061D01*
X121050000Y-147853061D01*
X121010226Y-147653102D01*
X120932205Y-147464744D01*
X120818937Y-147295226D01*
X120674774Y-147151063D01*
X120505256Y-147037795D01*
X120316898Y-146959774D01*
X120116939Y-146920000D01*
X119913061Y-146920000D01*
X119713102Y-146959774D01*
X119524744Y-147037795D01*
X119355226Y-147151063D01*
X119211063Y-147295226D01*
X119097795Y-147464744D01*
X119019774Y-147653102D01*
X118980000Y-147853061D01*
X102743000Y-147853061D01*
X102743000Y-144804468D01*
X102828063Y-144931774D01*
X102972226Y-145075937D01*
X103141744Y-145189205D01*
X103330102Y-145267226D01*
X103530061Y-145307000D01*
X103733939Y-145307000D01*
X103933898Y-145267226D01*
X104122256Y-145189205D01*
X104291774Y-145075937D01*
X104435937Y-144931774D01*
X104549205Y-144762256D01*
X104627226Y-144573898D01*
X104667000Y-144373939D01*
X104667000Y-144170061D01*
X104641739Y-144043061D01*
X131045000Y-144043061D01*
X131045000Y-144246939D01*
X131084774Y-144446898D01*
X131162795Y-144635256D01*
X131276063Y-144804774D01*
X131420226Y-144948937D01*
X131589744Y-145062205D01*
X131778102Y-145140226D01*
X131978061Y-145180000D01*
X132181939Y-145180000D01*
X132381898Y-145140226D01*
X132570256Y-145062205D01*
X132739774Y-144948937D01*
X132883937Y-144804774D01*
X132997205Y-144635256D01*
X133075226Y-144446898D01*
X133115000Y-144246939D01*
X133115000Y-144043061D01*
X133075226Y-143843102D01*
X132997205Y-143654744D01*
X132883937Y-143485226D01*
X132739774Y-143341063D01*
X132570256Y-143227795D01*
X132381898Y-143149774D01*
X132181939Y-143110000D01*
X131978061Y-143110000D01*
X131778102Y-143149774D01*
X131589744Y-143227795D01*
X131420226Y-143341063D01*
X131276063Y-143485226D01*
X131162795Y-143654744D01*
X131084774Y-143843102D01*
X131045000Y-144043061D01*
X104641739Y-144043061D01*
X104627226Y-143970102D01*
X104549205Y-143781744D01*
X104435937Y-143612226D01*
X104291774Y-143468063D01*
X104122256Y-143354795D01*
X103933898Y-143276774D01*
X103733939Y-143237000D01*
X103530061Y-143237000D01*
X103330102Y-143276774D01*
X103141744Y-143354795D01*
X102972226Y-143468063D01*
X102828063Y-143612226D01*
X102743000Y-143739532D01*
X102743000Y-142646061D01*
X115297000Y-142646061D01*
X115297000Y-142849939D01*
X115336774Y-143049898D01*
X115414795Y-143238256D01*
X115528063Y-143407774D01*
X115672226Y-143551937D01*
X115841744Y-143665205D01*
X116030102Y-143743226D01*
X116230061Y-143783000D01*
X116433939Y-143783000D01*
X116633898Y-143743226D01*
X116822256Y-143665205D01*
X116991774Y-143551937D01*
X117135937Y-143407774D01*
X117249205Y-143238256D01*
X117327226Y-143049898D01*
X117367000Y-142849939D01*
X117367000Y-142646061D01*
X144253000Y-142646061D01*
X144253000Y-142849939D01*
X144292774Y-143049898D01*
X144370795Y-143238256D01*
X144484063Y-143407774D01*
X144628226Y-143551937D01*
X144797744Y-143665205D01*
X144986102Y-143743226D01*
X145186061Y-143783000D01*
X145389939Y-143783000D01*
X145589898Y-143743226D01*
X145778256Y-143665205D01*
X145947774Y-143551937D01*
X146091937Y-143407774D01*
X146205205Y-143238256D01*
X146283226Y-143049898D01*
X146323000Y-142849939D01*
X146323000Y-142646061D01*
X146283226Y-142446102D01*
X146205205Y-142257744D01*
X146091937Y-142088226D01*
X145947774Y-141944063D01*
X145778256Y-141830795D01*
X145589898Y-141752774D01*
X145389939Y-141713000D01*
X145186061Y-141713000D01*
X144986102Y-141752774D01*
X144797744Y-141830795D01*
X144628226Y-141944063D01*
X144484063Y-142088226D01*
X144370795Y-142257744D01*
X144292774Y-142446102D01*
X144253000Y-142646061D01*
X117367000Y-142646061D01*
X117327226Y-142446102D01*
X117249205Y-142257744D01*
X117135937Y-142088226D01*
X116991774Y-141944063D01*
X116822256Y-141830795D01*
X116633898Y-141752774D01*
X116433939Y-141713000D01*
X116230061Y-141713000D01*
X116030102Y-141752774D01*
X115841744Y-141830795D01*
X115672226Y-141944063D01*
X115528063Y-142088226D01*
X115414795Y-142257744D01*
X115336774Y-142446102D01*
X115297000Y-142646061D01*
X102743000Y-142646061D01*
X102743000Y-140868061D01*
X107550000Y-140868061D01*
X107550000Y-141071939D01*
X107589774Y-141271898D01*
X107667795Y-141460256D01*
X107781063Y-141629774D01*
X107925226Y-141773937D01*
X108094744Y-141887205D01*
X108283102Y-141965226D01*
X108483061Y-142005000D01*
X108686939Y-142005000D01*
X108886898Y-141965226D01*
X109075256Y-141887205D01*
X109244774Y-141773937D01*
X109388937Y-141629774D01*
X109502205Y-141460256D01*
X109580226Y-141271898D01*
X109620000Y-141071939D01*
X109620000Y-140868061D01*
X109580226Y-140668102D01*
X109502205Y-140479744D01*
X109388937Y-140310226D01*
X109244774Y-140166063D01*
X109075256Y-140052795D01*
X108886898Y-139974774D01*
X108686939Y-139935000D01*
X108483061Y-139935000D01*
X108283102Y-139974774D01*
X108094744Y-140052795D01*
X107925226Y-140166063D01*
X107781063Y-140310226D01*
X107667795Y-140479744D01*
X107589774Y-140668102D01*
X107550000Y-140868061D01*
X102743000Y-140868061D01*
X102743000Y-139724468D01*
X102828063Y-139851774D01*
X102972226Y-139995937D01*
X103141744Y-140109205D01*
X103330102Y-140187226D01*
X103530061Y-140227000D01*
X103733939Y-140227000D01*
X103933898Y-140187226D01*
X104122256Y-140109205D01*
X104291774Y-139995937D01*
X104435937Y-139851774D01*
X104549205Y-139682256D01*
X104627226Y-139493898D01*
X104667000Y-139293939D01*
X104667000Y-139150561D01*
X111895000Y-139150561D01*
X111895000Y-139354439D01*
X111934774Y-139554398D01*
X112012795Y-139742756D01*
X112126063Y-139912274D01*
X112270226Y-140056437D01*
X112406512Y-140147500D01*
X112270226Y-140238563D01*
X112126063Y-140382726D01*
X112012795Y-140552244D01*
X111934774Y-140740602D01*
X111895000Y-140940561D01*
X111895000Y-141144439D01*
X111934774Y-141344398D01*
X112012795Y-141532756D01*
X112126063Y-141702274D01*
X112270226Y-141846437D01*
X112439744Y-141959705D01*
X112628102Y-142037726D01*
X112828061Y-142077500D01*
X113031939Y-142077500D01*
X113231898Y-142037726D01*
X113420256Y-141959705D01*
X113589774Y-141846437D01*
X113665000Y-141771211D01*
X113740226Y-141846437D01*
X113909744Y-141959705D01*
X114098102Y-142037726D01*
X114298061Y-142077500D01*
X114501939Y-142077500D01*
X114701898Y-142037726D01*
X114890256Y-141959705D01*
X115059774Y-141846437D01*
X115203937Y-141702274D01*
X115317205Y-141532756D01*
X115395226Y-141344398D01*
X115435000Y-141144439D01*
X115435000Y-140940561D01*
X115420579Y-140868061D01*
X136125000Y-140868061D01*
X136125000Y-141071939D01*
X136164774Y-141271898D01*
X136242795Y-141460256D01*
X136356063Y-141629774D01*
X136500226Y-141773937D01*
X136669744Y-141887205D01*
X136858102Y-141965226D01*
X137058061Y-142005000D01*
X137261939Y-142005000D01*
X137461898Y-141965226D01*
X137650256Y-141887205D01*
X137819774Y-141773937D01*
X137963937Y-141629774D01*
X138077205Y-141460256D01*
X138155226Y-141271898D01*
X138195000Y-141071939D01*
X138195000Y-140868061D01*
X138155226Y-140668102D01*
X138077205Y-140479744D01*
X137963937Y-140310226D01*
X137819774Y-140166063D01*
X137650256Y-140052795D01*
X137461898Y-139974774D01*
X137261939Y-139935000D01*
X137058061Y-139935000D01*
X136858102Y-139974774D01*
X136669744Y-140052795D01*
X136500226Y-140166063D01*
X136356063Y-140310226D01*
X136242795Y-140479744D01*
X136164774Y-140668102D01*
X136125000Y-140868061D01*
X115420579Y-140868061D01*
X115395226Y-140740602D01*
X115317205Y-140552244D01*
X115203937Y-140382726D01*
X115059774Y-140238563D01*
X114923488Y-140147500D01*
X115059774Y-140056437D01*
X115203937Y-139912274D01*
X115317205Y-139742756D01*
X115395226Y-139554398D01*
X115435000Y-139354439D01*
X115435000Y-139150561D01*
X115422966Y-139090061D01*
X131553000Y-139090061D01*
X131553000Y-139293939D01*
X131592774Y-139493898D01*
X131670795Y-139682256D01*
X131784063Y-139851774D01*
X131928226Y-139995937D01*
X132097744Y-140109205D01*
X132286102Y-140187226D01*
X132486061Y-140227000D01*
X132689939Y-140227000D01*
X132889898Y-140187226D01*
X133078256Y-140109205D01*
X133247774Y-139995937D01*
X133391937Y-139851774D01*
X133505205Y-139682256D01*
X133583226Y-139493898D01*
X133623000Y-139293939D01*
X133623000Y-139150561D01*
X140470000Y-139150561D01*
X140470000Y-139354439D01*
X140509774Y-139554398D01*
X140587795Y-139742756D01*
X140701063Y-139912274D01*
X140845226Y-140056437D01*
X140981512Y-140147500D01*
X140845226Y-140238563D01*
X140701063Y-140382726D01*
X140587795Y-140552244D01*
X140509774Y-140740602D01*
X140470000Y-140940561D01*
X140470000Y-141144439D01*
X140509774Y-141344398D01*
X140587795Y-141532756D01*
X140701063Y-141702274D01*
X140845226Y-141846437D01*
X141014744Y-141959705D01*
X141203102Y-142037726D01*
X141403061Y-142077500D01*
X141606939Y-142077500D01*
X141806898Y-142037726D01*
X141995256Y-141959705D01*
X142164774Y-141846437D01*
X142240000Y-141771211D01*
X142315226Y-141846437D01*
X142484744Y-141959705D01*
X142673102Y-142037726D01*
X142873061Y-142077500D01*
X143076939Y-142077500D01*
X143276898Y-142037726D01*
X143465256Y-141959705D01*
X143634774Y-141846437D01*
X143778937Y-141702274D01*
X143892205Y-141532756D01*
X143970226Y-141344398D01*
X144010000Y-141144439D01*
X144010000Y-140940561D01*
X143970226Y-140740602D01*
X143892205Y-140552244D01*
X143778937Y-140382726D01*
X143634774Y-140238563D01*
X143498488Y-140147500D01*
X143634774Y-140056437D01*
X143778937Y-139912274D01*
X143892205Y-139742756D01*
X143970226Y-139554398D01*
X144010000Y-139354439D01*
X144010000Y-139150561D01*
X143970226Y-138950602D01*
X143892205Y-138762244D01*
X143778937Y-138592726D01*
X143634774Y-138448563D01*
X143465256Y-138335295D01*
X143276898Y-138257274D01*
X143076939Y-138217500D01*
X142873061Y-138217500D01*
X142673102Y-138257274D01*
X142484744Y-138335295D01*
X142315226Y-138448563D01*
X142240000Y-138523789D01*
X142164774Y-138448563D01*
X141995256Y-138335295D01*
X141806898Y-138257274D01*
X141606939Y-138217500D01*
X141403061Y-138217500D01*
X141203102Y-138257274D01*
X141014744Y-138335295D01*
X140845226Y-138448563D01*
X140701063Y-138592726D01*
X140587795Y-138762244D01*
X140509774Y-138950602D01*
X140470000Y-139150561D01*
X133623000Y-139150561D01*
X133623000Y-139090061D01*
X133583226Y-138890102D01*
X133505205Y-138701744D01*
X133391937Y-138532226D01*
X133247774Y-138388063D01*
X133078256Y-138274795D01*
X132889898Y-138196774D01*
X132689939Y-138157000D01*
X132486061Y-138157000D01*
X132286102Y-138196774D01*
X132097744Y-138274795D01*
X131928226Y-138388063D01*
X131784063Y-138532226D01*
X131670795Y-138701744D01*
X131592774Y-138890102D01*
X131553000Y-139090061D01*
X115422966Y-139090061D01*
X115395226Y-138950602D01*
X115317205Y-138762244D01*
X115203937Y-138592726D01*
X115059774Y-138448563D01*
X114890256Y-138335295D01*
X114701898Y-138257274D01*
X114501939Y-138217500D01*
X114298061Y-138217500D01*
X114098102Y-138257274D01*
X113909744Y-138335295D01*
X113740226Y-138448563D01*
X113665000Y-138523789D01*
X113589774Y-138448563D01*
X113420256Y-138335295D01*
X113231898Y-138257274D01*
X113031939Y-138217500D01*
X112828061Y-138217500D01*
X112628102Y-138257274D01*
X112439744Y-138335295D01*
X112270226Y-138448563D01*
X112126063Y-138592726D01*
X112012795Y-138762244D01*
X111934774Y-138950602D01*
X111895000Y-139150561D01*
X104667000Y-139150561D01*
X104667000Y-139090061D01*
X104627226Y-138890102D01*
X104549205Y-138701744D01*
X104435937Y-138532226D01*
X104291774Y-138388063D01*
X104122256Y-138274795D01*
X103933898Y-138196774D01*
X103733939Y-138157000D01*
X103530061Y-138157000D01*
X103330102Y-138196774D01*
X103141744Y-138274795D01*
X102972226Y-138388063D01*
X102828063Y-138532226D01*
X102743000Y-138659532D01*
X102743000Y-137693061D01*
X117075000Y-137693061D01*
X117075000Y-137896939D01*
X117114774Y-138096898D01*
X117192795Y-138285256D01*
X117306063Y-138454774D01*
X117450226Y-138598937D01*
X117619744Y-138712205D01*
X117808102Y-138790226D01*
X118008061Y-138830000D01*
X118211939Y-138830000D01*
X118411898Y-138790226D01*
X118600256Y-138712205D01*
X118769774Y-138598937D01*
X118913937Y-138454774D01*
X119027205Y-138285256D01*
X119105226Y-138096898D01*
X119145000Y-137896939D01*
X119145000Y-137693061D01*
X145650000Y-137693061D01*
X145650000Y-137896939D01*
X145689774Y-138096898D01*
X145767795Y-138285256D01*
X145881063Y-138454774D01*
X146025226Y-138598937D01*
X146194744Y-138712205D01*
X146383102Y-138790226D01*
X146583061Y-138830000D01*
X146786939Y-138830000D01*
X146986898Y-138790226D01*
X147175256Y-138712205D01*
X147344774Y-138598937D01*
X147488937Y-138454774D01*
X147602205Y-138285256D01*
X147680226Y-138096898D01*
X147720000Y-137896939D01*
X147720000Y-137693061D01*
X147680226Y-137493102D01*
X147602205Y-137304744D01*
X147488937Y-137135226D01*
X147344774Y-136991063D01*
X147175256Y-136877795D01*
X146986898Y-136799774D01*
X146786939Y-136760000D01*
X146583061Y-136760000D01*
X146383102Y-136799774D01*
X146194744Y-136877795D01*
X146025226Y-136991063D01*
X145881063Y-137135226D01*
X145767795Y-137304744D01*
X145689774Y-137493102D01*
X145650000Y-137693061D01*
X119145000Y-137693061D01*
X119105226Y-137493102D01*
X119027205Y-137304744D01*
X118913937Y-137135226D01*
X118769774Y-136991063D01*
X118600256Y-136877795D01*
X118411898Y-136799774D01*
X118211939Y-136760000D01*
X118008061Y-136760000D01*
X117808102Y-136799774D01*
X117619744Y-136877795D01*
X117450226Y-136991063D01*
X117306063Y-137135226D01*
X117192795Y-137304744D01*
X117114774Y-137493102D01*
X117075000Y-137693061D01*
X102743000Y-137693061D01*
X102743000Y-136778673D01*
X111741295Y-136755422D01*
X111780774Y-136953898D01*
X111858795Y-137142256D01*
X111972063Y-137311774D01*
X112116226Y-137455937D01*
X112285744Y-137569205D01*
X112474102Y-137647226D01*
X112674061Y-137687000D01*
X112877939Y-137687000D01*
X113077898Y-137647226D01*
X113266256Y-137569205D01*
X113435774Y-137455937D01*
X113579937Y-137311774D01*
X113693205Y-137142256D01*
X113771226Y-136953898D01*
X113811000Y-136753939D01*
X113811000Y-136750073D01*
X151765328Y-136652000D01*
X151790098Y-136649495D01*
X151813904Y-136642207D01*
X151835830Y-136630414D01*
X151855034Y-136614570D01*
X151870779Y-136595284D01*
X151882458Y-136573297D01*
X151889623Y-136549455D01*
X151892000Y-136525000D01*
X151892000Y-120716711D01*
X151933937Y-120674774D01*
X152047205Y-120505256D01*
X152125226Y-120316898D01*
X152165000Y-120116939D01*
X152165000Y-119913061D01*
X152125226Y-119713102D01*
X152047205Y-119524744D01*
X151933937Y-119355226D01*
X151892000Y-119313289D01*
X151892000Y-116906711D01*
X151933937Y-116864774D01*
X152047205Y-116695256D01*
X152125226Y-116506898D01*
X152165000Y-116306939D01*
X152165000Y-116103061D01*
X152125226Y-115903102D01*
X152047205Y-115714744D01*
X151933937Y-115545226D01*
X151892000Y-115503289D01*
X151892000Y-108855349D01*
X151909744Y-108867205D01*
X152098102Y-108945226D01*
X152298061Y-108985000D01*
X152501939Y-108985000D01*
X152701898Y-108945226D01*
X152890256Y-108867205D01*
X153059774Y-108753937D01*
X153203937Y-108609774D01*
X153317205Y-108440256D01*
X153395226Y-108251898D01*
X153435000Y-108051939D01*
X153435000Y-107848061D01*
X153395226Y-107648102D01*
X153317205Y-107459744D01*
X153203937Y-107290226D01*
X153059774Y-107146063D01*
X152890256Y-107032795D01*
X152701898Y-106954774D01*
X152501939Y-106915000D01*
X152298061Y-106915000D01*
X152098102Y-106954774D01*
X151909744Y-107032795D01*
X151892000Y-107044651D01*
X151892000Y-97425349D01*
X151909744Y-97437205D01*
X152098102Y-97515226D01*
X152298061Y-97555000D01*
X152501939Y-97555000D01*
X152701898Y-97515226D01*
X152890256Y-97437205D01*
X153059774Y-97323937D01*
X153203937Y-97179774D01*
X153317205Y-97010256D01*
X153395226Y-96821898D01*
X153435000Y-96621939D01*
X153435000Y-96418061D01*
X153395226Y-96218102D01*
X153317205Y-96029744D01*
X153203937Y-95860226D01*
X153059774Y-95716063D01*
X152890256Y-95602795D01*
X152701898Y-95524774D01*
X152501939Y-95485000D01*
X152298061Y-95485000D01*
X152098102Y-95524774D01*
X151909744Y-95602795D01*
X151892000Y-95614651D01*
X151892000Y-95250000D01*
X151889560Y-95225224D01*
X151882333Y-95201399D01*
X151870597Y-95179443D01*
X151854803Y-95160197D01*
X151835557Y-95144403D01*
X151813601Y-95132667D01*
X151789776Y-95125440D01*
X151765000Y-95123000D01*
X147447000Y-95123000D01*
X147447000Y-94292490D01*
X147471774Y-94275937D01*
X147615937Y-94131774D01*
X147729205Y-93962256D01*
X147807226Y-93773898D01*
X147847000Y-93573939D01*
X147847000Y-93370061D01*
X147807226Y-93170102D01*
X147729205Y-92981744D01*
X147615937Y-92812226D01*
X147471774Y-92668063D01*
X147447000Y-92651510D01*
X147447000Y-90449061D01*
X148190000Y-90449061D01*
X148190000Y-90652939D01*
X148229774Y-90852898D01*
X148307795Y-91041256D01*
X148421063Y-91210774D01*
X148565226Y-91354937D01*
X148734744Y-91468205D01*
X148923102Y-91546226D01*
X149123061Y-91586000D01*
X149326939Y-91586000D01*
X149526898Y-91546226D01*
X149715256Y-91468205D01*
X149884774Y-91354937D01*
X150028937Y-91210774D01*
X150142205Y-91041256D01*
X150220226Y-90852898D01*
X150260000Y-90652939D01*
X150260000Y-90449061D01*
X150220226Y-90249102D01*
X150142205Y-90060744D01*
X150028937Y-89891226D01*
X149884774Y-89747063D01*
X149715256Y-89633795D01*
X149526898Y-89555774D01*
X149326939Y-89516000D01*
X149123061Y-89516000D01*
X148923102Y-89555774D01*
X148734744Y-89633795D01*
X148565226Y-89747063D01*
X148421063Y-89891226D01*
X148307795Y-90060744D01*
X148229774Y-90249102D01*
X148190000Y-90449061D01*
X147447000Y-90449061D01*
X147447000Y-86766061D01*
X149841000Y-86766061D01*
X149841000Y-86969939D01*
X149880774Y-87169898D01*
X149958795Y-87358256D01*
X150072063Y-87527774D01*
X150216226Y-87671937D01*
X150385744Y-87785205D01*
X150574102Y-87863226D01*
X150774061Y-87903000D01*
X150977939Y-87903000D01*
X151177898Y-87863226D01*
X151366256Y-87785205D01*
X151535774Y-87671937D01*
X151679937Y-87527774D01*
X151793205Y-87358256D01*
X151871226Y-87169898D01*
X151911000Y-86969939D01*
X151911000Y-86766061D01*
X151871226Y-86566102D01*
X151793205Y-86377744D01*
X151679937Y-86208226D01*
X151535774Y-86064063D01*
X151366256Y-85950795D01*
X151177898Y-85872774D01*
X150977939Y-85833000D01*
X150774061Y-85833000D01*
X150574102Y-85872774D01*
X150385744Y-85950795D01*
X150216226Y-86064063D01*
X150072063Y-86208226D01*
X149958795Y-86377744D01*
X149880774Y-86566102D01*
X149841000Y-86766061D01*
X147447000Y-86766061D01*
X147447000Y-77470000D01*
X147444560Y-77445224D01*
X147437333Y-77421399D01*
X147425597Y-77399443D01*
X147409803Y-77380197D01*
X147390557Y-77364403D01*
X147368601Y-77352667D01*
X147344776Y-77345440D01*
X147320000Y-77343000D01*
X102743000Y-77343000D01*
X102743000Y-68478061D01*
X124695000Y-68478061D01*
X124695000Y-68681939D01*
X124734774Y-68881898D01*
X124812795Y-69070256D01*
X124926063Y-69239774D01*
X125070226Y-69383937D01*
X125239744Y-69497205D01*
X125428102Y-69575226D01*
X125628061Y-69615000D01*
X125831939Y-69615000D01*
X126031898Y-69575226D01*
X126220256Y-69497205D01*
X126389774Y-69383937D01*
X126533937Y-69239774D01*
X126647205Y-69070256D01*
X126725226Y-68881898D01*
X126765000Y-68681939D01*
X126765000Y-68478061D01*
X126725226Y-68278102D01*
X126647205Y-68089744D01*
X126533937Y-67920226D01*
X126389774Y-67776063D01*
X126220256Y-67662795D01*
X126031898Y-67584774D01*
X125831939Y-67545000D01*
X125628061Y-67545000D01*
X125428102Y-67584774D01*
X125239744Y-67662795D01*
X125070226Y-67776063D01*
X124926063Y-67920226D01*
X124812795Y-68089744D01*
X124734774Y-68278102D01*
X124695000Y-68478061D01*
X102743000Y-68478061D01*
X102743000Y-66702525D01*
X102808254Y-66622516D01*
X103090486Y-66389035D01*
X103412695Y-66214817D01*
X103567165Y-66167000D01*
X152973513Y-66167000D01*
X153115208Y-66209780D01*
G37*
%TD.AperFunction*%
%TD*%
D13*
%TO.N,+3V3*%
X146558000Y-92467247D02*
X146510102Y-92476774D01*
X146321744Y-92554795D01*
X146152226Y-92668063D01*
X146008063Y-92812226D01*
X145894795Y-92981744D01*
X145816774Y-93170102D01*
X145777000Y-93370061D01*
X145777000Y-93573939D01*
X145816774Y-93773898D01*
X145894795Y-93962256D01*
X146008063Y-94131774D01*
X146152226Y-94275937D01*
X146321744Y-94389205D01*
X146510102Y-94467226D01*
X146558000Y-94476753D01*
X146558000Y-95885000D01*
X146560440Y-95909776D01*
X146567667Y-95933601D01*
X146579403Y-95955557D01*
X146595197Y-95974803D01*
X146614443Y-95990597D01*
X146636399Y-96002333D01*
X146660224Y-96009560D01*
X146682884Y-96011982D01*
X150367200Y-96073387D01*
X150257812Y-113192531D01*
X150230824Y-113127376D01*
X150106612Y-112941480D01*
X149948520Y-112783388D01*
X149762624Y-112659176D01*
X149556067Y-112573617D01*
X149336788Y-112530000D01*
X149113212Y-112530000D01*
X148893933Y-112573617D01*
X148687376Y-112659176D01*
X148585488Y-112727256D01*
X148464529Y-112650790D01*
X148256876Y-112570874D01*
X148082000Y-112695871D01*
X148082000Y-113538000D01*
X148093026Y-113538000D01*
X148090000Y-113553212D01*
X148090000Y-113776788D01*
X148093026Y-113792000D01*
X148082000Y-113792000D01*
X148082000Y-113803026D01*
X148066788Y-113800000D01*
X147843212Y-113800000D01*
X147828000Y-113803026D01*
X147828000Y-113792000D01*
X146987046Y-113792000D01*
X146860881Y-113966874D01*
X146877554Y-114021864D01*
X146967877Y-114225206D01*
X147017353Y-114295342D01*
X146949176Y-114397376D01*
X146863617Y-114603933D01*
X146820000Y-114823212D01*
X146820000Y-115046788D01*
X146863617Y-115266067D01*
X146909888Y-115377774D01*
X146865498Y-115460820D01*
X146829188Y-115580518D01*
X146816928Y-115705000D01*
X146816928Y-116705000D01*
X146829188Y-116829482D01*
X146865498Y-116949180D01*
X146924463Y-117059494D01*
X147003815Y-117156185D01*
X147100506Y-117235537D01*
X147210820Y-117294502D01*
X147330518Y-117330812D01*
X147455000Y-117343072D01*
X148455000Y-117343072D01*
X148579482Y-117330812D01*
X148699180Y-117294502D01*
X148782226Y-117250112D01*
X148893933Y-117296383D01*
X149113212Y-117340000D01*
X149336788Y-117340000D01*
X149556067Y-117296383D01*
X149762624Y-117210824D01*
X149948520Y-117086612D01*
X150106612Y-116928520D01*
X150230824Y-116742624D01*
X150235195Y-116732072D01*
X150217395Y-119517860D01*
X150212795Y-119524744D01*
X150134774Y-119713102D01*
X150095000Y-119913061D01*
X150095000Y-120116939D01*
X150134774Y-120316898D01*
X150211111Y-120501192D01*
X150114810Y-135572332D01*
X102743000Y-135509169D01*
X102743000Y-133502061D01*
X127489000Y-133502061D01*
X127489000Y-133705939D01*
X127528774Y-133905898D01*
X127606795Y-134094256D01*
X127720063Y-134263774D01*
X127864226Y-134407937D01*
X128033744Y-134521205D01*
X128222102Y-134599226D01*
X128422061Y-134639000D01*
X128625939Y-134639000D01*
X128825898Y-134599226D01*
X129014256Y-134521205D01*
X129183774Y-134407937D01*
X129327937Y-134263774D01*
X129441205Y-134094256D01*
X129519226Y-133905898D01*
X129559000Y-133705939D01*
X129559000Y-133502061D01*
X129519226Y-133302102D01*
X129441205Y-133113744D01*
X129327937Y-132944226D01*
X129183774Y-132800063D01*
X129014256Y-132686795D01*
X128825898Y-132608774D01*
X128625939Y-132569000D01*
X128422061Y-132569000D01*
X128222102Y-132608774D01*
X128033744Y-132686795D01*
X127864226Y-132800063D01*
X127720063Y-132944226D01*
X127606795Y-133113744D01*
X127528774Y-133302102D01*
X127489000Y-133502061D01*
X102743000Y-133502061D01*
X102743000Y-130962061D01*
X115805000Y-130962061D01*
X115805000Y-131165939D01*
X115844774Y-131365898D01*
X115922795Y-131554256D01*
X116036063Y-131723774D01*
X116180226Y-131867937D01*
X116349744Y-131981205D01*
X116538102Y-132059226D01*
X116738061Y-132099000D01*
X116941939Y-132099000D01*
X116953984Y-132096604D01*
X117047410Y-132236427D01*
X117191573Y-132380590D01*
X117361091Y-132493858D01*
X117549449Y-132571879D01*
X117749408Y-132611653D01*
X117953286Y-132611653D01*
X118153245Y-132571879D01*
X118341603Y-132493858D01*
X118511121Y-132380590D01*
X118655284Y-132236427D01*
X118768552Y-132066909D01*
X118846573Y-131878551D01*
X118886347Y-131678592D01*
X118886347Y-131474714D01*
X118846573Y-131274755D01*
X118768552Y-131086397D01*
X118655284Y-130916879D01*
X118511121Y-130772716D01*
X118341603Y-130659448D01*
X118153245Y-130581427D01*
X117953286Y-130541653D01*
X117749408Y-130541653D01*
X117737363Y-130544049D01*
X117643937Y-130404226D01*
X117499774Y-130260063D01*
X117330256Y-130146795D01*
X117141898Y-130068774D01*
X116941939Y-130029000D01*
X116738061Y-130029000D01*
X116538102Y-130068774D01*
X116349744Y-130146795D01*
X116180226Y-130260063D01*
X116036063Y-130404226D01*
X115922795Y-130573744D01*
X115844774Y-130762102D01*
X115805000Y-130962061D01*
X102743000Y-130962061D01*
X102743000Y-129381059D01*
X129013000Y-129381059D01*
X129013000Y-129584937D01*
X129052774Y-129784896D01*
X129130795Y-129973254D01*
X129244063Y-130142772D01*
X129388226Y-130286935D01*
X129557744Y-130400203D01*
X129746102Y-130478224D01*
X129946061Y-130517998D01*
X130149939Y-130517998D01*
X130349898Y-130478224D01*
X130538256Y-130400203D01*
X130707774Y-130286935D01*
X130851937Y-130142772D01*
X130965205Y-129973254D01*
X131043226Y-129784896D01*
X131083000Y-129584937D01*
X131083000Y-129381059D01*
X131043226Y-129181100D01*
X130965205Y-128992742D01*
X130851937Y-128823224D01*
X130707774Y-128679061D01*
X130538256Y-128565793D01*
X130349898Y-128487772D01*
X130149939Y-128447998D01*
X129946061Y-128447998D01*
X129746102Y-128487772D01*
X129557744Y-128565793D01*
X129388226Y-128679061D01*
X129244063Y-128823224D01*
X129130795Y-128992742D01*
X129052774Y-129181100D01*
X129013000Y-129381059D01*
X102743000Y-129381059D01*
X102743000Y-127533061D01*
X118345000Y-127533061D01*
X118345000Y-127736939D01*
X118384774Y-127936898D01*
X118462795Y-128125256D01*
X118576063Y-128294774D01*
X118720226Y-128438937D01*
X118889744Y-128552205D01*
X119078102Y-128630226D01*
X119278061Y-128670000D01*
X119481939Y-128670000D01*
X119681898Y-128630226D01*
X119870256Y-128552205D01*
X120039774Y-128438937D01*
X120183937Y-128294774D01*
X120297205Y-128125256D01*
X120375226Y-127936898D01*
X120415000Y-127736939D01*
X120415000Y-127533061D01*
X120375226Y-127333102D01*
X120297205Y-127144744D01*
X120183937Y-126975226D01*
X120039774Y-126831063D01*
X119870256Y-126717795D01*
X119681898Y-126639774D01*
X119481939Y-126600000D01*
X119278061Y-126600000D01*
X119078102Y-126639774D01*
X118889744Y-126717795D01*
X118720226Y-126831063D01*
X118576063Y-126975226D01*
X118462795Y-127144744D01*
X118384774Y-127333102D01*
X118345000Y-127533061D01*
X102743000Y-127533061D01*
X102743000Y-124993061D01*
X118345000Y-124993061D01*
X118345000Y-125196939D01*
X118384774Y-125396898D01*
X118462795Y-125585256D01*
X118576063Y-125754774D01*
X118720226Y-125898937D01*
X118889744Y-126012205D01*
X119078102Y-126090226D01*
X119278061Y-126130000D01*
X119481939Y-126130000D01*
X119681898Y-126090226D01*
X119870256Y-126012205D01*
X120039774Y-125898937D01*
X120183937Y-125754774D01*
X120268603Y-125628061D01*
X120795000Y-125628061D01*
X120795000Y-125831939D01*
X120834774Y-126031898D01*
X120912795Y-126220256D01*
X121026063Y-126389774D01*
X121170226Y-126533937D01*
X121339744Y-126647205D01*
X121528102Y-126725226D01*
X121728061Y-126765000D01*
X121931939Y-126765000D01*
X122131898Y-126725226D01*
X122320256Y-126647205D01*
X122489774Y-126533937D01*
X122633937Y-126389774D01*
X122747205Y-126220256D01*
X122825226Y-126031898D01*
X122865000Y-125831939D01*
X122865000Y-125628061D01*
X131045000Y-125628061D01*
X131045000Y-125831939D01*
X131084774Y-126031898D01*
X131162795Y-126220256D01*
X131276063Y-126389774D01*
X131420226Y-126533937D01*
X131589744Y-126647205D01*
X131778102Y-126725226D01*
X131978061Y-126765000D01*
X132181939Y-126765000D01*
X132381898Y-126725226D01*
X132570256Y-126647205D01*
X132739774Y-126533937D01*
X132883937Y-126389774D01*
X132997205Y-126220256D01*
X133075226Y-126031898D01*
X133115000Y-125831939D01*
X133115000Y-125628061D01*
X133075226Y-125428102D01*
X132997205Y-125239744D01*
X132883937Y-125070226D01*
X132739774Y-124926063D01*
X132570256Y-124812795D01*
X132381898Y-124734774D01*
X132181939Y-124695000D01*
X131978061Y-124695000D01*
X131778102Y-124734774D01*
X131589744Y-124812795D01*
X131420226Y-124926063D01*
X131276063Y-125070226D01*
X131162795Y-125239744D01*
X131084774Y-125428102D01*
X131045000Y-125628061D01*
X122865000Y-125628061D01*
X122825226Y-125428102D01*
X122747205Y-125239744D01*
X122633937Y-125070226D01*
X122489774Y-124926063D01*
X122320256Y-124812795D01*
X122131898Y-124734774D01*
X121931939Y-124695000D01*
X121728061Y-124695000D01*
X121528102Y-124734774D01*
X121339744Y-124812795D01*
X121170226Y-124926063D01*
X121026063Y-125070226D01*
X120912795Y-125239744D01*
X120834774Y-125428102D01*
X120795000Y-125628061D01*
X120268603Y-125628061D01*
X120297205Y-125585256D01*
X120375226Y-125396898D01*
X120415000Y-125196939D01*
X120415000Y-124993061D01*
X120375226Y-124793102D01*
X120297205Y-124604744D01*
X120183937Y-124435226D01*
X120106772Y-124358061D01*
X136633000Y-124358061D01*
X136633000Y-124561939D01*
X136672774Y-124761898D01*
X136750795Y-124950256D01*
X136864063Y-125119774D01*
X137008226Y-125263937D01*
X137177744Y-125377205D01*
X137366102Y-125455226D01*
X137566061Y-125495000D01*
X137769939Y-125495000D01*
X137969898Y-125455226D01*
X138158256Y-125377205D01*
X138327774Y-125263937D01*
X138471937Y-125119774D01*
X138585205Y-124950256D01*
X138663226Y-124761898D01*
X138703000Y-124561939D01*
X138703000Y-124358061D01*
X138663226Y-124158102D01*
X138585205Y-123969744D01*
X138471937Y-123800226D01*
X138394772Y-123723061D01*
X139665003Y-123723061D01*
X139665003Y-123926939D01*
X139704777Y-124126898D01*
X139782798Y-124315256D01*
X139896066Y-124484774D01*
X140040229Y-124628937D01*
X140209747Y-124742205D01*
X140398105Y-124820226D01*
X140598064Y-124860000D01*
X140801942Y-124860000D01*
X141001901Y-124820226D01*
X141190259Y-124742205D01*
X141359777Y-124628937D01*
X141503940Y-124484774D01*
X141617208Y-124315256D01*
X141695229Y-124126898D01*
X141735003Y-123926939D01*
X141735003Y-123723061D01*
X141695229Y-123523102D01*
X141617208Y-123334744D01*
X141503940Y-123165226D01*
X141359777Y-123021063D01*
X141190259Y-122907795D01*
X141001901Y-122829774D01*
X140801942Y-122790000D01*
X140598064Y-122790000D01*
X140398105Y-122829774D01*
X140209747Y-122907795D01*
X140040229Y-123021063D01*
X139896066Y-123165226D01*
X139782798Y-123334744D01*
X139704777Y-123523102D01*
X139665003Y-123723061D01*
X138394772Y-123723061D01*
X138327774Y-123656063D01*
X138158256Y-123542795D01*
X137969898Y-123464774D01*
X137769939Y-123425000D01*
X137566061Y-123425000D01*
X137366102Y-123464774D01*
X137177744Y-123542795D01*
X137008226Y-123656063D01*
X136864063Y-123800226D01*
X136750795Y-123969744D01*
X136672774Y-124158102D01*
X136633000Y-124358061D01*
X120106772Y-124358061D01*
X120039774Y-124291063D01*
X119870256Y-124177795D01*
X119681898Y-124099774D01*
X119481939Y-124060000D01*
X119278061Y-124060000D01*
X119078102Y-124099774D01*
X118889744Y-124177795D01*
X118720226Y-124291063D01*
X118576063Y-124435226D01*
X118462795Y-124604744D01*
X118384774Y-124793102D01*
X118345000Y-124993061D01*
X102743000Y-124993061D01*
X102743000Y-121045015D01*
X102768061Y-121050000D01*
X102971939Y-121050000D01*
X103171898Y-121010226D01*
X103360256Y-120932205D01*
X103529774Y-120818937D01*
X103673937Y-120674774D01*
X103787205Y-120505256D01*
X103865226Y-120316898D01*
X103905000Y-120116939D01*
X103905000Y-119913061D01*
X103865226Y-119713102D01*
X103787205Y-119524744D01*
X103673937Y-119355226D01*
X103596772Y-119278061D01*
X115439997Y-119278061D01*
X115439997Y-119481939D01*
X115479771Y-119681898D01*
X115557792Y-119870256D01*
X115671060Y-120039774D01*
X115815223Y-120183937D01*
X115984741Y-120297205D01*
X116173099Y-120375226D01*
X116373058Y-120415000D01*
X116576936Y-120415000D01*
X116776895Y-120375226D01*
X116965253Y-120297205D01*
X117134771Y-120183937D01*
X117278934Y-120039774D01*
X117363600Y-119913061D01*
X143110000Y-119913061D01*
X143110000Y-120116939D01*
X143149774Y-120316898D01*
X143227795Y-120505256D01*
X143341063Y-120674774D01*
X143485226Y-120818937D01*
X143654744Y-120932205D01*
X143843102Y-121010226D01*
X144043061Y-121050000D01*
X144246939Y-121050000D01*
X144446898Y-121010226D01*
X144635256Y-120932205D01*
X144804774Y-120818937D01*
X144948937Y-120674774D01*
X145062205Y-120505256D01*
X145140226Y-120316898D01*
X145180000Y-120116939D01*
X145180000Y-119913061D01*
X145140226Y-119713102D01*
X145062205Y-119524744D01*
X144948937Y-119355226D01*
X144804774Y-119211063D01*
X144635256Y-119097795D01*
X144446898Y-119019774D01*
X144246939Y-118980000D01*
X144043061Y-118980000D01*
X143843102Y-119019774D01*
X143654744Y-119097795D01*
X143485226Y-119211063D01*
X143341063Y-119355226D01*
X143227795Y-119524744D01*
X143149774Y-119713102D01*
X143110000Y-119913061D01*
X117363600Y-119913061D01*
X117392202Y-119870256D01*
X117470223Y-119681898D01*
X117509997Y-119481939D01*
X117509997Y-119278061D01*
X117470223Y-119078102D01*
X117392202Y-118889744D01*
X117278934Y-118720226D01*
X117201769Y-118643061D01*
X117710000Y-118643061D01*
X117710000Y-118846939D01*
X117749774Y-119046898D01*
X117827795Y-119235256D01*
X117941063Y-119404774D01*
X118085226Y-119548937D01*
X118254744Y-119662205D01*
X118443102Y-119740226D01*
X118643061Y-119780000D01*
X118846939Y-119780000D01*
X119046898Y-119740226D01*
X119235256Y-119662205D01*
X119404774Y-119548937D01*
X119548937Y-119404774D01*
X119662205Y-119235256D01*
X119740226Y-119046898D01*
X119780000Y-118846939D01*
X119780000Y-118643061D01*
X119740226Y-118443102D01*
X119662205Y-118254744D01*
X119548937Y-118085226D01*
X119404774Y-117941063D01*
X119235256Y-117827795D01*
X119046898Y-117749774D01*
X118846939Y-117710000D01*
X118643061Y-117710000D01*
X118443102Y-117749774D01*
X118254744Y-117827795D01*
X118085226Y-117941063D01*
X117941063Y-118085226D01*
X117827795Y-118254744D01*
X117749774Y-118443102D01*
X117710000Y-118643061D01*
X117201769Y-118643061D01*
X117134771Y-118576063D01*
X116965253Y-118462795D01*
X116776895Y-118384774D01*
X116576936Y-118345000D01*
X116373058Y-118345000D01*
X116173099Y-118384774D01*
X115984741Y-118462795D01*
X115815223Y-118576063D01*
X115671060Y-118720226D01*
X115557792Y-118889744D01*
X115479771Y-119078102D01*
X115439997Y-119278061D01*
X103596772Y-119278061D01*
X103529774Y-119211063D01*
X103360256Y-119097795D01*
X103171898Y-119019774D01*
X102971939Y-118980000D01*
X102768061Y-118980000D01*
X102743000Y-118984985D01*
X102743000Y-116230061D01*
X119361000Y-116230061D01*
X119361000Y-116433939D01*
X119400774Y-116633898D01*
X119478795Y-116822256D01*
X119592063Y-116991774D01*
X119736226Y-117135937D01*
X119905744Y-117249205D01*
X120094102Y-117327226D01*
X120294061Y-117367000D01*
X120497939Y-117367000D01*
X120697898Y-117327226D01*
X120886256Y-117249205D01*
X121055774Y-117135937D01*
X121199937Y-116991774D01*
X121313205Y-116822256D01*
X121391226Y-116633898D01*
X121431000Y-116433939D01*
X121431000Y-116230061D01*
X121391226Y-116030102D01*
X121313205Y-115841744D01*
X121199937Y-115672226D01*
X121055774Y-115528063D01*
X120886256Y-115414795D01*
X120697898Y-115336774D01*
X120497939Y-115297000D01*
X120294061Y-115297000D01*
X120094102Y-115336774D01*
X119905744Y-115414795D01*
X119736226Y-115528063D01*
X119592063Y-115672226D01*
X119478795Y-115841744D01*
X119400774Y-116030102D01*
X119361000Y-116230061D01*
X102743000Y-116230061D01*
X102743000Y-114198061D01*
X103105000Y-114198061D01*
X103105000Y-114401939D01*
X103144774Y-114601898D01*
X103222795Y-114790256D01*
X103336063Y-114959774D01*
X103480226Y-115103937D01*
X103649744Y-115217205D01*
X103838102Y-115295226D01*
X104038061Y-115335000D01*
X104241939Y-115335000D01*
X104441898Y-115295226D01*
X104630256Y-115217205D01*
X104799774Y-115103937D01*
X104943937Y-114959774D01*
X105057205Y-114790256D01*
X105135226Y-114601898D01*
X105175000Y-114401939D01*
X105175000Y-114198061D01*
X120340000Y-114198061D01*
X120340000Y-114401939D01*
X120379774Y-114601898D01*
X120457795Y-114790256D01*
X120571063Y-114959774D01*
X120715226Y-115103937D01*
X120884744Y-115217205D01*
X121073102Y-115295226D01*
X121273061Y-115335000D01*
X121476939Y-115335000D01*
X121676898Y-115295226D01*
X121865256Y-115217205D01*
X121869961Y-115214061D01*
X124441000Y-115214061D01*
X124441000Y-115417939D01*
X124480774Y-115617898D01*
X124558795Y-115806256D01*
X124672063Y-115975774D01*
X124816226Y-116119937D01*
X124985744Y-116233205D01*
X125174102Y-116311226D01*
X125374061Y-116351000D01*
X125577939Y-116351000D01*
X125777898Y-116311226D01*
X125966256Y-116233205D01*
X126135774Y-116119937D01*
X126279937Y-115975774D01*
X126393205Y-115806256D01*
X126471226Y-115617898D01*
X126511000Y-115417939D01*
X126511000Y-115214061D01*
X126471226Y-115014102D01*
X126393205Y-114825744D01*
X126279937Y-114656226D01*
X126135774Y-114512063D01*
X125966256Y-114398795D01*
X125777898Y-114320774D01*
X125577939Y-114281000D01*
X125374061Y-114281000D01*
X125174102Y-114320774D01*
X124985744Y-114398795D01*
X124816226Y-114512063D01*
X124672063Y-114656226D01*
X124558795Y-114825744D01*
X124480774Y-115014102D01*
X124441000Y-115214061D01*
X121869961Y-115214061D01*
X122034774Y-115103937D01*
X122178937Y-114959774D01*
X122292205Y-114790256D01*
X122370226Y-114601898D01*
X122410000Y-114401939D01*
X122410000Y-114198061D01*
X122380668Y-114050600D01*
X122453061Y-114065000D01*
X122656939Y-114065000D01*
X122856898Y-114025226D01*
X123045256Y-113947205D01*
X123214774Y-113833937D01*
X123358937Y-113689774D01*
X123443603Y-113563061D01*
X127870000Y-113563061D01*
X127870000Y-113766939D01*
X127909774Y-113966898D01*
X127987795Y-114155256D01*
X128101063Y-114324774D01*
X128245226Y-114468937D01*
X128414744Y-114582205D01*
X128544229Y-114635840D01*
X128505000Y-114833061D01*
X128505000Y-115036939D01*
X128544774Y-115236898D01*
X128622795Y-115425256D01*
X128736063Y-115594774D01*
X128880226Y-115738937D01*
X129049744Y-115852205D01*
X129238102Y-115930226D01*
X129249596Y-115932512D01*
X129251882Y-115944006D01*
X129329903Y-116132364D01*
X129443171Y-116301882D01*
X129587334Y-116446045D01*
X129756852Y-116559313D01*
X129945210Y-116637334D01*
X130145169Y-116677108D01*
X130349047Y-116677108D01*
X130549006Y-116637334D01*
X130737364Y-116559313D01*
X130906882Y-116446045D01*
X131051045Y-116301882D01*
X131164313Y-116132364D01*
X131242334Y-115944006D01*
X131282108Y-115744047D01*
X131282108Y-115540169D01*
X131242334Y-115340210D01*
X131164313Y-115151852D01*
X131051045Y-114982334D01*
X130906882Y-114838171D01*
X130737364Y-114724903D01*
X130549006Y-114646882D01*
X130537512Y-114644596D01*
X130535226Y-114633102D01*
X130457205Y-114444744D01*
X130343937Y-114275226D01*
X130199774Y-114131063D01*
X130030256Y-114017795D01*
X129900771Y-113964160D01*
X129940000Y-113766939D01*
X129940000Y-113563061D01*
X129900226Y-113363102D01*
X129822205Y-113174744D01*
X129708937Y-113005226D01*
X129631772Y-112928061D01*
X130410000Y-112928061D01*
X130410000Y-113131939D01*
X130449774Y-113331898D01*
X130527795Y-113520256D01*
X130641063Y-113689774D01*
X130785226Y-113833937D01*
X130954744Y-113947205D01*
X131143102Y-114025226D01*
X131154596Y-114027512D01*
X131156882Y-114039006D01*
X131234903Y-114227364D01*
X131348171Y-114396882D01*
X131492334Y-114541045D01*
X131661852Y-114654313D01*
X131850210Y-114732334D01*
X132050169Y-114772108D01*
X132254047Y-114772108D01*
X132454006Y-114732334D01*
X132642364Y-114654313D01*
X132811882Y-114541045D01*
X132956045Y-114396882D01*
X133069313Y-114227364D01*
X133147334Y-114039006D01*
X133187108Y-113839047D01*
X133187108Y-113635169D01*
X133147334Y-113435210D01*
X133117476Y-113363126D01*
X146860881Y-113363126D01*
X146987046Y-113538000D01*
X147828000Y-113538000D01*
X147828000Y-112695871D01*
X147653124Y-112570874D01*
X147445471Y-112650790D01*
X147257399Y-112769682D01*
X147096135Y-112922980D01*
X146967877Y-113104794D01*
X146877554Y-113308136D01*
X146860881Y-113363126D01*
X133117476Y-113363126D01*
X133069313Y-113246852D01*
X132956045Y-113077334D01*
X132811882Y-112933171D01*
X132642364Y-112819903D01*
X132454006Y-112741882D01*
X132442512Y-112739596D01*
X132440226Y-112728102D01*
X132362205Y-112539744D01*
X132248937Y-112370226D01*
X132104774Y-112226063D01*
X131935256Y-112112795D01*
X131746898Y-112034774D01*
X131546939Y-111995000D01*
X131343061Y-111995000D01*
X131143102Y-112034774D01*
X130954744Y-112112795D01*
X130785226Y-112226063D01*
X130641063Y-112370226D01*
X130527795Y-112539744D01*
X130449774Y-112728102D01*
X130410000Y-112928061D01*
X129631772Y-112928061D01*
X129564774Y-112861063D01*
X129395256Y-112747795D01*
X129206898Y-112669774D01*
X129006939Y-112630000D01*
X128803061Y-112630000D01*
X128603102Y-112669774D01*
X128414744Y-112747795D01*
X128245226Y-112861063D01*
X128101063Y-113005226D01*
X127987795Y-113174744D01*
X127909774Y-113363102D01*
X127870000Y-113563061D01*
X123443603Y-113563061D01*
X123472205Y-113520256D01*
X123550226Y-113331898D01*
X123590000Y-113131939D01*
X123590000Y-112928061D01*
X123550226Y-112728102D01*
X123472205Y-112539744D01*
X123358937Y-112370226D01*
X123214774Y-112226063D01*
X123045256Y-112112795D01*
X122856898Y-112034774D01*
X122656939Y-111995000D01*
X122453061Y-111995000D01*
X122253102Y-112034774D01*
X122064744Y-112112795D01*
X121895226Y-112226063D01*
X121751063Y-112370226D01*
X121637795Y-112539744D01*
X121559774Y-112728102D01*
X121520000Y-112928061D01*
X121520000Y-113131939D01*
X121549332Y-113279400D01*
X121476939Y-113265000D01*
X121273061Y-113265000D01*
X121073102Y-113304774D01*
X120884744Y-113382795D01*
X120715226Y-113496063D01*
X120571063Y-113640226D01*
X120457795Y-113809744D01*
X120379774Y-113998102D01*
X120340000Y-114198061D01*
X105175000Y-114198061D01*
X105135226Y-113998102D01*
X105057205Y-113809744D01*
X104943937Y-113640226D01*
X104799774Y-113496063D01*
X104630256Y-113382795D01*
X104441898Y-113304774D01*
X104241939Y-113265000D01*
X104038061Y-113265000D01*
X103838102Y-113304774D01*
X103649744Y-113382795D01*
X103480226Y-113496063D01*
X103336063Y-113640226D01*
X103222795Y-113809744D01*
X103144774Y-113998102D01*
X103105000Y-114198061D01*
X102743000Y-114198061D01*
X102743000Y-111658061D01*
X118345000Y-111658061D01*
X118345000Y-111861939D01*
X118384774Y-112061898D01*
X118462795Y-112250256D01*
X118576063Y-112419774D01*
X118720226Y-112563937D01*
X118889744Y-112677205D01*
X119078102Y-112755226D01*
X119278061Y-112795000D01*
X119481939Y-112795000D01*
X119681898Y-112755226D01*
X119870256Y-112677205D01*
X120039774Y-112563937D01*
X120183937Y-112419774D01*
X120297205Y-112250256D01*
X120375226Y-112061898D01*
X120415000Y-111861939D01*
X120415000Y-111658061D01*
X120375226Y-111458102D01*
X120297205Y-111269744D01*
X120183937Y-111100226D01*
X120039774Y-110956063D01*
X119870256Y-110842795D01*
X119681898Y-110764774D01*
X119481939Y-110725000D01*
X119278061Y-110725000D01*
X119078102Y-110764774D01*
X118889744Y-110842795D01*
X118720226Y-110956063D01*
X118576063Y-111100226D01*
X118462795Y-111269744D01*
X118384774Y-111458102D01*
X118345000Y-111658061D01*
X102743000Y-111658061D01*
X102743000Y-110388061D01*
X127870000Y-110388061D01*
X127870000Y-110591939D01*
X127909774Y-110791898D01*
X127987795Y-110980256D01*
X128101063Y-111149774D01*
X128245226Y-111293937D01*
X128414744Y-111407205D01*
X128603102Y-111485226D01*
X128803061Y-111525000D01*
X129006939Y-111525000D01*
X129206898Y-111485226D01*
X129395256Y-111407205D01*
X129564774Y-111293937D01*
X129708937Y-111149774D01*
X129822205Y-110980256D01*
X129900226Y-110791898D01*
X129940000Y-110591939D01*
X129940000Y-110388061D01*
X129900226Y-110188102D01*
X129822205Y-109999744D01*
X129708937Y-109830226D01*
X129564774Y-109686063D01*
X129395256Y-109572795D01*
X129206898Y-109494774D01*
X129006939Y-109455000D01*
X128803061Y-109455000D01*
X128603102Y-109494774D01*
X128414744Y-109572795D01*
X128245226Y-109686063D01*
X128101063Y-109830226D01*
X127987795Y-109999744D01*
X127909774Y-110188102D01*
X127870000Y-110388061D01*
X102743000Y-110388061D01*
X102743000Y-107848061D01*
X103105000Y-107848061D01*
X103105000Y-108051939D01*
X103144774Y-108251898D01*
X103222795Y-108440256D01*
X103336063Y-108609774D01*
X103480226Y-108753937D01*
X103649744Y-108867205D01*
X103838102Y-108945226D01*
X104038061Y-108985000D01*
X104241939Y-108985000D01*
X104441898Y-108945226D01*
X104630256Y-108867205D01*
X104799774Y-108753937D01*
X104943937Y-108609774D01*
X105057205Y-108440256D01*
X105135226Y-108251898D01*
X105175000Y-108051939D01*
X105175000Y-107848061D01*
X105135226Y-107648102D01*
X105057205Y-107459744D01*
X104943937Y-107290226D01*
X104799774Y-107146063D01*
X104630256Y-107032795D01*
X104441898Y-106954774D01*
X104241939Y-106915000D01*
X104038061Y-106915000D01*
X103838102Y-106954774D01*
X103649744Y-107032795D01*
X103480226Y-107146063D01*
X103336063Y-107290226D01*
X103222795Y-107459744D01*
X103144774Y-107648102D01*
X103105000Y-107848061D01*
X102743000Y-107848061D01*
X102743000Y-102133061D01*
X124614401Y-102133061D01*
X124614401Y-102336939D01*
X124654175Y-102536898D01*
X124732196Y-102725256D01*
X124845464Y-102894774D01*
X124989627Y-103038937D01*
X125159145Y-103152205D01*
X125347503Y-103230226D01*
X125547462Y-103270000D01*
X125751340Y-103270000D01*
X125951299Y-103230226D01*
X126139657Y-103152205D01*
X126309175Y-103038937D01*
X126453338Y-102894774D01*
X126566606Y-102725256D01*
X126644627Y-102536898D01*
X126684401Y-102336939D01*
X126684401Y-102133061D01*
X126644627Y-101933102D01*
X126566606Y-101744744D01*
X126453338Y-101575226D01*
X126309175Y-101431063D01*
X126139657Y-101317795D01*
X125951299Y-101239774D01*
X125751340Y-101200000D01*
X125547462Y-101200000D01*
X125347503Y-101239774D01*
X125159145Y-101317795D01*
X124989627Y-101431063D01*
X124845464Y-101575226D01*
X124732196Y-101744744D01*
X124654175Y-101933102D01*
X124614401Y-102133061D01*
X102743000Y-102133061D01*
X102743000Y-100863061D01*
X103105000Y-100863061D01*
X103105000Y-101066939D01*
X103144774Y-101266898D01*
X103222795Y-101455256D01*
X103336063Y-101624774D01*
X103480226Y-101768937D01*
X103649744Y-101882205D01*
X103838102Y-101960226D01*
X104038061Y-102000000D01*
X104241939Y-102000000D01*
X104441898Y-101960226D01*
X104630256Y-101882205D01*
X104799774Y-101768937D01*
X104943937Y-101624774D01*
X105057205Y-101455256D01*
X105135226Y-101266898D01*
X105175000Y-101066939D01*
X105175000Y-100863061D01*
X105135226Y-100663102D01*
X105057205Y-100474744D01*
X104943937Y-100305226D01*
X104799774Y-100161063D01*
X104630256Y-100047795D01*
X104441898Y-99969774D01*
X104241939Y-99930000D01*
X104038061Y-99930000D01*
X103838102Y-99969774D01*
X103649744Y-100047795D01*
X103480226Y-100161063D01*
X103336063Y-100305226D01*
X103222795Y-100474744D01*
X103144774Y-100663102D01*
X103105000Y-100863061D01*
X102743000Y-100863061D01*
X102743000Y-93878061D01*
X103105000Y-93878061D01*
X103105000Y-94081939D01*
X103144774Y-94281898D01*
X103222795Y-94470256D01*
X103336063Y-94639774D01*
X103480226Y-94783937D01*
X103649744Y-94897205D01*
X103838102Y-94975226D01*
X104038061Y-95015000D01*
X104241939Y-95015000D01*
X104441898Y-94975226D01*
X104630256Y-94897205D01*
X104799774Y-94783937D01*
X104943937Y-94639774D01*
X105057205Y-94470256D01*
X105135226Y-94281898D01*
X105175000Y-94081939D01*
X105175000Y-93878061D01*
X105135226Y-93678102D01*
X105057205Y-93489744D01*
X104943937Y-93320226D01*
X104799774Y-93176063D01*
X104630256Y-93062795D01*
X104441898Y-92984774D01*
X104241939Y-92945000D01*
X104038061Y-92945000D01*
X103838102Y-92984774D01*
X103649744Y-93062795D01*
X103480226Y-93176063D01*
X103336063Y-93320226D01*
X103222795Y-93489744D01*
X103144774Y-93678102D01*
X103105000Y-93878061D01*
X102743000Y-93878061D01*
X102743000Y-86766061D01*
X122409000Y-86766061D01*
X122409000Y-86969939D01*
X122448774Y-87169898D01*
X122526795Y-87358256D01*
X122640063Y-87527774D01*
X122784226Y-87671937D01*
X122953744Y-87785205D01*
X123142102Y-87863226D01*
X123342061Y-87903000D01*
X123545939Y-87903000D01*
X123745898Y-87863226D01*
X123934256Y-87785205D01*
X124103774Y-87671937D01*
X124247937Y-87527774D01*
X124361205Y-87358256D01*
X124439226Y-87169898D01*
X124479000Y-86969939D01*
X124479000Y-86766061D01*
X124439226Y-86566102D01*
X124361205Y-86377744D01*
X124281236Y-86258061D01*
X132061000Y-86258061D01*
X132061000Y-86461939D01*
X132100774Y-86661898D01*
X132178795Y-86850256D01*
X132292063Y-87019774D01*
X132436226Y-87163937D01*
X132605744Y-87277205D01*
X132794102Y-87355226D01*
X132994061Y-87395000D01*
X133197939Y-87395000D01*
X133397898Y-87355226D01*
X133586256Y-87277205D01*
X133755774Y-87163937D01*
X133899937Y-87019774D01*
X134013205Y-86850256D01*
X134091226Y-86661898D01*
X134131000Y-86461939D01*
X134131000Y-86258061D01*
X134091226Y-86058102D01*
X134013205Y-85869744D01*
X133899937Y-85700226D01*
X133755774Y-85556063D01*
X133586256Y-85442795D01*
X133397898Y-85364774D01*
X133197939Y-85325000D01*
X132994061Y-85325000D01*
X132794102Y-85364774D01*
X132605744Y-85442795D01*
X132436226Y-85556063D01*
X132292063Y-85700226D01*
X132178795Y-85869744D01*
X132100774Y-86058102D01*
X132061000Y-86258061D01*
X124281236Y-86258061D01*
X124247937Y-86208226D01*
X124103774Y-86064063D01*
X123934256Y-85950795D01*
X123745898Y-85872774D01*
X123545939Y-85833000D01*
X123342061Y-85833000D01*
X123142102Y-85872774D01*
X122953744Y-85950795D01*
X122784226Y-86064063D01*
X122640063Y-86208226D01*
X122526795Y-86377744D01*
X122448774Y-86566102D01*
X122409000Y-86766061D01*
X102743000Y-86766061D01*
X102743000Y-83210061D01*
X124441000Y-83210061D01*
X124441000Y-83413939D01*
X124480774Y-83613898D01*
X124558795Y-83802256D01*
X124672063Y-83971774D01*
X124816226Y-84115937D01*
X124985744Y-84229205D01*
X125174102Y-84307226D01*
X125374061Y-84347000D01*
X125577939Y-84347000D01*
X125777898Y-84307226D01*
X125966256Y-84229205D01*
X126135774Y-84115937D01*
X126279937Y-83971774D01*
X126393205Y-83802256D01*
X126471226Y-83613898D01*
X126511000Y-83413939D01*
X126511000Y-83210061D01*
X130029000Y-83210061D01*
X130029000Y-83413939D01*
X130068774Y-83613898D01*
X130146795Y-83802256D01*
X130260063Y-83971774D01*
X130404226Y-84115937D01*
X130573744Y-84229205D01*
X130762102Y-84307226D01*
X130962061Y-84347000D01*
X131165939Y-84347000D01*
X131365898Y-84307226D01*
X131554256Y-84229205D01*
X131723774Y-84115937D01*
X131867937Y-83971774D01*
X131981205Y-83802256D01*
X132059226Y-83613898D01*
X132099000Y-83413939D01*
X132099000Y-83210061D01*
X132059226Y-83010102D01*
X131981205Y-82821744D01*
X131867937Y-82652226D01*
X131723774Y-82508063D01*
X131554256Y-82394795D01*
X131365898Y-82316774D01*
X131165939Y-82277000D01*
X130962061Y-82277000D01*
X130762102Y-82316774D01*
X130573744Y-82394795D01*
X130404226Y-82508063D01*
X130260063Y-82652226D01*
X130146795Y-82821744D01*
X130068774Y-83010102D01*
X130029000Y-83210061D01*
X126511000Y-83210061D01*
X126471226Y-83010102D01*
X126393205Y-82821744D01*
X126279937Y-82652226D01*
X126135774Y-82508063D01*
X125966256Y-82394795D01*
X125777898Y-82316774D01*
X125577939Y-82277000D01*
X125374061Y-82277000D01*
X125174102Y-82316774D01*
X124985744Y-82394795D01*
X124816226Y-82508063D01*
X124672063Y-82652226D01*
X124558795Y-82821744D01*
X124480774Y-83010102D01*
X124441000Y-83210061D01*
X102743000Y-83210061D01*
X102743000Y-78358634D01*
X123522496Y-78298751D01*
X123464774Y-78438102D01*
X123425000Y-78638061D01*
X123425000Y-78841939D01*
X123464774Y-79041898D01*
X123542795Y-79230256D01*
X123656063Y-79399774D01*
X123800226Y-79543937D01*
X123969744Y-79657205D01*
X124158102Y-79735226D01*
X124358061Y-79775000D01*
X124561939Y-79775000D01*
X124761898Y-79735226D01*
X124950256Y-79657205D01*
X125119774Y-79543937D01*
X125263937Y-79399774D01*
X125377205Y-79230256D01*
X125455226Y-79041898D01*
X125495000Y-78841939D01*
X125495000Y-78638061D01*
X125455226Y-78438102D01*
X125395269Y-78293354D01*
X126065531Y-78291422D01*
X126004774Y-78438102D01*
X125965000Y-78638061D01*
X125965000Y-78841939D01*
X126004774Y-79041898D01*
X126082795Y-79230256D01*
X126196063Y-79399774D01*
X126340226Y-79543937D01*
X126509744Y-79657205D01*
X126698102Y-79735226D01*
X126898061Y-79775000D01*
X127101939Y-79775000D01*
X127301898Y-79735226D01*
X127490256Y-79657205D01*
X127659774Y-79543937D01*
X127803937Y-79399774D01*
X127917205Y-79230256D01*
X127995226Y-79041898D01*
X128035000Y-78841939D01*
X128035000Y-78638061D01*
X127995226Y-78438102D01*
X127932240Y-78286043D01*
X128608567Y-78284093D01*
X128544774Y-78438102D01*
X128505000Y-78638061D01*
X128505000Y-78841939D01*
X128544774Y-79041898D01*
X128622795Y-79230256D01*
X128736063Y-79399774D01*
X128880226Y-79543937D01*
X129049744Y-79657205D01*
X129238102Y-79735226D01*
X129438061Y-79775000D01*
X129641939Y-79775000D01*
X129841898Y-79735226D01*
X130030256Y-79657205D01*
X130199774Y-79543937D01*
X130343937Y-79399774D01*
X130457205Y-79230256D01*
X130535226Y-79041898D01*
X130575000Y-78841939D01*
X130575000Y-78638061D01*
X130535226Y-78438102D01*
X130469212Y-78278731D01*
X146558000Y-78232366D01*
X146558000Y-92467247D01*
%TA.AperFunction,Conductor*%
D14*
G36*
X146558000Y-92467247D02*
G01*
X146510102Y-92476774D01*
X146321744Y-92554795D01*
X146152226Y-92668063D01*
X146008063Y-92812226D01*
X145894795Y-92981744D01*
X145816774Y-93170102D01*
X145777000Y-93370061D01*
X145777000Y-93573939D01*
X145816774Y-93773898D01*
X145894795Y-93962256D01*
X146008063Y-94131774D01*
X146152226Y-94275937D01*
X146321744Y-94389205D01*
X146510102Y-94467226D01*
X146558000Y-94476753D01*
X146558000Y-95885000D01*
X146560440Y-95909776D01*
X146567667Y-95933601D01*
X146579403Y-95955557D01*
X146595197Y-95974803D01*
X146614443Y-95990597D01*
X146636399Y-96002333D01*
X146660224Y-96009560D01*
X146682884Y-96011982D01*
X150367200Y-96073387D01*
X150257812Y-113192531D01*
X150230824Y-113127376D01*
X150106612Y-112941480D01*
X149948520Y-112783388D01*
X149762624Y-112659176D01*
X149556067Y-112573617D01*
X149336788Y-112530000D01*
X149113212Y-112530000D01*
X148893933Y-112573617D01*
X148687376Y-112659176D01*
X148585488Y-112727256D01*
X148464529Y-112650790D01*
X148256876Y-112570874D01*
X148082000Y-112695871D01*
X148082000Y-113538000D01*
X148093026Y-113538000D01*
X148090000Y-113553212D01*
X148090000Y-113776788D01*
X148093026Y-113792000D01*
X148082000Y-113792000D01*
X148082000Y-113803026D01*
X148066788Y-113800000D01*
X147843212Y-113800000D01*
X147828000Y-113803026D01*
X147828000Y-113792000D01*
X146987046Y-113792000D01*
X146860881Y-113966874D01*
X146877554Y-114021864D01*
X146967877Y-114225206D01*
X147017353Y-114295342D01*
X146949176Y-114397376D01*
X146863617Y-114603933D01*
X146820000Y-114823212D01*
X146820000Y-115046788D01*
X146863617Y-115266067D01*
X146909888Y-115377774D01*
X146865498Y-115460820D01*
X146829188Y-115580518D01*
X146816928Y-115705000D01*
X146816928Y-116705000D01*
X146829188Y-116829482D01*
X146865498Y-116949180D01*
X146924463Y-117059494D01*
X147003815Y-117156185D01*
X147100506Y-117235537D01*
X147210820Y-117294502D01*
X147330518Y-117330812D01*
X147455000Y-117343072D01*
X148455000Y-117343072D01*
X148579482Y-117330812D01*
X148699180Y-117294502D01*
X148782226Y-117250112D01*
X148893933Y-117296383D01*
X149113212Y-117340000D01*
X149336788Y-117340000D01*
X149556067Y-117296383D01*
X149762624Y-117210824D01*
X149948520Y-117086612D01*
X150106612Y-116928520D01*
X150230824Y-116742624D01*
X150235195Y-116732072D01*
X150217395Y-119517860D01*
X150212795Y-119524744D01*
X150134774Y-119713102D01*
X150095000Y-119913061D01*
X150095000Y-120116939D01*
X150134774Y-120316898D01*
X150211111Y-120501192D01*
X150114810Y-135572332D01*
X102743000Y-135509169D01*
X102743000Y-133502061D01*
X127489000Y-133502061D01*
X127489000Y-133705939D01*
X127528774Y-133905898D01*
X127606795Y-134094256D01*
X127720063Y-134263774D01*
X127864226Y-134407937D01*
X128033744Y-134521205D01*
X128222102Y-134599226D01*
X128422061Y-134639000D01*
X128625939Y-134639000D01*
X128825898Y-134599226D01*
X129014256Y-134521205D01*
X129183774Y-134407937D01*
X129327937Y-134263774D01*
X129441205Y-134094256D01*
X129519226Y-133905898D01*
X129559000Y-133705939D01*
X129559000Y-133502061D01*
X129519226Y-133302102D01*
X129441205Y-133113744D01*
X129327937Y-132944226D01*
X129183774Y-132800063D01*
X129014256Y-132686795D01*
X128825898Y-132608774D01*
X128625939Y-132569000D01*
X128422061Y-132569000D01*
X128222102Y-132608774D01*
X128033744Y-132686795D01*
X127864226Y-132800063D01*
X127720063Y-132944226D01*
X127606795Y-133113744D01*
X127528774Y-133302102D01*
X127489000Y-133502061D01*
X102743000Y-133502061D01*
X102743000Y-130962061D01*
X115805000Y-130962061D01*
X115805000Y-131165939D01*
X115844774Y-131365898D01*
X115922795Y-131554256D01*
X116036063Y-131723774D01*
X116180226Y-131867937D01*
X116349744Y-131981205D01*
X116538102Y-132059226D01*
X116738061Y-132099000D01*
X116941939Y-132099000D01*
X116953984Y-132096604D01*
X117047410Y-132236427D01*
X117191573Y-132380590D01*
X117361091Y-132493858D01*
X117549449Y-132571879D01*
X117749408Y-132611653D01*
X117953286Y-132611653D01*
X118153245Y-132571879D01*
X118341603Y-132493858D01*
X118511121Y-132380590D01*
X118655284Y-132236427D01*
X118768552Y-132066909D01*
X118846573Y-131878551D01*
X118886347Y-131678592D01*
X118886347Y-131474714D01*
X118846573Y-131274755D01*
X118768552Y-131086397D01*
X118655284Y-130916879D01*
X118511121Y-130772716D01*
X118341603Y-130659448D01*
X118153245Y-130581427D01*
X117953286Y-130541653D01*
X117749408Y-130541653D01*
X117737363Y-130544049D01*
X117643937Y-130404226D01*
X117499774Y-130260063D01*
X117330256Y-130146795D01*
X117141898Y-130068774D01*
X116941939Y-130029000D01*
X116738061Y-130029000D01*
X116538102Y-130068774D01*
X116349744Y-130146795D01*
X116180226Y-130260063D01*
X116036063Y-130404226D01*
X115922795Y-130573744D01*
X115844774Y-130762102D01*
X115805000Y-130962061D01*
X102743000Y-130962061D01*
X102743000Y-129381059D01*
X129013000Y-129381059D01*
X129013000Y-129584937D01*
X129052774Y-129784896D01*
X129130795Y-129973254D01*
X129244063Y-130142772D01*
X129388226Y-130286935D01*
X129557744Y-130400203D01*
X129746102Y-130478224D01*
X129946061Y-130517998D01*
X130149939Y-130517998D01*
X130349898Y-130478224D01*
X130538256Y-130400203D01*
X130707774Y-130286935D01*
X130851937Y-130142772D01*
X130965205Y-129973254D01*
X131043226Y-129784896D01*
X131083000Y-129584937D01*
X131083000Y-129381059D01*
X131043226Y-129181100D01*
X130965205Y-128992742D01*
X130851937Y-128823224D01*
X130707774Y-128679061D01*
X130538256Y-128565793D01*
X130349898Y-128487772D01*
X130149939Y-128447998D01*
X129946061Y-128447998D01*
X129746102Y-128487772D01*
X129557744Y-128565793D01*
X129388226Y-128679061D01*
X129244063Y-128823224D01*
X129130795Y-128992742D01*
X129052774Y-129181100D01*
X129013000Y-129381059D01*
X102743000Y-129381059D01*
X102743000Y-127533061D01*
X118345000Y-127533061D01*
X118345000Y-127736939D01*
X118384774Y-127936898D01*
X118462795Y-128125256D01*
X118576063Y-128294774D01*
X118720226Y-128438937D01*
X118889744Y-128552205D01*
X119078102Y-128630226D01*
X119278061Y-128670000D01*
X119481939Y-128670000D01*
X119681898Y-128630226D01*
X119870256Y-128552205D01*
X120039774Y-128438937D01*
X120183937Y-128294774D01*
X120297205Y-128125256D01*
X120375226Y-127936898D01*
X120415000Y-127736939D01*
X120415000Y-127533061D01*
X120375226Y-127333102D01*
X120297205Y-127144744D01*
X120183937Y-126975226D01*
X120039774Y-126831063D01*
X119870256Y-126717795D01*
X119681898Y-126639774D01*
X119481939Y-126600000D01*
X119278061Y-126600000D01*
X119078102Y-126639774D01*
X118889744Y-126717795D01*
X118720226Y-126831063D01*
X118576063Y-126975226D01*
X118462795Y-127144744D01*
X118384774Y-127333102D01*
X118345000Y-127533061D01*
X102743000Y-127533061D01*
X102743000Y-124993061D01*
X118345000Y-124993061D01*
X118345000Y-125196939D01*
X118384774Y-125396898D01*
X118462795Y-125585256D01*
X118576063Y-125754774D01*
X118720226Y-125898937D01*
X118889744Y-126012205D01*
X119078102Y-126090226D01*
X119278061Y-126130000D01*
X119481939Y-126130000D01*
X119681898Y-126090226D01*
X119870256Y-126012205D01*
X120039774Y-125898937D01*
X120183937Y-125754774D01*
X120268603Y-125628061D01*
X120795000Y-125628061D01*
X120795000Y-125831939D01*
X120834774Y-126031898D01*
X120912795Y-126220256D01*
X121026063Y-126389774D01*
X121170226Y-126533937D01*
X121339744Y-126647205D01*
X121528102Y-126725226D01*
X121728061Y-126765000D01*
X121931939Y-126765000D01*
X122131898Y-126725226D01*
X122320256Y-126647205D01*
X122489774Y-126533937D01*
X122633937Y-126389774D01*
X122747205Y-126220256D01*
X122825226Y-126031898D01*
X122865000Y-125831939D01*
X122865000Y-125628061D01*
X131045000Y-125628061D01*
X131045000Y-125831939D01*
X131084774Y-126031898D01*
X131162795Y-126220256D01*
X131276063Y-126389774D01*
X131420226Y-126533937D01*
X131589744Y-126647205D01*
X131778102Y-126725226D01*
X131978061Y-126765000D01*
X132181939Y-126765000D01*
X132381898Y-126725226D01*
X132570256Y-126647205D01*
X132739774Y-126533937D01*
X132883937Y-126389774D01*
X132997205Y-126220256D01*
X133075226Y-126031898D01*
X133115000Y-125831939D01*
X133115000Y-125628061D01*
X133075226Y-125428102D01*
X132997205Y-125239744D01*
X132883937Y-125070226D01*
X132739774Y-124926063D01*
X132570256Y-124812795D01*
X132381898Y-124734774D01*
X132181939Y-124695000D01*
X131978061Y-124695000D01*
X131778102Y-124734774D01*
X131589744Y-124812795D01*
X131420226Y-124926063D01*
X131276063Y-125070226D01*
X131162795Y-125239744D01*
X131084774Y-125428102D01*
X131045000Y-125628061D01*
X122865000Y-125628061D01*
X122825226Y-125428102D01*
X122747205Y-125239744D01*
X122633937Y-125070226D01*
X122489774Y-124926063D01*
X122320256Y-124812795D01*
X122131898Y-124734774D01*
X121931939Y-124695000D01*
X121728061Y-124695000D01*
X121528102Y-124734774D01*
X121339744Y-124812795D01*
X121170226Y-124926063D01*
X121026063Y-125070226D01*
X120912795Y-125239744D01*
X120834774Y-125428102D01*
X120795000Y-125628061D01*
X120268603Y-125628061D01*
X120297205Y-125585256D01*
X120375226Y-125396898D01*
X120415000Y-125196939D01*
X120415000Y-124993061D01*
X120375226Y-124793102D01*
X120297205Y-124604744D01*
X120183937Y-124435226D01*
X120106772Y-124358061D01*
X136633000Y-124358061D01*
X136633000Y-124561939D01*
X136672774Y-124761898D01*
X136750795Y-124950256D01*
X136864063Y-125119774D01*
X137008226Y-125263937D01*
X137177744Y-125377205D01*
X137366102Y-125455226D01*
X137566061Y-125495000D01*
X137769939Y-125495000D01*
X137969898Y-125455226D01*
X138158256Y-125377205D01*
X138327774Y-125263937D01*
X138471937Y-125119774D01*
X138585205Y-124950256D01*
X138663226Y-124761898D01*
X138703000Y-124561939D01*
X138703000Y-124358061D01*
X138663226Y-124158102D01*
X138585205Y-123969744D01*
X138471937Y-123800226D01*
X138394772Y-123723061D01*
X139665003Y-123723061D01*
X139665003Y-123926939D01*
X139704777Y-124126898D01*
X139782798Y-124315256D01*
X139896066Y-124484774D01*
X140040229Y-124628937D01*
X140209747Y-124742205D01*
X140398105Y-124820226D01*
X140598064Y-124860000D01*
X140801942Y-124860000D01*
X141001901Y-124820226D01*
X141190259Y-124742205D01*
X141359777Y-124628937D01*
X141503940Y-124484774D01*
X141617208Y-124315256D01*
X141695229Y-124126898D01*
X141735003Y-123926939D01*
X141735003Y-123723061D01*
X141695229Y-123523102D01*
X141617208Y-123334744D01*
X141503940Y-123165226D01*
X141359777Y-123021063D01*
X141190259Y-122907795D01*
X141001901Y-122829774D01*
X140801942Y-122790000D01*
X140598064Y-122790000D01*
X140398105Y-122829774D01*
X140209747Y-122907795D01*
X140040229Y-123021063D01*
X139896066Y-123165226D01*
X139782798Y-123334744D01*
X139704777Y-123523102D01*
X139665003Y-123723061D01*
X138394772Y-123723061D01*
X138327774Y-123656063D01*
X138158256Y-123542795D01*
X137969898Y-123464774D01*
X137769939Y-123425000D01*
X137566061Y-123425000D01*
X137366102Y-123464774D01*
X137177744Y-123542795D01*
X137008226Y-123656063D01*
X136864063Y-123800226D01*
X136750795Y-123969744D01*
X136672774Y-124158102D01*
X136633000Y-124358061D01*
X120106772Y-124358061D01*
X120039774Y-124291063D01*
X119870256Y-124177795D01*
X119681898Y-124099774D01*
X119481939Y-124060000D01*
X119278061Y-124060000D01*
X119078102Y-124099774D01*
X118889744Y-124177795D01*
X118720226Y-124291063D01*
X118576063Y-124435226D01*
X118462795Y-124604744D01*
X118384774Y-124793102D01*
X118345000Y-124993061D01*
X102743000Y-124993061D01*
X102743000Y-121045015D01*
X102768061Y-121050000D01*
X102971939Y-121050000D01*
X103171898Y-121010226D01*
X103360256Y-120932205D01*
X103529774Y-120818937D01*
X103673937Y-120674774D01*
X103787205Y-120505256D01*
X103865226Y-120316898D01*
X103905000Y-120116939D01*
X103905000Y-119913061D01*
X103865226Y-119713102D01*
X103787205Y-119524744D01*
X103673937Y-119355226D01*
X103596772Y-119278061D01*
X115439997Y-119278061D01*
X115439997Y-119481939D01*
X115479771Y-119681898D01*
X115557792Y-119870256D01*
X115671060Y-120039774D01*
X115815223Y-120183937D01*
X115984741Y-120297205D01*
X116173099Y-120375226D01*
X116373058Y-120415000D01*
X116576936Y-120415000D01*
X116776895Y-120375226D01*
X116965253Y-120297205D01*
X117134771Y-120183937D01*
X117278934Y-120039774D01*
X117363600Y-119913061D01*
X143110000Y-119913061D01*
X143110000Y-120116939D01*
X143149774Y-120316898D01*
X143227795Y-120505256D01*
X143341063Y-120674774D01*
X143485226Y-120818937D01*
X143654744Y-120932205D01*
X143843102Y-121010226D01*
X144043061Y-121050000D01*
X144246939Y-121050000D01*
X144446898Y-121010226D01*
X144635256Y-120932205D01*
X144804774Y-120818937D01*
X144948937Y-120674774D01*
X145062205Y-120505256D01*
X145140226Y-120316898D01*
X145180000Y-120116939D01*
X145180000Y-119913061D01*
X145140226Y-119713102D01*
X145062205Y-119524744D01*
X144948937Y-119355226D01*
X144804774Y-119211063D01*
X144635256Y-119097795D01*
X144446898Y-119019774D01*
X144246939Y-118980000D01*
X144043061Y-118980000D01*
X143843102Y-119019774D01*
X143654744Y-119097795D01*
X143485226Y-119211063D01*
X143341063Y-119355226D01*
X143227795Y-119524744D01*
X143149774Y-119713102D01*
X143110000Y-119913061D01*
X117363600Y-119913061D01*
X117392202Y-119870256D01*
X117470223Y-119681898D01*
X117509997Y-119481939D01*
X117509997Y-119278061D01*
X117470223Y-119078102D01*
X117392202Y-118889744D01*
X117278934Y-118720226D01*
X117201769Y-118643061D01*
X117710000Y-118643061D01*
X117710000Y-118846939D01*
X117749774Y-119046898D01*
X117827795Y-119235256D01*
X117941063Y-119404774D01*
X118085226Y-119548937D01*
X118254744Y-119662205D01*
X118443102Y-119740226D01*
X118643061Y-119780000D01*
X118846939Y-119780000D01*
X119046898Y-119740226D01*
X119235256Y-119662205D01*
X119404774Y-119548937D01*
X119548937Y-119404774D01*
X119662205Y-119235256D01*
X119740226Y-119046898D01*
X119780000Y-118846939D01*
X119780000Y-118643061D01*
X119740226Y-118443102D01*
X119662205Y-118254744D01*
X119548937Y-118085226D01*
X119404774Y-117941063D01*
X119235256Y-117827795D01*
X119046898Y-117749774D01*
X118846939Y-117710000D01*
X118643061Y-117710000D01*
X118443102Y-117749774D01*
X118254744Y-117827795D01*
X118085226Y-117941063D01*
X117941063Y-118085226D01*
X117827795Y-118254744D01*
X117749774Y-118443102D01*
X117710000Y-118643061D01*
X117201769Y-118643061D01*
X117134771Y-118576063D01*
X116965253Y-118462795D01*
X116776895Y-118384774D01*
X116576936Y-118345000D01*
X116373058Y-118345000D01*
X116173099Y-118384774D01*
X115984741Y-118462795D01*
X115815223Y-118576063D01*
X115671060Y-118720226D01*
X115557792Y-118889744D01*
X115479771Y-119078102D01*
X115439997Y-119278061D01*
X103596772Y-119278061D01*
X103529774Y-119211063D01*
X103360256Y-119097795D01*
X103171898Y-119019774D01*
X102971939Y-118980000D01*
X102768061Y-118980000D01*
X102743000Y-118984985D01*
X102743000Y-116230061D01*
X119361000Y-116230061D01*
X119361000Y-116433939D01*
X119400774Y-116633898D01*
X119478795Y-116822256D01*
X119592063Y-116991774D01*
X119736226Y-117135937D01*
X119905744Y-117249205D01*
X120094102Y-117327226D01*
X120294061Y-117367000D01*
X120497939Y-117367000D01*
X120697898Y-117327226D01*
X120886256Y-117249205D01*
X121055774Y-117135937D01*
X121199937Y-116991774D01*
X121313205Y-116822256D01*
X121391226Y-116633898D01*
X121431000Y-116433939D01*
X121431000Y-116230061D01*
X121391226Y-116030102D01*
X121313205Y-115841744D01*
X121199937Y-115672226D01*
X121055774Y-115528063D01*
X120886256Y-115414795D01*
X120697898Y-115336774D01*
X120497939Y-115297000D01*
X120294061Y-115297000D01*
X120094102Y-115336774D01*
X119905744Y-115414795D01*
X119736226Y-115528063D01*
X119592063Y-115672226D01*
X119478795Y-115841744D01*
X119400774Y-116030102D01*
X119361000Y-116230061D01*
X102743000Y-116230061D01*
X102743000Y-114198061D01*
X103105000Y-114198061D01*
X103105000Y-114401939D01*
X103144774Y-114601898D01*
X103222795Y-114790256D01*
X103336063Y-114959774D01*
X103480226Y-115103937D01*
X103649744Y-115217205D01*
X103838102Y-115295226D01*
X104038061Y-115335000D01*
X104241939Y-115335000D01*
X104441898Y-115295226D01*
X104630256Y-115217205D01*
X104799774Y-115103937D01*
X104943937Y-114959774D01*
X105057205Y-114790256D01*
X105135226Y-114601898D01*
X105175000Y-114401939D01*
X105175000Y-114198061D01*
X120340000Y-114198061D01*
X120340000Y-114401939D01*
X120379774Y-114601898D01*
X120457795Y-114790256D01*
X120571063Y-114959774D01*
X120715226Y-115103937D01*
X120884744Y-115217205D01*
X121073102Y-115295226D01*
X121273061Y-115335000D01*
X121476939Y-115335000D01*
X121676898Y-115295226D01*
X121865256Y-115217205D01*
X121869961Y-115214061D01*
X124441000Y-115214061D01*
X124441000Y-115417939D01*
X124480774Y-115617898D01*
X124558795Y-115806256D01*
X124672063Y-115975774D01*
X124816226Y-116119937D01*
X124985744Y-116233205D01*
X125174102Y-116311226D01*
X125374061Y-116351000D01*
X125577939Y-116351000D01*
X125777898Y-116311226D01*
X125966256Y-116233205D01*
X126135774Y-116119937D01*
X126279937Y-115975774D01*
X126393205Y-115806256D01*
X126471226Y-115617898D01*
X126511000Y-115417939D01*
X126511000Y-115214061D01*
X126471226Y-115014102D01*
X126393205Y-114825744D01*
X126279937Y-114656226D01*
X126135774Y-114512063D01*
X125966256Y-114398795D01*
X125777898Y-114320774D01*
X125577939Y-114281000D01*
X125374061Y-114281000D01*
X125174102Y-114320774D01*
X124985744Y-114398795D01*
X124816226Y-114512063D01*
X124672063Y-114656226D01*
X124558795Y-114825744D01*
X124480774Y-115014102D01*
X124441000Y-115214061D01*
X121869961Y-115214061D01*
X122034774Y-115103937D01*
X122178937Y-114959774D01*
X122292205Y-114790256D01*
X122370226Y-114601898D01*
X122410000Y-114401939D01*
X122410000Y-114198061D01*
X122380668Y-114050600D01*
X122453061Y-114065000D01*
X122656939Y-114065000D01*
X122856898Y-114025226D01*
X123045256Y-113947205D01*
X123214774Y-113833937D01*
X123358937Y-113689774D01*
X123443603Y-113563061D01*
X127870000Y-113563061D01*
X127870000Y-113766939D01*
X127909774Y-113966898D01*
X127987795Y-114155256D01*
X128101063Y-114324774D01*
X128245226Y-114468937D01*
X128414744Y-114582205D01*
X128544229Y-114635840D01*
X128505000Y-114833061D01*
X128505000Y-115036939D01*
X128544774Y-115236898D01*
X128622795Y-115425256D01*
X128736063Y-115594774D01*
X128880226Y-115738937D01*
X129049744Y-115852205D01*
X129238102Y-115930226D01*
X129249596Y-115932512D01*
X129251882Y-115944006D01*
X129329903Y-116132364D01*
X129443171Y-116301882D01*
X129587334Y-116446045D01*
X129756852Y-116559313D01*
X129945210Y-116637334D01*
X130145169Y-116677108D01*
X130349047Y-116677108D01*
X130549006Y-116637334D01*
X130737364Y-116559313D01*
X130906882Y-116446045D01*
X131051045Y-116301882D01*
X131164313Y-116132364D01*
X131242334Y-115944006D01*
X131282108Y-115744047D01*
X131282108Y-115540169D01*
X131242334Y-115340210D01*
X131164313Y-115151852D01*
X131051045Y-114982334D01*
X130906882Y-114838171D01*
X130737364Y-114724903D01*
X130549006Y-114646882D01*
X130537512Y-114644596D01*
X130535226Y-114633102D01*
X130457205Y-114444744D01*
X130343937Y-114275226D01*
X130199774Y-114131063D01*
X130030256Y-114017795D01*
X129900771Y-113964160D01*
X129940000Y-113766939D01*
X129940000Y-113563061D01*
X129900226Y-113363102D01*
X129822205Y-113174744D01*
X129708937Y-113005226D01*
X129631772Y-112928061D01*
X130410000Y-112928061D01*
X130410000Y-113131939D01*
X130449774Y-113331898D01*
X130527795Y-113520256D01*
X130641063Y-113689774D01*
X130785226Y-113833937D01*
X130954744Y-113947205D01*
X131143102Y-114025226D01*
X131154596Y-114027512D01*
X131156882Y-114039006D01*
X131234903Y-114227364D01*
X131348171Y-114396882D01*
X131492334Y-114541045D01*
X131661852Y-114654313D01*
X131850210Y-114732334D01*
X132050169Y-114772108D01*
X132254047Y-114772108D01*
X132454006Y-114732334D01*
X132642364Y-114654313D01*
X132811882Y-114541045D01*
X132956045Y-114396882D01*
X133069313Y-114227364D01*
X133147334Y-114039006D01*
X133187108Y-113839047D01*
X133187108Y-113635169D01*
X133147334Y-113435210D01*
X133117476Y-113363126D01*
X146860881Y-113363126D01*
X146987046Y-113538000D01*
X147828000Y-113538000D01*
X147828000Y-112695871D01*
X147653124Y-112570874D01*
X147445471Y-112650790D01*
X147257399Y-112769682D01*
X147096135Y-112922980D01*
X146967877Y-113104794D01*
X146877554Y-113308136D01*
X146860881Y-113363126D01*
X133117476Y-113363126D01*
X133069313Y-113246852D01*
X132956045Y-113077334D01*
X132811882Y-112933171D01*
X132642364Y-112819903D01*
X132454006Y-112741882D01*
X132442512Y-112739596D01*
X132440226Y-112728102D01*
X132362205Y-112539744D01*
X132248937Y-112370226D01*
X132104774Y-112226063D01*
X131935256Y-112112795D01*
X131746898Y-112034774D01*
X131546939Y-111995000D01*
X131343061Y-111995000D01*
X131143102Y-112034774D01*
X130954744Y-112112795D01*
X130785226Y-112226063D01*
X130641063Y-112370226D01*
X130527795Y-112539744D01*
X130449774Y-112728102D01*
X130410000Y-112928061D01*
X129631772Y-112928061D01*
X129564774Y-112861063D01*
X129395256Y-112747795D01*
X129206898Y-112669774D01*
X129006939Y-112630000D01*
X128803061Y-112630000D01*
X128603102Y-112669774D01*
X128414744Y-112747795D01*
X128245226Y-112861063D01*
X128101063Y-113005226D01*
X127987795Y-113174744D01*
X127909774Y-113363102D01*
X127870000Y-113563061D01*
X123443603Y-113563061D01*
X123472205Y-113520256D01*
X123550226Y-113331898D01*
X123590000Y-113131939D01*
X123590000Y-112928061D01*
X123550226Y-112728102D01*
X123472205Y-112539744D01*
X123358937Y-112370226D01*
X123214774Y-112226063D01*
X123045256Y-112112795D01*
X122856898Y-112034774D01*
X122656939Y-111995000D01*
X122453061Y-111995000D01*
X122253102Y-112034774D01*
X122064744Y-112112795D01*
X121895226Y-112226063D01*
X121751063Y-112370226D01*
X121637795Y-112539744D01*
X121559774Y-112728102D01*
X121520000Y-112928061D01*
X121520000Y-113131939D01*
X121549332Y-113279400D01*
X121476939Y-113265000D01*
X121273061Y-113265000D01*
X121073102Y-113304774D01*
X120884744Y-113382795D01*
X120715226Y-113496063D01*
X120571063Y-113640226D01*
X120457795Y-113809744D01*
X120379774Y-113998102D01*
X120340000Y-114198061D01*
X105175000Y-114198061D01*
X105135226Y-113998102D01*
X105057205Y-113809744D01*
X104943937Y-113640226D01*
X104799774Y-113496063D01*
X104630256Y-113382795D01*
X104441898Y-113304774D01*
X104241939Y-113265000D01*
X104038061Y-113265000D01*
X103838102Y-113304774D01*
X103649744Y-113382795D01*
X103480226Y-113496063D01*
X103336063Y-113640226D01*
X103222795Y-113809744D01*
X103144774Y-113998102D01*
X103105000Y-114198061D01*
X102743000Y-114198061D01*
X102743000Y-111658061D01*
X118345000Y-111658061D01*
X118345000Y-111861939D01*
X118384774Y-112061898D01*
X118462795Y-112250256D01*
X118576063Y-112419774D01*
X118720226Y-112563937D01*
X118889744Y-112677205D01*
X119078102Y-112755226D01*
X119278061Y-112795000D01*
X119481939Y-112795000D01*
X119681898Y-112755226D01*
X119870256Y-112677205D01*
X120039774Y-112563937D01*
X120183937Y-112419774D01*
X120297205Y-112250256D01*
X120375226Y-112061898D01*
X120415000Y-111861939D01*
X120415000Y-111658061D01*
X120375226Y-111458102D01*
X120297205Y-111269744D01*
X120183937Y-111100226D01*
X120039774Y-110956063D01*
X119870256Y-110842795D01*
X119681898Y-110764774D01*
X119481939Y-110725000D01*
X119278061Y-110725000D01*
X119078102Y-110764774D01*
X118889744Y-110842795D01*
X118720226Y-110956063D01*
X118576063Y-111100226D01*
X118462795Y-111269744D01*
X118384774Y-111458102D01*
X118345000Y-111658061D01*
X102743000Y-111658061D01*
X102743000Y-110388061D01*
X127870000Y-110388061D01*
X127870000Y-110591939D01*
X127909774Y-110791898D01*
X127987795Y-110980256D01*
X128101063Y-111149774D01*
X128245226Y-111293937D01*
X128414744Y-111407205D01*
X128603102Y-111485226D01*
X128803061Y-111525000D01*
X129006939Y-111525000D01*
X129206898Y-111485226D01*
X129395256Y-111407205D01*
X129564774Y-111293937D01*
X129708937Y-111149774D01*
X129822205Y-110980256D01*
X129900226Y-110791898D01*
X129940000Y-110591939D01*
X129940000Y-110388061D01*
X129900226Y-110188102D01*
X129822205Y-109999744D01*
X129708937Y-109830226D01*
X129564774Y-109686063D01*
X129395256Y-109572795D01*
X129206898Y-109494774D01*
X129006939Y-109455000D01*
X128803061Y-109455000D01*
X128603102Y-109494774D01*
X128414744Y-109572795D01*
X128245226Y-109686063D01*
X128101063Y-109830226D01*
X127987795Y-109999744D01*
X127909774Y-110188102D01*
X127870000Y-110388061D01*
X102743000Y-110388061D01*
X102743000Y-107848061D01*
X103105000Y-107848061D01*
X103105000Y-108051939D01*
X103144774Y-108251898D01*
X103222795Y-108440256D01*
X103336063Y-108609774D01*
X103480226Y-108753937D01*
X103649744Y-108867205D01*
X103838102Y-108945226D01*
X104038061Y-108985000D01*
X104241939Y-108985000D01*
X104441898Y-108945226D01*
X104630256Y-108867205D01*
X104799774Y-108753937D01*
X104943937Y-108609774D01*
X105057205Y-108440256D01*
X105135226Y-108251898D01*
X105175000Y-108051939D01*
X105175000Y-107848061D01*
X105135226Y-107648102D01*
X105057205Y-107459744D01*
X104943937Y-107290226D01*
X104799774Y-107146063D01*
X104630256Y-107032795D01*
X104441898Y-106954774D01*
X104241939Y-106915000D01*
X104038061Y-106915000D01*
X103838102Y-106954774D01*
X103649744Y-107032795D01*
X103480226Y-107146063D01*
X103336063Y-107290226D01*
X103222795Y-107459744D01*
X103144774Y-107648102D01*
X103105000Y-107848061D01*
X102743000Y-107848061D01*
X102743000Y-102133061D01*
X124614401Y-102133061D01*
X124614401Y-102336939D01*
X124654175Y-102536898D01*
X124732196Y-102725256D01*
X124845464Y-102894774D01*
X124989627Y-103038937D01*
X125159145Y-103152205D01*
X125347503Y-103230226D01*
X125547462Y-103270000D01*
X125751340Y-103270000D01*
X125951299Y-103230226D01*
X126139657Y-103152205D01*
X126309175Y-103038937D01*
X126453338Y-102894774D01*
X126566606Y-102725256D01*
X126644627Y-102536898D01*
X126684401Y-102336939D01*
X126684401Y-102133061D01*
X126644627Y-101933102D01*
X126566606Y-101744744D01*
X126453338Y-101575226D01*
X126309175Y-101431063D01*
X126139657Y-101317795D01*
X125951299Y-101239774D01*
X125751340Y-101200000D01*
X125547462Y-101200000D01*
X125347503Y-101239774D01*
X125159145Y-101317795D01*
X124989627Y-101431063D01*
X124845464Y-101575226D01*
X124732196Y-101744744D01*
X124654175Y-101933102D01*
X124614401Y-102133061D01*
X102743000Y-102133061D01*
X102743000Y-100863061D01*
X103105000Y-100863061D01*
X103105000Y-101066939D01*
X103144774Y-101266898D01*
X103222795Y-101455256D01*
X103336063Y-101624774D01*
X103480226Y-101768937D01*
X103649744Y-101882205D01*
X103838102Y-101960226D01*
X104038061Y-102000000D01*
X104241939Y-102000000D01*
X104441898Y-101960226D01*
X104630256Y-101882205D01*
X104799774Y-101768937D01*
X104943937Y-101624774D01*
X105057205Y-101455256D01*
X105135226Y-101266898D01*
X105175000Y-101066939D01*
X105175000Y-100863061D01*
X105135226Y-100663102D01*
X105057205Y-100474744D01*
X104943937Y-100305226D01*
X104799774Y-100161063D01*
X104630256Y-100047795D01*
X104441898Y-99969774D01*
X104241939Y-99930000D01*
X104038061Y-99930000D01*
X103838102Y-99969774D01*
X103649744Y-100047795D01*
X103480226Y-100161063D01*
X103336063Y-100305226D01*
X103222795Y-100474744D01*
X103144774Y-100663102D01*
X103105000Y-100863061D01*
X102743000Y-100863061D01*
X102743000Y-93878061D01*
X103105000Y-93878061D01*
X103105000Y-94081939D01*
X103144774Y-94281898D01*
X103222795Y-94470256D01*
X103336063Y-94639774D01*
X103480226Y-94783937D01*
X103649744Y-94897205D01*
X103838102Y-94975226D01*
X104038061Y-95015000D01*
X104241939Y-95015000D01*
X104441898Y-94975226D01*
X104630256Y-94897205D01*
X104799774Y-94783937D01*
X104943937Y-94639774D01*
X105057205Y-94470256D01*
X105135226Y-94281898D01*
X105175000Y-94081939D01*
X105175000Y-93878061D01*
X105135226Y-93678102D01*
X105057205Y-93489744D01*
X104943937Y-93320226D01*
X104799774Y-93176063D01*
X104630256Y-93062795D01*
X104441898Y-92984774D01*
X104241939Y-92945000D01*
X104038061Y-92945000D01*
X103838102Y-92984774D01*
X103649744Y-93062795D01*
X103480226Y-93176063D01*
X103336063Y-93320226D01*
X103222795Y-93489744D01*
X103144774Y-93678102D01*
X103105000Y-93878061D01*
X102743000Y-93878061D01*
X102743000Y-86766061D01*
X122409000Y-86766061D01*
X122409000Y-86969939D01*
X122448774Y-87169898D01*
X122526795Y-87358256D01*
X122640063Y-87527774D01*
X122784226Y-87671937D01*
X122953744Y-87785205D01*
X123142102Y-87863226D01*
X123342061Y-87903000D01*
X123545939Y-87903000D01*
X123745898Y-87863226D01*
X123934256Y-87785205D01*
X124103774Y-87671937D01*
X124247937Y-87527774D01*
X124361205Y-87358256D01*
X124439226Y-87169898D01*
X124479000Y-86969939D01*
X124479000Y-86766061D01*
X124439226Y-86566102D01*
X124361205Y-86377744D01*
X124281236Y-86258061D01*
X132061000Y-86258061D01*
X132061000Y-86461939D01*
X132100774Y-86661898D01*
X132178795Y-86850256D01*
X132292063Y-87019774D01*
X132436226Y-87163937D01*
X132605744Y-87277205D01*
X132794102Y-87355226D01*
X132994061Y-87395000D01*
X133197939Y-87395000D01*
X133397898Y-87355226D01*
X133586256Y-87277205D01*
X133755774Y-87163937D01*
X133899937Y-87019774D01*
X134013205Y-86850256D01*
X134091226Y-86661898D01*
X134131000Y-86461939D01*
X134131000Y-86258061D01*
X134091226Y-86058102D01*
X134013205Y-85869744D01*
X133899937Y-85700226D01*
X133755774Y-85556063D01*
X133586256Y-85442795D01*
X133397898Y-85364774D01*
X133197939Y-85325000D01*
X132994061Y-85325000D01*
X132794102Y-85364774D01*
X132605744Y-85442795D01*
X132436226Y-85556063D01*
X132292063Y-85700226D01*
X132178795Y-85869744D01*
X132100774Y-86058102D01*
X132061000Y-86258061D01*
X124281236Y-86258061D01*
X124247937Y-86208226D01*
X124103774Y-86064063D01*
X123934256Y-85950795D01*
X123745898Y-85872774D01*
X123545939Y-85833000D01*
X123342061Y-85833000D01*
X123142102Y-85872774D01*
X122953744Y-85950795D01*
X122784226Y-86064063D01*
X122640063Y-86208226D01*
X122526795Y-86377744D01*
X122448774Y-86566102D01*
X122409000Y-86766061D01*
X102743000Y-86766061D01*
X102743000Y-83210061D01*
X124441000Y-83210061D01*
X124441000Y-83413939D01*
X124480774Y-83613898D01*
X124558795Y-83802256D01*
X124672063Y-83971774D01*
X124816226Y-84115937D01*
X124985744Y-84229205D01*
X125174102Y-84307226D01*
X125374061Y-84347000D01*
X125577939Y-84347000D01*
X125777898Y-84307226D01*
X125966256Y-84229205D01*
X126135774Y-84115937D01*
X126279937Y-83971774D01*
X126393205Y-83802256D01*
X126471226Y-83613898D01*
X126511000Y-83413939D01*
X126511000Y-83210061D01*
X130029000Y-83210061D01*
X130029000Y-83413939D01*
X130068774Y-83613898D01*
X130146795Y-83802256D01*
X130260063Y-83971774D01*
X130404226Y-84115937D01*
X130573744Y-84229205D01*
X130762102Y-84307226D01*
X130962061Y-84347000D01*
X131165939Y-84347000D01*
X131365898Y-84307226D01*
X131554256Y-84229205D01*
X131723774Y-84115937D01*
X131867937Y-83971774D01*
X131981205Y-83802256D01*
X132059226Y-83613898D01*
X132099000Y-83413939D01*
X132099000Y-83210061D01*
X132059226Y-83010102D01*
X131981205Y-82821744D01*
X131867937Y-82652226D01*
X131723774Y-82508063D01*
X131554256Y-82394795D01*
X131365898Y-82316774D01*
X131165939Y-82277000D01*
X130962061Y-82277000D01*
X130762102Y-82316774D01*
X130573744Y-82394795D01*
X130404226Y-82508063D01*
X130260063Y-82652226D01*
X130146795Y-82821744D01*
X130068774Y-83010102D01*
X130029000Y-83210061D01*
X126511000Y-83210061D01*
X126471226Y-83010102D01*
X126393205Y-82821744D01*
X126279937Y-82652226D01*
X126135774Y-82508063D01*
X125966256Y-82394795D01*
X125777898Y-82316774D01*
X125577939Y-82277000D01*
X125374061Y-82277000D01*
X125174102Y-82316774D01*
X124985744Y-82394795D01*
X124816226Y-82508063D01*
X124672063Y-82652226D01*
X124558795Y-82821744D01*
X124480774Y-83010102D01*
X124441000Y-83210061D01*
X102743000Y-83210061D01*
X102743000Y-78358634D01*
X123522496Y-78298751D01*
X123464774Y-78438102D01*
X123425000Y-78638061D01*
X123425000Y-78841939D01*
X123464774Y-79041898D01*
X123542795Y-79230256D01*
X123656063Y-79399774D01*
X123800226Y-79543937D01*
X123969744Y-79657205D01*
X124158102Y-79735226D01*
X124358061Y-79775000D01*
X124561939Y-79775000D01*
X124761898Y-79735226D01*
X124950256Y-79657205D01*
X125119774Y-79543937D01*
X125263937Y-79399774D01*
X125377205Y-79230256D01*
X125455226Y-79041898D01*
X125495000Y-78841939D01*
X125495000Y-78638061D01*
X125455226Y-78438102D01*
X125395269Y-78293354D01*
X126065531Y-78291422D01*
X126004774Y-78438102D01*
X125965000Y-78638061D01*
X125965000Y-78841939D01*
X126004774Y-79041898D01*
X126082795Y-79230256D01*
X126196063Y-79399774D01*
X126340226Y-79543937D01*
X126509744Y-79657205D01*
X126698102Y-79735226D01*
X126898061Y-79775000D01*
X127101939Y-79775000D01*
X127301898Y-79735226D01*
X127490256Y-79657205D01*
X127659774Y-79543937D01*
X127803937Y-79399774D01*
X127917205Y-79230256D01*
X127995226Y-79041898D01*
X128035000Y-78841939D01*
X128035000Y-78638061D01*
X127995226Y-78438102D01*
X127932240Y-78286043D01*
X128608567Y-78284093D01*
X128544774Y-78438102D01*
X128505000Y-78638061D01*
X128505000Y-78841939D01*
X128544774Y-79041898D01*
X128622795Y-79230256D01*
X128736063Y-79399774D01*
X128880226Y-79543937D01*
X129049744Y-79657205D01*
X129238102Y-79735226D01*
X129438061Y-79775000D01*
X129641939Y-79775000D01*
X129841898Y-79735226D01*
X130030256Y-79657205D01*
X130199774Y-79543937D01*
X130343937Y-79399774D01*
X130457205Y-79230256D01*
X130535226Y-79041898D01*
X130575000Y-78841939D01*
X130575000Y-78638061D01*
X130535226Y-78438102D01*
X130469212Y-78278731D01*
X146558000Y-78232366D01*
X146558000Y-92467247D01*
G37*
%TD.AperFunction*%
%TD*%
M02*
