%TF.GenerationSoftware,KiCad,Pcbnew,(5.1.9)-1*%
%TF.CreationDate,2021-05-10T18:00:28-02:30*%
%TF.ProjectId,flamingo,666c616d-696e-4676-9f2e-6b696361645f,rev?*%
%TF.SameCoordinates,Original*%
%TF.FileFunction,Copper,L2,Inr*%
%TF.FilePolarity,Positive*%
%FSLAX46Y46*%
G04 Gerber Fmt 4.6, Leading zero omitted, Abs format (unit mm)*
G04 Created by KiCad (PCBNEW (5.1.9)-1) date 2021-05-10 18:00:28*
%MOMM*%
%LPD*%
G01*
G04 APERTURE LIST*
%TA.AperFunction,ComponentPad*%
%ADD10O,1.000000X1.000000*%
%TD*%
%TA.AperFunction,ComponentPad*%
%ADD11R,1.000000X1.000000*%
%TD*%
%TA.AperFunction,ViaPad*%
%ADD12C,0.800000*%
%TD*%
%TA.AperFunction,Conductor*%
%ADD13C,0.254000*%
%TD*%
%TA.AperFunction,Conductor*%
%ADD14C,0.100000*%
%TD*%
G04 APERTURE END LIST*
D10*
%TO.N,RST_SW*%
%TO.C,J1*%
X149225000Y-113665000D03*
%TO.N,+3V3*%
X147955000Y-113665000D03*
%TO.N,Net-(J1-Pad4)*%
X149225000Y-114935000D03*
%TO.N,PA14_SWCLK*%
X147955000Y-114935000D03*
%TO.N,GND*%
X149225000Y-116205000D03*
D11*
%TO.N,PA13_SWDAT*%
X147955000Y-116205000D03*
%TD*%
D12*
%TO.N,GND*%
X137668000Y-124460000D03*
X122555000Y-147955000D03*
X120015000Y-147955000D03*
X152400000Y-107950000D03*
X151130000Y-116205000D03*
X122555000Y-113030000D03*
X124460000Y-78740000D03*
X127000000Y-78740000D03*
X129540000Y-78740000D03*
X119380000Y-125095000D03*
X102870000Y-120015000D03*
X149225000Y-90551000D03*
X104140000Y-107950000D03*
X104140000Y-114300000D03*
X104140000Y-93980000D03*
X104140000Y-100965000D03*
X151130000Y-120015000D03*
X132080000Y-125730000D03*
X125730000Y-68580000D03*
X118745000Y-118745000D03*
X132080000Y-144145000D03*
X137160000Y-140970000D03*
X146685000Y-137795000D03*
X118110000Y-137795000D03*
X108585000Y-140970000D03*
X116332000Y-142748000D03*
X148590000Y-147320000D03*
X151130000Y-147320000D03*
X131064000Y-83312000D03*
X125476000Y-83312000D03*
X123444000Y-86868000D03*
X125476000Y-115316000D03*
X103632000Y-144272000D03*
X133096000Y-86360000D03*
X112930000Y-139252500D03*
X114400000Y-139252500D03*
X112930000Y-141042500D03*
X114400000Y-141042500D03*
X141505000Y-139252500D03*
X142975000Y-139252500D03*
X141505000Y-141042500D03*
X142975000Y-141042500D03*
X145288000Y-142748000D03*
X146812000Y-93472000D03*
X152400000Y-96520000D03*
X150876000Y-86868000D03*
%TO.N,RST_SW*%
X119380000Y-127635000D03*
X144145000Y-120015000D03*
%TO.N,VCC*%
X130810000Y-68580000D03*
X152400000Y-142875000D03*
X152400000Y-140970000D03*
X124460000Y-143510000D03*
X124460000Y-141605000D03*
%TO.N,+3V3*%
X134620000Y-120650000D03*
X122555000Y-114935000D03*
X128905000Y-90170000D03*
X129540000Y-80645000D03*
X127000000Y-80645000D03*
X124460000Y-80645000D03*
X146050000Y-113665000D03*
X111125000Y-114300000D03*
X109855000Y-118745000D03*
X114935000Y-113030000D03*
X114935000Y-106045000D03*
X114935000Y-99060000D03*
X135890000Y-124460000D03*
X119380000Y-123444000D03*
X123444000Y-111760000D03*
X134620000Y-113792000D03*
X132588000Y-139192000D03*
X103632000Y-139192000D03*
%TO.N,PB2_CS*%
X128905000Y-113665000D03*
X128905000Y-110490000D03*
%TO.N,PB0_RDY_INT*%
X125649401Y-102235000D03*
X140700003Y-123825000D03*
%TO.N,PA1_TIM2CH2*%
X117851347Y-131576653D03*
X112776000Y-136652000D03*
%TO.N,PA0_TIM2CH1*%
X121830000Y-125730000D03*
X130048000Y-129482998D03*
%TO.N,PB3_USART2_TX*%
X130247108Y-115642108D03*
X132152108Y-113737108D03*
%TO.N,PB4_USART2_RX*%
X129540000Y-114935000D03*
X131445000Y-113030000D03*
%TO.N,PF0_STATUSLED*%
X121375000Y-114300000D03*
X119380000Y-111760000D03*
%TO.N,PA5_nFAULT*%
X128524000Y-133604000D03*
X120396000Y-116332000D03*
%TO.N,PA2_nFAULT*%
X116474997Y-119380000D03*
X116840000Y-131064000D03*
%TD*%
D13*
%TO.N,GND*%
X153543000Y-149098000D02*
X102997000Y-149098000D01*
X102997000Y-141503061D01*
X123425000Y-141503061D01*
X123425000Y-141706939D01*
X123464774Y-141906898D01*
X123542795Y-142095256D01*
X123656063Y-142264774D01*
X123800226Y-142408937D01*
X123969744Y-142522205D01*
X124054953Y-142557500D01*
X123969744Y-142592795D01*
X123800226Y-142706063D01*
X123656063Y-142850226D01*
X123542795Y-143019744D01*
X123464774Y-143208102D01*
X123425000Y-143408061D01*
X123425000Y-143611939D01*
X123464774Y-143811898D01*
X123542795Y-144000256D01*
X123656063Y-144169774D01*
X123800226Y-144313937D01*
X123969744Y-144427205D01*
X124158102Y-144505226D01*
X124358061Y-144545000D01*
X124561939Y-144545000D01*
X124761898Y-144505226D01*
X124950256Y-144427205D01*
X125119774Y-144313937D01*
X125263937Y-144169774D01*
X125377205Y-144000256D01*
X125455226Y-143811898D01*
X125495000Y-143611939D01*
X125495000Y-143408061D01*
X125455226Y-143208102D01*
X125377205Y-143019744D01*
X125263937Y-142850226D01*
X125119774Y-142706063D01*
X124950256Y-142592795D01*
X124865047Y-142557500D01*
X124950256Y-142522205D01*
X125119774Y-142408937D01*
X125263937Y-142264774D01*
X125377205Y-142095256D01*
X125455226Y-141906898D01*
X125495000Y-141706939D01*
X125495000Y-141503061D01*
X125455226Y-141303102D01*
X125377205Y-141114744D01*
X125263937Y-140945226D01*
X125186772Y-140868061D01*
X151365000Y-140868061D01*
X151365000Y-141071939D01*
X151404774Y-141271898D01*
X151482795Y-141460256D01*
X151596063Y-141629774D01*
X151740226Y-141773937D01*
X151909744Y-141887205D01*
X151994953Y-141922500D01*
X151909744Y-141957795D01*
X151740226Y-142071063D01*
X151596063Y-142215226D01*
X151482795Y-142384744D01*
X151404774Y-142573102D01*
X151365000Y-142773061D01*
X151365000Y-142976939D01*
X151404774Y-143176898D01*
X151482795Y-143365256D01*
X151596063Y-143534774D01*
X151740226Y-143678937D01*
X151909744Y-143792205D01*
X152098102Y-143870226D01*
X152298061Y-143910000D01*
X152501939Y-143910000D01*
X152701898Y-143870226D01*
X152890256Y-143792205D01*
X153059774Y-143678937D01*
X153203937Y-143534774D01*
X153317205Y-143365256D01*
X153395226Y-143176898D01*
X153435000Y-142976939D01*
X153435000Y-142773061D01*
X153395226Y-142573102D01*
X153317205Y-142384744D01*
X153203937Y-142215226D01*
X153059774Y-142071063D01*
X152890256Y-141957795D01*
X152805047Y-141922500D01*
X152890256Y-141887205D01*
X153059774Y-141773937D01*
X153203937Y-141629774D01*
X153317205Y-141460256D01*
X153395226Y-141271898D01*
X153435000Y-141071939D01*
X153435000Y-140868061D01*
X153395226Y-140668102D01*
X153317205Y-140479744D01*
X153203937Y-140310226D01*
X153059774Y-140166063D01*
X152890256Y-140052795D01*
X152701898Y-139974774D01*
X152501939Y-139935000D01*
X152298061Y-139935000D01*
X152098102Y-139974774D01*
X151909744Y-140052795D01*
X151740226Y-140166063D01*
X151596063Y-140310226D01*
X151482795Y-140479744D01*
X151404774Y-140668102D01*
X151365000Y-140868061D01*
X125186772Y-140868061D01*
X125119774Y-140801063D01*
X124950256Y-140687795D01*
X124761898Y-140609774D01*
X124561939Y-140570000D01*
X124358061Y-140570000D01*
X124158102Y-140609774D01*
X123969744Y-140687795D01*
X123800226Y-140801063D01*
X123656063Y-140945226D01*
X123542795Y-141114744D01*
X123464774Y-141303102D01*
X123425000Y-141503061D01*
X102997000Y-141503061D01*
X102997000Y-140012490D01*
X103141744Y-140109205D01*
X103330102Y-140187226D01*
X103530061Y-140227000D01*
X103733939Y-140227000D01*
X103933898Y-140187226D01*
X104122256Y-140109205D01*
X104291774Y-139995937D01*
X104435937Y-139851774D01*
X104549205Y-139682256D01*
X104627226Y-139493898D01*
X104667000Y-139293939D01*
X104667000Y-139090061D01*
X131553000Y-139090061D01*
X131553000Y-139293939D01*
X131592774Y-139493898D01*
X131670795Y-139682256D01*
X131784063Y-139851774D01*
X131928226Y-139995937D01*
X132097744Y-140109205D01*
X132286102Y-140187226D01*
X132486061Y-140227000D01*
X132689939Y-140227000D01*
X132889898Y-140187226D01*
X133078256Y-140109205D01*
X133247774Y-139995937D01*
X133391937Y-139851774D01*
X133505205Y-139682256D01*
X133583226Y-139493898D01*
X133623000Y-139293939D01*
X133623000Y-139090061D01*
X133583226Y-138890102D01*
X133505205Y-138701744D01*
X133391937Y-138532226D01*
X133247774Y-138388063D01*
X133078256Y-138274795D01*
X132889898Y-138196774D01*
X132689939Y-138157000D01*
X132486061Y-138157000D01*
X132286102Y-138196774D01*
X132097744Y-138274795D01*
X131928226Y-138388063D01*
X131784063Y-138532226D01*
X131670795Y-138701744D01*
X131592774Y-138890102D01*
X131553000Y-139090061D01*
X104667000Y-139090061D01*
X104627226Y-138890102D01*
X104549205Y-138701744D01*
X104435937Y-138532226D01*
X104291774Y-138388063D01*
X104122256Y-138274795D01*
X103933898Y-138196774D01*
X103733939Y-138157000D01*
X103530061Y-138157000D01*
X103330102Y-138196774D01*
X103141744Y-138274795D01*
X102997000Y-138371510D01*
X102997000Y-136550061D01*
X111741000Y-136550061D01*
X111741000Y-136753939D01*
X111780774Y-136953898D01*
X111858795Y-137142256D01*
X111972063Y-137311774D01*
X112116226Y-137455937D01*
X112285744Y-137569205D01*
X112474102Y-137647226D01*
X112674061Y-137687000D01*
X112877939Y-137687000D01*
X113077898Y-137647226D01*
X113266256Y-137569205D01*
X113435774Y-137455937D01*
X113579937Y-137311774D01*
X113693205Y-137142256D01*
X113771226Y-136953898D01*
X113811000Y-136753939D01*
X113811000Y-136550061D01*
X113771226Y-136350102D01*
X113693205Y-136161744D01*
X113579937Y-135992226D01*
X113435774Y-135848063D01*
X113266256Y-135734795D01*
X113077898Y-135656774D01*
X112877939Y-135617000D01*
X112674061Y-135617000D01*
X112474102Y-135656774D01*
X112285744Y-135734795D01*
X112116226Y-135848063D01*
X111972063Y-135992226D01*
X111858795Y-136161744D01*
X111780774Y-136350102D01*
X111741000Y-136550061D01*
X102997000Y-136550061D01*
X102997000Y-133502061D01*
X127489000Y-133502061D01*
X127489000Y-133705939D01*
X127528774Y-133905898D01*
X127606795Y-134094256D01*
X127720063Y-134263774D01*
X127864226Y-134407937D01*
X128033744Y-134521205D01*
X128222102Y-134599226D01*
X128422061Y-134639000D01*
X128625939Y-134639000D01*
X128825898Y-134599226D01*
X129014256Y-134521205D01*
X129183774Y-134407937D01*
X129327937Y-134263774D01*
X129441205Y-134094256D01*
X129519226Y-133905898D01*
X129559000Y-133705939D01*
X129559000Y-133502061D01*
X129519226Y-133302102D01*
X129441205Y-133113744D01*
X129327937Y-132944226D01*
X129183774Y-132800063D01*
X129014256Y-132686795D01*
X128825898Y-132608774D01*
X128625939Y-132569000D01*
X128422061Y-132569000D01*
X128222102Y-132608774D01*
X128033744Y-132686795D01*
X127864226Y-132800063D01*
X127720063Y-132944226D01*
X127606795Y-133113744D01*
X127528774Y-133302102D01*
X127489000Y-133502061D01*
X102997000Y-133502061D01*
X102997000Y-130962061D01*
X115805000Y-130962061D01*
X115805000Y-131165939D01*
X115844774Y-131365898D01*
X115922795Y-131554256D01*
X116036063Y-131723774D01*
X116180226Y-131867937D01*
X116349744Y-131981205D01*
X116538102Y-132059226D01*
X116738061Y-132099000D01*
X116941939Y-132099000D01*
X116953984Y-132096604D01*
X117047410Y-132236427D01*
X117191573Y-132380590D01*
X117361091Y-132493858D01*
X117549449Y-132571879D01*
X117749408Y-132611653D01*
X117953286Y-132611653D01*
X118153245Y-132571879D01*
X118341603Y-132493858D01*
X118511121Y-132380590D01*
X118655284Y-132236427D01*
X118768552Y-132066909D01*
X118846573Y-131878551D01*
X118886347Y-131678592D01*
X118886347Y-131474714D01*
X118846573Y-131274755D01*
X118768552Y-131086397D01*
X118655284Y-130916879D01*
X118511121Y-130772716D01*
X118341603Y-130659448D01*
X118153245Y-130581427D01*
X117953286Y-130541653D01*
X117749408Y-130541653D01*
X117737363Y-130544049D01*
X117643937Y-130404226D01*
X117499774Y-130260063D01*
X117330256Y-130146795D01*
X117141898Y-130068774D01*
X116941939Y-130029000D01*
X116738061Y-130029000D01*
X116538102Y-130068774D01*
X116349744Y-130146795D01*
X116180226Y-130260063D01*
X116036063Y-130404226D01*
X115922795Y-130573744D01*
X115844774Y-130762102D01*
X115805000Y-130962061D01*
X102997000Y-130962061D01*
X102997000Y-129381059D01*
X129013000Y-129381059D01*
X129013000Y-129584937D01*
X129052774Y-129784896D01*
X129130795Y-129973254D01*
X129244063Y-130142772D01*
X129388226Y-130286935D01*
X129557744Y-130400203D01*
X129746102Y-130478224D01*
X129946061Y-130517998D01*
X130149939Y-130517998D01*
X130349898Y-130478224D01*
X130538256Y-130400203D01*
X130707774Y-130286935D01*
X130851937Y-130142772D01*
X130965205Y-129973254D01*
X131043226Y-129784896D01*
X131083000Y-129584937D01*
X131083000Y-129381059D01*
X131043226Y-129181100D01*
X130965205Y-128992742D01*
X130851937Y-128823224D01*
X130707774Y-128679061D01*
X130538256Y-128565793D01*
X130349898Y-128487772D01*
X130149939Y-128447998D01*
X129946061Y-128447998D01*
X129746102Y-128487772D01*
X129557744Y-128565793D01*
X129388226Y-128679061D01*
X129244063Y-128823224D01*
X129130795Y-128992742D01*
X129052774Y-129181100D01*
X129013000Y-129381059D01*
X102997000Y-129381059D01*
X102997000Y-127533061D01*
X118345000Y-127533061D01*
X118345000Y-127736939D01*
X118384774Y-127936898D01*
X118462795Y-128125256D01*
X118576063Y-128294774D01*
X118720226Y-128438937D01*
X118889744Y-128552205D01*
X119078102Y-128630226D01*
X119278061Y-128670000D01*
X119481939Y-128670000D01*
X119681898Y-128630226D01*
X119870256Y-128552205D01*
X120039774Y-128438937D01*
X120183937Y-128294774D01*
X120297205Y-128125256D01*
X120375226Y-127936898D01*
X120415000Y-127736939D01*
X120415000Y-127533061D01*
X120375226Y-127333102D01*
X120297205Y-127144744D01*
X120183937Y-126975226D01*
X120039774Y-126831063D01*
X119870256Y-126717795D01*
X119681898Y-126639774D01*
X119481939Y-126600000D01*
X119278061Y-126600000D01*
X119078102Y-126639774D01*
X118889744Y-126717795D01*
X118720226Y-126831063D01*
X118576063Y-126975226D01*
X118462795Y-127144744D01*
X118384774Y-127333102D01*
X118345000Y-127533061D01*
X102997000Y-127533061D01*
X102997000Y-125628061D01*
X120795000Y-125628061D01*
X120795000Y-125831939D01*
X120834774Y-126031898D01*
X120912795Y-126220256D01*
X121026063Y-126389774D01*
X121170226Y-126533937D01*
X121339744Y-126647205D01*
X121528102Y-126725226D01*
X121728061Y-126765000D01*
X121931939Y-126765000D01*
X122131898Y-126725226D01*
X122320256Y-126647205D01*
X122489774Y-126533937D01*
X122633937Y-126389774D01*
X122747205Y-126220256D01*
X122825226Y-126031898D01*
X122865000Y-125831939D01*
X122865000Y-125628061D01*
X122825226Y-125428102D01*
X122747205Y-125239744D01*
X122633937Y-125070226D01*
X122489774Y-124926063D01*
X122320256Y-124812795D01*
X122131898Y-124734774D01*
X121931939Y-124695000D01*
X121728061Y-124695000D01*
X121528102Y-124734774D01*
X121339744Y-124812795D01*
X121170226Y-124926063D01*
X121026063Y-125070226D01*
X120912795Y-125239744D01*
X120834774Y-125428102D01*
X120795000Y-125628061D01*
X102997000Y-125628061D01*
X102997000Y-123342061D01*
X118345000Y-123342061D01*
X118345000Y-123545939D01*
X118384774Y-123745898D01*
X118462795Y-123934256D01*
X118576063Y-124103774D01*
X118720226Y-124247937D01*
X118889744Y-124361205D01*
X119078102Y-124439226D01*
X119278061Y-124479000D01*
X119481939Y-124479000D01*
X119681898Y-124439226D01*
X119870256Y-124361205D01*
X119874961Y-124358061D01*
X134855000Y-124358061D01*
X134855000Y-124561939D01*
X134894774Y-124761898D01*
X134972795Y-124950256D01*
X135086063Y-125119774D01*
X135230226Y-125263937D01*
X135399744Y-125377205D01*
X135588102Y-125455226D01*
X135788061Y-125495000D01*
X135991939Y-125495000D01*
X136191898Y-125455226D01*
X136380256Y-125377205D01*
X136549774Y-125263937D01*
X136693937Y-125119774D01*
X136807205Y-124950256D01*
X136885226Y-124761898D01*
X136925000Y-124561939D01*
X136925000Y-124358061D01*
X136885226Y-124158102D01*
X136807205Y-123969744D01*
X136693937Y-123800226D01*
X136616772Y-123723061D01*
X139665003Y-123723061D01*
X139665003Y-123926939D01*
X139704777Y-124126898D01*
X139782798Y-124315256D01*
X139896066Y-124484774D01*
X140040229Y-124628937D01*
X140209747Y-124742205D01*
X140398105Y-124820226D01*
X140598064Y-124860000D01*
X140801942Y-124860000D01*
X141001901Y-124820226D01*
X141190259Y-124742205D01*
X141359777Y-124628937D01*
X141503940Y-124484774D01*
X141617208Y-124315256D01*
X141695229Y-124126898D01*
X141735003Y-123926939D01*
X141735003Y-123723061D01*
X141695229Y-123523102D01*
X141617208Y-123334744D01*
X141503940Y-123165226D01*
X141359777Y-123021063D01*
X141190259Y-122907795D01*
X141001901Y-122829774D01*
X140801942Y-122790000D01*
X140598064Y-122790000D01*
X140398105Y-122829774D01*
X140209747Y-122907795D01*
X140040229Y-123021063D01*
X139896066Y-123165226D01*
X139782798Y-123334744D01*
X139704777Y-123523102D01*
X139665003Y-123723061D01*
X136616772Y-123723061D01*
X136549774Y-123656063D01*
X136380256Y-123542795D01*
X136191898Y-123464774D01*
X135991939Y-123425000D01*
X135788061Y-123425000D01*
X135588102Y-123464774D01*
X135399744Y-123542795D01*
X135230226Y-123656063D01*
X135086063Y-123800226D01*
X134972795Y-123969744D01*
X134894774Y-124158102D01*
X134855000Y-124358061D01*
X119874961Y-124358061D01*
X120039774Y-124247937D01*
X120183937Y-124103774D01*
X120297205Y-123934256D01*
X120375226Y-123745898D01*
X120415000Y-123545939D01*
X120415000Y-123342061D01*
X120375226Y-123142102D01*
X120297205Y-122953744D01*
X120183937Y-122784226D01*
X120039774Y-122640063D01*
X119870256Y-122526795D01*
X119681898Y-122448774D01*
X119481939Y-122409000D01*
X119278061Y-122409000D01*
X119078102Y-122448774D01*
X118889744Y-122526795D01*
X118720226Y-122640063D01*
X118576063Y-122784226D01*
X118462795Y-122953744D01*
X118384774Y-123142102D01*
X118345000Y-123342061D01*
X102997000Y-123342061D01*
X102997000Y-120548061D01*
X133585000Y-120548061D01*
X133585000Y-120751939D01*
X133624774Y-120951898D01*
X133702795Y-121140256D01*
X133816063Y-121309774D01*
X133960226Y-121453937D01*
X134129744Y-121567205D01*
X134318102Y-121645226D01*
X134518061Y-121685000D01*
X134721939Y-121685000D01*
X134921898Y-121645226D01*
X135110256Y-121567205D01*
X135279774Y-121453937D01*
X135423937Y-121309774D01*
X135537205Y-121140256D01*
X135615226Y-120951898D01*
X135655000Y-120751939D01*
X135655000Y-120548061D01*
X135615226Y-120348102D01*
X135537205Y-120159744D01*
X135423937Y-119990226D01*
X135346772Y-119913061D01*
X143110000Y-119913061D01*
X143110000Y-120116939D01*
X143149774Y-120316898D01*
X143227795Y-120505256D01*
X143341063Y-120674774D01*
X143485226Y-120818937D01*
X143654744Y-120932205D01*
X143843102Y-121010226D01*
X144043061Y-121050000D01*
X144246939Y-121050000D01*
X144446898Y-121010226D01*
X144635256Y-120932205D01*
X144804774Y-120818937D01*
X144948937Y-120674774D01*
X145062205Y-120505256D01*
X145140226Y-120316898D01*
X145180000Y-120116939D01*
X145180000Y-119913061D01*
X145140226Y-119713102D01*
X145062205Y-119524744D01*
X144948937Y-119355226D01*
X144804774Y-119211063D01*
X144635256Y-119097795D01*
X144446898Y-119019774D01*
X144246939Y-118980000D01*
X144043061Y-118980000D01*
X143843102Y-119019774D01*
X143654744Y-119097795D01*
X143485226Y-119211063D01*
X143341063Y-119355226D01*
X143227795Y-119524744D01*
X143149774Y-119713102D01*
X143110000Y-119913061D01*
X135346772Y-119913061D01*
X135279774Y-119846063D01*
X135110256Y-119732795D01*
X134921898Y-119654774D01*
X134721939Y-119615000D01*
X134518061Y-119615000D01*
X134318102Y-119654774D01*
X134129744Y-119732795D01*
X133960226Y-119846063D01*
X133816063Y-119990226D01*
X133702795Y-120159744D01*
X133624774Y-120348102D01*
X133585000Y-120548061D01*
X102997000Y-120548061D01*
X102997000Y-118643061D01*
X108820000Y-118643061D01*
X108820000Y-118846939D01*
X108859774Y-119046898D01*
X108937795Y-119235256D01*
X109051063Y-119404774D01*
X109195226Y-119548937D01*
X109364744Y-119662205D01*
X109553102Y-119740226D01*
X109753061Y-119780000D01*
X109956939Y-119780000D01*
X110156898Y-119740226D01*
X110345256Y-119662205D01*
X110514774Y-119548937D01*
X110658937Y-119404774D01*
X110743603Y-119278061D01*
X115439997Y-119278061D01*
X115439997Y-119481939D01*
X115479771Y-119681898D01*
X115557792Y-119870256D01*
X115671060Y-120039774D01*
X115815223Y-120183937D01*
X115984741Y-120297205D01*
X116173099Y-120375226D01*
X116373058Y-120415000D01*
X116576936Y-120415000D01*
X116776895Y-120375226D01*
X116965253Y-120297205D01*
X117134771Y-120183937D01*
X117278934Y-120039774D01*
X117392202Y-119870256D01*
X117470223Y-119681898D01*
X117509997Y-119481939D01*
X117509997Y-119278061D01*
X117470223Y-119078102D01*
X117392202Y-118889744D01*
X117278934Y-118720226D01*
X117134771Y-118576063D01*
X116965253Y-118462795D01*
X116776895Y-118384774D01*
X116576936Y-118345000D01*
X116373058Y-118345000D01*
X116173099Y-118384774D01*
X115984741Y-118462795D01*
X115815223Y-118576063D01*
X115671060Y-118720226D01*
X115557792Y-118889744D01*
X115479771Y-119078102D01*
X115439997Y-119278061D01*
X110743603Y-119278061D01*
X110772205Y-119235256D01*
X110850226Y-119046898D01*
X110890000Y-118846939D01*
X110890000Y-118643061D01*
X110850226Y-118443102D01*
X110772205Y-118254744D01*
X110658937Y-118085226D01*
X110514774Y-117941063D01*
X110345256Y-117827795D01*
X110156898Y-117749774D01*
X109956939Y-117710000D01*
X109753061Y-117710000D01*
X109553102Y-117749774D01*
X109364744Y-117827795D01*
X109195226Y-117941063D01*
X109051063Y-118085226D01*
X108937795Y-118254744D01*
X108859774Y-118443102D01*
X108820000Y-118643061D01*
X102997000Y-118643061D01*
X102997000Y-116230061D01*
X119361000Y-116230061D01*
X119361000Y-116433939D01*
X119400774Y-116633898D01*
X119478795Y-116822256D01*
X119592063Y-116991774D01*
X119736226Y-117135937D01*
X119905744Y-117249205D01*
X120094102Y-117327226D01*
X120294061Y-117367000D01*
X120497939Y-117367000D01*
X120697898Y-117327226D01*
X120886256Y-117249205D01*
X121055774Y-117135937D01*
X121199937Y-116991774D01*
X121313205Y-116822256D01*
X121391226Y-116633898D01*
X121431000Y-116433939D01*
X121431000Y-116230061D01*
X121391226Y-116030102D01*
X121313205Y-115841744D01*
X121199937Y-115672226D01*
X121055774Y-115528063D01*
X120886256Y-115414795D01*
X120697898Y-115336774D01*
X120497939Y-115297000D01*
X120294061Y-115297000D01*
X120094102Y-115336774D01*
X119905744Y-115414795D01*
X119736226Y-115528063D01*
X119592063Y-115672226D01*
X119478795Y-115841744D01*
X119400774Y-116030102D01*
X119361000Y-116230061D01*
X102997000Y-116230061D01*
X102997000Y-114198061D01*
X110090000Y-114198061D01*
X110090000Y-114401939D01*
X110129774Y-114601898D01*
X110207795Y-114790256D01*
X110321063Y-114959774D01*
X110465226Y-115103937D01*
X110634744Y-115217205D01*
X110823102Y-115295226D01*
X111023061Y-115335000D01*
X111226939Y-115335000D01*
X111426898Y-115295226D01*
X111615256Y-115217205D01*
X111784774Y-115103937D01*
X111928937Y-114959774D01*
X112042205Y-114790256D01*
X112120226Y-114601898D01*
X112160000Y-114401939D01*
X112160000Y-114198061D01*
X120340000Y-114198061D01*
X120340000Y-114401939D01*
X120379774Y-114601898D01*
X120457795Y-114790256D01*
X120571063Y-114959774D01*
X120715226Y-115103937D01*
X120884744Y-115217205D01*
X121073102Y-115295226D01*
X121273061Y-115335000D01*
X121476939Y-115335000D01*
X121591011Y-115312310D01*
X121637795Y-115425256D01*
X121751063Y-115594774D01*
X121895226Y-115738937D01*
X122064744Y-115852205D01*
X122253102Y-115930226D01*
X122453061Y-115970000D01*
X122656939Y-115970000D01*
X122856898Y-115930226D01*
X123045256Y-115852205D01*
X123214774Y-115738937D01*
X123358937Y-115594774D01*
X123472205Y-115425256D01*
X123550226Y-115236898D01*
X123590000Y-115036939D01*
X123590000Y-114833061D01*
X123550226Y-114633102D01*
X123472205Y-114444744D01*
X123358937Y-114275226D01*
X123214774Y-114131063D01*
X123045256Y-114017795D01*
X122856898Y-113939774D01*
X122656939Y-113900000D01*
X122453061Y-113900000D01*
X122338989Y-113922690D01*
X122292205Y-113809744D01*
X122178937Y-113640226D01*
X122101772Y-113563061D01*
X127870000Y-113563061D01*
X127870000Y-113766939D01*
X127909774Y-113966898D01*
X127987795Y-114155256D01*
X128101063Y-114324774D01*
X128245226Y-114468937D01*
X128414744Y-114582205D01*
X128544229Y-114635840D01*
X128505000Y-114833061D01*
X128505000Y-115036939D01*
X128544774Y-115236898D01*
X128622795Y-115425256D01*
X128736063Y-115594774D01*
X128880226Y-115738937D01*
X129049744Y-115852205D01*
X129238102Y-115930226D01*
X129249596Y-115932512D01*
X129251882Y-115944006D01*
X129329903Y-116132364D01*
X129443171Y-116301882D01*
X129587334Y-116446045D01*
X129756852Y-116559313D01*
X129945210Y-116637334D01*
X130145169Y-116677108D01*
X130349047Y-116677108D01*
X130549006Y-116637334D01*
X130737364Y-116559313D01*
X130906882Y-116446045D01*
X131051045Y-116301882D01*
X131164313Y-116132364D01*
X131242334Y-115944006D01*
X131282108Y-115744047D01*
X131282108Y-115540169D01*
X131242334Y-115340210D01*
X131164313Y-115151852D01*
X131051045Y-114982334D01*
X130906882Y-114838171D01*
X130737364Y-114724903D01*
X130549006Y-114646882D01*
X130537512Y-114644596D01*
X130535226Y-114633102D01*
X130457205Y-114444744D01*
X130343937Y-114275226D01*
X130199774Y-114131063D01*
X130030256Y-114017795D01*
X129900771Y-113964160D01*
X129940000Y-113766939D01*
X129940000Y-113563061D01*
X129900226Y-113363102D01*
X129822205Y-113174744D01*
X129708937Y-113005226D01*
X129631772Y-112928061D01*
X130410000Y-112928061D01*
X130410000Y-113131939D01*
X130449774Y-113331898D01*
X130527795Y-113520256D01*
X130641063Y-113689774D01*
X130785226Y-113833937D01*
X130954744Y-113947205D01*
X131143102Y-114025226D01*
X131154596Y-114027512D01*
X131156882Y-114039006D01*
X131234903Y-114227364D01*
X131348171Y-114396882D01*
X131492334Y-114541045D01*
X131661852Y-114654313D01*
X131850210Y-114732334D01*
X132050169Y-114772108D01*
X132254047Y-114772108D01*
X132454006Y-114732334D01*
X132642364Y-114654313D01*
X132811882Y-114541045D01*
X132956045Y-114396882D01*
X133069313Y-114227364D01*
X133147334Y-114039006D01*
X133187108Y-113839047D01*
X133187108Y-113690061D01*
X133585000Y-113690061D01*
X133585000Y-113893939D01*
X133624774Y-114093898D01*
X133702795Y-114282256D01*
X133816063Y-114451774D01*
X133960226Y-114595937D01*
X134129744Y-114709205D01*
X134318102Y-114787226D01*
X134518061Y-114827000D01*
X134721939Y-114827000D01*
X134921898Y-114787226D01*
X135110256Y-114709205D01*
X135279774Y-114595937D01*
X135423937Y-114451774D01*
X135537205Y-114282256D01*
X135615226Y-114093898D01*
X135655000Y-113893939D01*
X135655000Y-113690061D01*
X135629739Y-113563061D01*
X145015000Y-113563061D01*
X145015000Y-113766939D01*
X145054774Y-113966898D01*
X145132795Y-114155256D01*
X145246063Y-114324774D01*
X145390226Y-114468937D01*
X145559744Y-114582205D01*
X145748102Y-114660226D01*
X145948061Y-114700000D01*
X146151939Y-114700000D01*
X146351898Y-114660226D01*
X146540256Y-114582205D01*
X146709774Y-114468937D01*
X146853937Y-114324774D01*
X146943963Y-114190040D01*
X146949176Y-114202624D01*
X147014241Y-114300000D01*
X146949176Y-114397376D01*
X146863617Y-114603933D01*
X146820000Y-114823212D01*
X146820000Y-115046788D01*
X146863617Y-115266067D01*
X146909888Y-115377774D01*
X146865498Y-115460820D01*
X146829188Y-115580518D01*
X146816928Y-115705000D01*
X146816928Y-116705000D01*
X146829188Y-116829482D01*
X146865498Y-116949180D01*
X146924463Y-117059494D01*
X147003815Y-117156185D01*
X147100506Y-117235537D01*
X147210820Y-117294502D01*
X147330518Y-117330812D01*
X147455000Y-117343072D01*
X148455000Y-117343072D01*
X148579482Y-117330812D01*
X148699180Y-117294502D01*
X148787894Y-117247082D01*
X148923124Y-117299126D01*
X149098000Y-117174129D01*
X149098000Y-116332000D01*
X149352000Y-116332000D01*
X149352000Y-117174129D01*
X149526876Y-117299126D01*
X149734529Y-117219210D01*
X149922601Y-117100318D01*
X150083865Y-116947020D01*
X150212123Y-116765206D01*
X150302446Y-116561864D01*
X150319119Y-116506874D01*
X150192954Y-116332000D01*
X149352000Y-116332000D01*
X149098000Y-116332000D01*
X149093072Y-116332000D01*
X149093072Y-116078000D01*
X149098000Y-116078000D01*
X149098000Y-116066974D01*
X149113212Y-116070000D01*
X149336788Y-116070000D01*
X149352000Y-116066974D01*
X149352000Y-116078000D01*
X150192954Y-116078000D01*
X150319119Y-115903126D01*
X150302446Y-115848136D01*
X150212123Y-115644794D01*
X150162647Y-115574658D01*
X150230824Y-115472624D01*
X150316383Y-115266067D01*
X150360000Y-115046788D01*
X150360000Y-114823212D01*
X150316383Y-114603933D01*
X150230824Y-114397376D01*
X150165759Y-114300000D01*
X150230824Y-114202624D01*
X150316383Y-113996067D01*
X150360000Y-113776788D01*
X150360000Y-113553212D01*
X150316383Y-113333933D01*
X150230824Y-113127376D01*
X150106612Y-112941480D01*
X149948520Y-112783388D01*
X149762624Y-112659176D01*
X149556067Y-112573617D01*
X149336788Y-112530000D01*
X149113212Y-112530000D01*
X148893933Y-112573617D01*
X148687376Y-112659176D01*
X148590000Y-112724241D01*
X148492624Y-112659176D01*
X148286067Y-112573617D01*
X148066788Y-112530000D01*
X147843212Y-112530000D01*
X147623933Y-112573617D01*
X147417376Y-112659176D01*
X147231480Y-112783388D01*
X147073388Y-112941480D01*
X146949176Y-113127376D01*
X146943963Y-113139960D01*
X146853937Y-113005226D01*
X146709774Y-112861063D01*
X146540256Y-112747795D01*
X146351898Y-112669774D01*
X146151939Y-112630000D01*
X145948061Y-112630000D01*
X145748102Y-112669774D01*
X145559744Y-112747795D01*
X145390226Y-112861063D01*
X145246063Y-113005226D01*
X145132795Y-113174744D01*
X145054774Y-113363102D01*
X145015000Y-113563061D01*
X135629739Y-113563061D01*
X135615226Y-113490102D01*
X135537205Y-113301744D01*
X135423937Y-113132226D01*
X135279774Y-112988063D01*
X135110256Y-112874795D01*
X134921898Y-112796774D01*
X134721939Y-112757000D01*
X134518061Y-112757000D01*
X134318102Y-112796774D01*
X134129744Y-112874795D01*
X133960226Y-112988063D01*
X133816063Y-113132226D01*
X133702795Y-113301744D01*
X133624774Y-113490102D01*
X133585000Y-113690061D01*
X133187108Y-113690061D01*
X133187108Y-113635169D01*
X133147334Y-113435210D01*
X133069313Y-113246852D01*
X132956045Y-113077334D01*
X132811882Y-112933171D01*
X132642364Y-112819903D01*
X132454006Y-112741882D01*
X132442512Y-112739596D01*
X132440226Y-112728102D01*
X132362205Y-112539744D01*
X132248937Y-112370226D01*
X132104774Y-112226063D01*
X131935256Y-112112795D01*
X131746898Y-112034774D01*
X131546939Y-111995000D01*
X131343061Y-111995000D01*
X131143102Y-112034774D01*
X130954744Y-112112795D01*
X130785226Y-112226063D01*
X130641063Y-112370226D01*
X130527795Y-112539744D01*
X130449774Y-112728102D01*
X130410000Y-112928061D01*
X129631772Y-112928061D01*
X129564774Y-112861063D01*
X129395256Y-112747795D01*
X129206898Y-112669774D01*
X129006939Y-112630000D01*
X128803061Y-112630000D01*
X128603102Y-112669774D01*
X128414744Y-112747795D01*
X128245226Y-112861063D01*
X128101063Y-113005226D01*
X127987795Y-113174744D01*
X127909774Y-113363102D01*
X127870000Y-113563061D01*
X122101772Y-113563061D01*
X122034774Y-113496063D01*
X121865256Y-113382795D01*
X121676898Y-113304774D01*
X121476939Y-113265000D01*
X121273061Y-113265000D01*
X121073102Y-113304774D01*
X120884744Y-113382795D01*
X120715226Y-113496063D01*
X120571063Y-113640226D01*
X120457795Y-113809744D01*
X120379774Y-113998102D01*
X120340000Y-114198061D01*
X112160000Y-114198061D01*
X112120226Y-113998102D01*
X112042205Y-113809744D01*
X111928937Y-113640226D01*
X111784774Y-113496063D01*
X111615256Y-113382795D01*
X111426898Y-113304774D01*
X111226939Y-113265000D01*
X111023061Y-113265000D01*
X110823102Y-113304774D01*
X110634744Y-113382795D01*
X110465226Y-113496063D01*
X110321063Y-113640226D01*
X110207795Y-113809744D01*
X110129774Y-113998102D01*
X110090000Y-114198061D01*
X102997000Y-114198061D01*
X102997000Y-112928061D01*
X113900000Y-112928061D01*
X113900000Y-113131939D01*
X113939774Y-113331898D01*
X114017795Y-113520256D01*
X114131063Y-113689774D01*
X114275226Y-113833937D01*
X114444744Y-113947205D01*
X114633102Y-114025226D01*
X114833061Y-114065000D01*
X115036939Y-114065000D01*
X115236898Y-114025226D01*
X115425256Y-113947205D01*
X115594774Y-113833937D01*
X115738937Y-113689774D01*
X115852205Y-113520256D01*
X115930226Y-113331898D01*
X115970000Y-113131939D01*
X115970000Y-112928061D01*
X115930226Y-112728102D01*
X115852205Y-112539744D01*
X115738937Y-112370226D01*
X115594774Y-112226063D01*
X115425256Y-112112795D01*
X115236898Y-112034774D01*
X115036939Y-111995000D01*
X114833061Y-111995000D01*
X114633102Y-112034774D01*
X114444744Y-112112795D01*
X114275226Y-112226063D01*
X114131063Y-112370226D01*
X114017795Y-112539744D01*
X113939774Y-112728102D01*
X113900000Y-112928061D01*
X102997000Y-112928061D01*
X102997000Y-111658061D01*
X118345000Y-111658061D01*
X118345000Y-111861939D01*
X118384774Y-112061898D01*
X118462795Y-112250256D01*
X118576063Y-112419774D01*
X118720226Y-112563937D01*
X118889744Y-112677205D01*
X119078102Y-112755226D01*
X119278061Y-112795000D01*
X119481939Y-112795000D01*
X119681898Y-112755226D01*
X119870256Y-112677205D01*
X120039774Y-112563937D01*
X120183937Y-112419774D01*
X120297205Y-112250256D01*
X120375226Y-112061898D01*
X120415000Y-111861939D01*
X120415000Y-111658061D01*
X122409000Y-111658061D01*
X122409000Y-111861939D01*
X122448774Y-112061898D01*
X122526795Y-112250256D01*
X122640063Y-112419774D01*
X122784226Y-112563937D01*
X122953744Y-112677205D01*
X123142102Y-112755226D01*
X123342061Y-112795000D01*
X123545939Y-112795000D01*
X123745898Y-112755226D01*
X123934256Y-112677205D01*
X124103774Y-112563937D01*
X124247937Y-112419774D01*
X124361205Y-112250256D01*
X124439226Y-112061898D01*
X124479000Y-111861939D01*
X124479000Y-111658061D01*
X124439226Y-111458102D01*
X124361205Y-111269744D01*
X124247937Y-111100226D01*
X124103774Y-110956063D01*
X123934256Y-110842795D01*
X123745898Y-110764774D01*
X123545939Y-110725000D01*
X123342061Y-110725000D01*
X123142102Y-110764774D01*
X122953744Y-110842795D01*
X122784226Y-110956063D01*
X122640063Y-111100226D01*
X122526795Y-111269744D01*
X122448774Y-111458102D01*
X122409000Y-111658061D01*
X120415000Y-111658061D01*
X120375226Y-111458102D01*
X120297205Y-111269744D01*
X120183937Y-111100226D01*
X120039774Y-110956063D01*
X119870256Y-110842795D01*
X119681898Y-110764774D01*
X119481939Y-110725000D01*
X119278061Y-110725000D01*
X119078102Y-110764774D01*
X118889744Y-110842795D01*
X118720226Y-110956063D01*
X118576063Y-111100226D01*
X118462795Y-111269744D01*
X118384774Y-111458102D01*
X118345000Y-111658061D01*
X102997000Y-111658061D01*
X102997000Y-110388061D01*
X127870000Y-110388061D01*
X127870000Y-110591939D01*
X127909774Y-110791898D01*
X127987795Y-110980256D01*
X128101063Y-111149774D01*
X128245226Y-111293937D01*
X128414744Y-111407205D01*
X128603102Y-111485226D01*
X128803061Y-111525000D01*
X129006939Y-111525000D01*
X129206898Y-111485226D01*
X129395256Y-111407205D01*
X129564774Y-111293937D01*
X129708937Y-111149774D01*
X129822205Y-110980256D01*
X129900226Y-110791898D01*
X129940000Y-110591939D01*
X129940000Y-110388061D01*
X129900226Y-110188102D01*
X129822205Y-109999744D01*
X129708937Y-109830226D01*
X129564774Y-109686063D01*
X129395256Y-109572795D01*
X129206898Y-109494774D01*
X129006939Y-109455000D01*
X128803061Y-109455000D01*
X128603102Y-109494774D01*
X128414744Y-109572795D01*
X128245226Y-109686063D01*
X128101063Y-109830226D01*
X127987795Y-109999744D01*
X127909774Y-110188102D01*
X127870000Y-110388061D01*
X102997000Y-110388061D01*
X102997000Y-105943061D01*
X113900000Y-105943061D01*
X113900000Y-106146939D01*
X113939774Y-106346898D01*
X114017795Y-106535256D01*
X114131063Y-106704774D01*
X114275226Y-106848937D01*
X114444744Y-106962205D01*
X114633102Y-107040226D01*
X114833061Y-107080000D01*
X115036939Y-107080000D01*
X115236898Y-107040226D01*
X115425256Y-106962205D01*
X115594774Y-106848937D01*
X115738937Y-106704774D01*
X115852205Y-106535256D01*
X115930226Y-106346898D01*
X115970000Y-106146939D01*
X115970000Y-105943061D01*
X115930226Y-105743102D01*
X115852205Y-105554744D01*
X115738937Y-105385226D01*
X115594774Y-105241063D01*
X115425256Y-105127795D01*
X115236898Y-105049774D01*
X115036939Y-105010000D01*
X114833061Y-105010000D01*
X114633102Y-105049774D01*
X114444744Y-105127795D01*
X114275226Y-105241063D01*
X114131063Y-105385226D01*
X114017795Y-105554744D01*
X113939774Y-105743102D01*
X113900000Y-105943061D01*
X102997000Y-105943061D01*
X102997000Y-102133061D01*
X124614401Y-102133061D01*
X124614401Y-102336939D01*
X124654175Y-102536898D01*
X124732196Y-102725256D01*
X124845464Y-102894774D01*
X124989627Y-103038937D01*
X125159145Y-103152205D01*
X125347503Y-103230226D01*
X125547462Y-103270000D01*
X125751340Y-103270000D01*
X125951299Y-103230226D01*
X126139657Y-103152205D01*
X126309175Y-103038937D01*
X126453338Y-102894774D01*
X126566606Y-102725256D01*
X126644627Y-102536898D01*
X126684401Y-102336939D01*
X126684401Y-102133061D01*
X126644627Y-101933102D01*
X126566606Y-101744744D01*
X126453338Y-101575226D01*
X126309175Y-101431063D01*
X126139657Y-101317795D01*
X125951299Y-101239774D01*
X125751340Y-101200000D01*
X125547462Y-101200000D01*
X125347503Y-101239774D01*
X125159145Y-101317795D01*
X124989627Y-101431063D01*
X124845464Y-101575226D01*
X124732196Y-101744744D01*
X124654175Y-101933102D01*
X124614401Y-102133061D01*
X102997000Y-102133061D01*
X102997000Y-98958061D01*
X113900000Y-98958061D01*
X113900000Y-99161939D01*
X113939774Y-99361898D01*
X114017795Y-99550256D01*
X114131063Y-99719774D01*
X114275226Y-99863937D01*
X114444744Y-99977205D01*
X114633102Y-100055226D01*
X114833061Y-100095000D01*
X115036939Y-100095000D01*
X115236898Y-100055226D01*
X115425256Y-99977205D01*
X115594774Y-99863937D01*
X115738937Y-99719774D01*
X115852205Y-99550256D01*
X115930226Y-99361898D01*
X115970000Y-99161939D01*
X115970000Y-98958061D01*
X115930226Y-98758102D01*
X115852205Y-98569744D01*
X115738937Y-98400226D01*
X115594774Y-98256063D01*
X115425256Y-98142795D01*
X115236898Y-98064774D01*
X115036939Y-98025000D01*
X114833061Y-98025000D01*
X114633102Y-98064774D01*
X114444744Y-98142795D01*
X114275226Y-98256063D01*
X114131063Y-98400226D01*
X114017795Y-98569744D01*
X113939774Y-98758102D01*
X113900000Y-98958061D01*
X102997000Y-98958061D01*
X102997000Y-90068061D01*
X127870000Y-90068061D01*
X127870000Y-90271939D01*
X127909774Y-90471898D01*
X127987795Y-90660256D01*
X128101063Y-90829774D01*
X128245226Y-90973937D01*
X128414744Y-91087205D01*
X128603102Y-91165226D01*
X128803061Y-91205000D01*
X129006939Y-91205000D01*
X129206898Y-91165226D01*
X129395256Y-91087205D01*
X129564774Y-90973937D01*
X129708937Y-90829774D01*
X129822205Y-90660256D01*
X129900226Y-90471898D01*
X129940000Y-90271939D01*
X129940000Y-90068061D01*
X129900226Y-89868102D01*
X129822205Y-89679744D01*
X129708937Y-89510226D01*
X129564774Y-89366063D01*
X129395256Y-89252795D01*
X129206898Y-89174774D01*
X129006939Y-89135000D01*
X128803061Y-89135000D01*
X128603102Y-89174774D01*
X128414744Y-89252795D01*
X128245226Y-89366063D01*
X128101063Y-89510226D01*
X127987795Y-89679744D01*
X127909774Y-89868102D01*
X127870000Y-90068061D01*
X102997000Y-90068061D01*
X102997000Y-80543061D01*
X123425000Y-80543061D01*
X123425000Y-80746939D01*
X123464774Y-80946898D01*
X123542795Y-81135256D01*
X123656063Y-81304774D01*
X123800226Y-81448937D01*
X123969744Y-81562205D01*
X124158102Y-81640226D01*
X124358061Y-81680000D01*
X124561939Y-81680000D01*
X124761898Y-81640226D01*
X124950256Y-81562205D01*
X125119774Y-81448937D01*
X125263937Y-81304774D01*
X125377205Y-81135256D01*
X125455226Y-80946898D01*
X125495000Y-80746939D01*
X125495000Y-80543061D01*
X125965000Y-80543061D01*
X125965000Y-80746939D01*
X126004774Y-80946898D01*
X126082795Y-81135256D01*
X126196063Y-81304774D01*
X126340226Y-81448937D01*
X126509744Y-81562205D01*
X126698102Y-81640226D01*
X126898061Y-81680000D01*
X127101939Y-81680000D01*
X127301898Y-81640226D01*
X127490256Y-81562205D01*
X127659774Y-81448937D01*
X127803937Y-81304774D01*
X127917205Y-81135256D01*
X127995226Y-80946898D01*
X128035000Y-80746939D01*
X128035000Y-80543061D01*
X128505000Y-80543061D01*
X128505000Y-80746939D01*
X128544774Y-80946898D01*
X128622795Y-81135256D01*
X128736063Y-81304774D01*
X128880226Y-81448937D01*
X129049744Y-81562205D01*
X129238102Y-81640226D01*
X129438061Y-81680000D01*
X129641939Y-81680000D01*
X129841898Y-81640226D01*
X130030256Y-81562205D01*
X130199774Y-81448937D01*
X130343937Y-81304774D01*
X130457205Y-81135256D01*
X130535226Y-80946898D01*
X130575000Y-80746939D01*
X130575000Y-80543061D01*
X130535226Y-80343102D01*
X130457205Y-80154744D01*
X130343937Y-79985226D01*
X130199774Y-79841063D01*
X130030256Y-79727795D01*
X129841898Y-79649774D01*
X129641939Y-79610000D01*
X129438061Y-79610000D01*
X129238102Y-79649774D01*
X129049744Y-79727795D01*
X128880226Y-79841063D01*
X128736063Y-79985226D01*
X128622795Y-80154744D01*
X128544774Y-80343102D01*
X128505000Y-80543061D01*
X128035000Y-80543061D01*
X127995226Y-80343102D01*
X127917205Y-80154744D01*
X127803937Y-79985226D01*
X127659774Y-79841063D01*
X127490256Y-79727795D01*
X127301898Y-79649774D01*
X127101939Y-79610000D01*
X126898061Y-79610000D01*
X126698102Y-79649774D01*
X126509744Y-79727795D01*
X126340226Y-79841063D01*
X126196063Y-79985226D01*
X126082795Y-80154744D01*
X126004774Y-80343102D01*
X125965000Y-80543061D01*
X125495000Y-80543061D01*
X125455226Y-80343102D01*
X125377205Y-80154744D01*
X125263937Y-79985226D01*
X125119774Y-79841063D01*
X124950256Y-79727795D01*
X124761898Y-79649774D01*
X124561939Y-79610000D01*
X124358061Y-79610000D01*
X124158102Y-79649774D01*
X123969744Y-79727795D01*
X123800226Y-79841063D01*
X123656063Y-79985226D01*
X123542795Y-80154744D01*
X123464774Y-80343102D01*
X123425000Y-80543061D01*
X102997000Y-80543061D01*
X102997000Y-68478061D01*
X129775000Y-68478061D01*
X129775000Y-68681939D01*
X129814774Y-68881898D01*
X129892795Y-69070256D01*
X130006063Y-69239774D01*
X130150226Y-69383937D01*
X130319744Y-69497205D01*
X130508102Y-69575226D01*
X130708061Y-69615000D01*
X130911939Y-69615000D01*
X131111898Y-69575226D01*
X131300256Y-69497205D01*
X131469774Y-69383937D01*
X131613937Y-69239774D01*
X131727205Y-69070256D01*
X131805226Y-68881898D01*
X131845000Y-68681939D01*
X131845000Y-68478061D01*
X131805226Y-68278102D01*
X131727205Y-68089744D01*
X131613937Y-67920226D01*
X131469774Y-67776063D01*
X131300256Y-67662795D01*
X131111898Y-67584774D01*
X130911939Y-67545000D01*
X130708061Y-67545000D01*
X130508102Y-67584774D01*
X130319744Y-67662795D01*
X130150226Y-67776063D01*
X130006063Y-67920226D01*
X129892795Y-68089744D01*
X129814774Y-68278102D01*
X129775000Y-68478061D01*
X102997000Y-68478061D01*
X102997000Y-66802000D01*
X153543000Y-66802000D01*
X153543000Y-149098000D01*
%TA.AperFunction,Conductor*%
D14*
G36*
X153543000Y-149098000D02*
G01*
X102997000Y-149098000D01*
X102997000Y-141503061D01*
X123425000Y-141503061D01*
X123425000Y-141706939D01*
X123464774Y-141906898D01*
X123542795Y-142095256D01*
X123656063Y-142264774D01*
X123800226Y-142408937D01*
X123969744Y-142522205D01*
X124054953Y-142557500D01*
X123969744Y-142592795D01*
X123800226Y-142706063D01*
X123656063Y-142850226D01*
X123542795Y-143019744D01*
X123464774Y-143208102D01*
X123425000Y-143408061D01*
X123425000Y-143611939D01*
X123464774Y-143811898D01*
X123542795Y-144000256D01*
X123656063Y-144169774D01*
X123800226Y-144313937D01*
X123969744Y-144427205D01*
X124158102Y-144505226D01*
X124358061Y-144545000D01*
X124561939Y-144545000D01*
X124761898Y-144505226D01*
X124950256Y-144427205D01*
X125119774Y-144313937D01*
X125263937Y-144169774D01*
X125377205Y-144000256D01*
X125455226Y-143811898D01*
X125495000Y-143611939D01*
X125495000Y-143408061D01*
X125455226Y-143208102D01*
X125377205Y-143019744D01*
X125263937Y-142850226D01*
X125119774Y-142706063D01*
X124950256Y-142592795D01*
X124865047Y-142557500D01*
X124950256Y-142522205D01*
X125119774Y-142408937D01*
X125263937Y-142264774D01*
X125377205Y-142095256D01*
X125455226Y-141906898D01*
X125495000Y-141706939D01*
X125495000Y-141503061D01*
X125455226Y-141303102D01*
X125377205Y-141114744D01*
X125263937Y-140945226D01*
X125186772Y-140868061D01*
X151365000Y-140868061D01*
X151365000Y-141071939D01*
X151404774Y-141271898D01*
X151482795Y-141460256D01*
X151596063Y-141629774D01*
X151740226Y-141773937D01*
X151909744Y-141887205D01*
X151994953Y-141922500D01*
X151909744Y-141957795D01*
X151740226Y-142071063D01*
X151596063Y-142215226D01*
X151482795Y-142384744D01*
X151404774Y-142573102D01*
X151365000Y-142773061D01*
X151365000Y-142976939D01*
X151404774Y-143176898D01*
X151482795Y-143365256D01*
X151596063Y-143534774D01*
X151740226Y-143678937D01*
X151909744Y-143792205D01*
X152098102Y-143870226D01*
X152298061Y-143910000D01*
X152501939Y-143910000D01*
X152701898Y-143870226D01*
X152890256Y-143792205D01*
X153059774Y-143678937D01*
X153203937Y-143534774D01*
X153317205Y-143365256D01*
X153395226Y-143176898D01*
X153435000Y-142976939D01*
X153435000Y-142773061D01*
X153395226Y-142573102D01*
X153317205Y-142384744D01*
X153203937Y-142215226D01*
X153059774Y-142071063D01*
X152890256Y-141957795D01*
X152805047Y-141922500D01*
X152890256Y-141887205D01*
X153059774Y-141773937D01*
X153203937Y-141629774D01*
X153317205Y-141460256D01*
X153395226Y-141271898D01*
X153435000Y-141071939D01*
X153435000Y-140868061D01*
X153395226Y-140668102D01*
X153317205Y-140479744D01*
X153203937Y-140310226D01*
X153059774Y-140166063D01*
X152890256Y-140052795D01*
X152701898Y-139974774D01*
X152501939Y-139935000D01*
X152298061Y-139935000D01*
X152098102Y-139974774D01*
X151909744Y-140052795D01*
X151740226Y-140166063D01*
X151596063Y-140310226D01*
X151482795Y-140479744D01*
X151404774Y-140668102D01*
X151365000Y-140868061D01*
X125186772Y-140868061D01*
X125119774Y-140801063D01*
X124950256Y-140687795D01*
X124761898Y-140609774D01*
X124561939Y-140570000D01*
X124358061Y-140570000D01*
X124158102Y-140609774D01*
X123969744Y-140687795D01*
X123800226Y-140801063D01*
X123656063Y-140945226D01*
X123542795Y-141114744D01*
X123464774Y-141303102D01*
X123425000Y-141503061D01*
X102997000Y-141503061D01*
X102997000Y-140012490D01*
X103141744Y-140109205D01*
X103330102Y-140187226D01*
X103530061Y-140227000D01*
X103733939Y-140227000D01*
X103933898Y-140187226D01*
X104122256Y-140109205D01*
X104291774Y-139995937D01*
X104435937Y-139851774D01*
X104549205Y-139682256D01*
X104627226Y-139493898D01*
X104667000Y-139293939D01*
X104667000Y-139090061D01*
X131553000Y-139090061D01*
X131553000Y-139293939D01*
X131592774Y-139493898D01*
X131670795Y-139682256D01*
X131784063Y-139851774D01*
X131928226Y-139995937D01*
X132097744Y-140109205D01*
X132286102Y-140187226D01*
X132486061Y-140227000D01*
X132689939Y-140227000D01*
X132889898Y-140187226D01*
X133078256Y-140109205D01*
X133247774Y-139995937D01*
X133391937Y-139851774D01*
X133505205Y-139682256D01*
X133583226Y-139493898D01*
X133623000Y-139293939D01*
X133623000Y-139090061D01*
X133583226Y-138890102D01*
X133505205Y-138701744D01*
X133391937Y-138532226D01*
X133247774Y-138388063D01*
X133078256Y-138274795D01*
X132889898Y-138196774D01*
X132689939Y-138157000D01*
X132486061Y-138157000D01*
X132286102Y-138196774D01*
X132097744Y-138274795D01*
X131928226Y-138388063D01*
X131784063Y-138532226D01*
X131670795Y-138701744D01*
X131592774Y-138890102D01*
X131553000Y-139090061D01*
X104667000Y-139090061D01*
X104627226Y-138890102D01*
X104549205Y-138701744D01*
X104435937Y-138532226D01*
X104291774Y-138388063D01*
X104122256Y-138274795D01*
X103933898Y-138196774D01*
X103733939Y-138157000D01*
X103530061Y-138157000D01*
X103330102Y-138196774D01*
X103141744Y-138274795D01*
X102997000Y-138371510D01*
X102997000Y-136550061D01*
X111741000Y-136550061D01*
X111741000Y-136753939D01*
X111780774Y-136953898D01*
X111858795Y-137142256D01*
X111972063Y-137311774D01*
X112116226Y-137455937D01*
X112285744Y-137569205D01*
X112474102Y-137647226D01*
X112674061Y-137687000D01*
X112877939Y-137687000D01*
X113077898Y-137647226D01*
X113266256Y-137569205D01*
X113435774Y-137455937D01*
X113579937Y-137311774D01*
X113693205Y-137142256D01*
X113771226Y-136953898D01*
X113811000Y-136753939D01*
X113811000Y-136550061D01*
X113771226Y-136350102D01*
X113693205Y-136161744D01*
X113579937Y-135992226D01*
X113435774Y-135848063D01*
X113266256Y-135734795D01*
X113077898Y-135656774D01*
X112877939Y-135617000D01*
X112674061Y-135617000D01*
X112474102Y-135656774D01*
X112285744Y-135734795D01*
X112116226Y-135848063D01*
X111972063Y-135992226D01*
X111858795Y-136161744D01*
X111780774Y-136350102D01*
X111741000Y-136550061D01*
X102997000Y-136550061D01*
X102997000Y-133502061D01*
X127489000Y-133502061D01*
X127489000Y-133705939D01*
X127528774Y-133905898D01*
X127606795Y-134094256D01*
X127720063Y-134263774D01*
X127864226Y-134407937D01*
X128033744Y-134521205D01*
X128222102Y-134599226D01*
X128422061Y-134639000D01*
X128625939Y-134639000D01*
X128825898Y-134599226D01*
X129014256Y-134521205D01*
X129183774Y-134407937D01*
X129327937Y-134263774D01*
X129441205Y-134094256D01*
X129519226Y-133905898D01*
X129559000Y-133705939D01*
X129559000Y-133502061D01*
X129519226Y-133302102D01*
X129441205Y-133113744D01*
X129327937Y-132944226D01*
X129183774Y-132800063D01*
X129014256Y-132686795D01*
X128825898Y-132608774D01*
X128625939Y-132569000D01*
X128422061Y-132569000D01*
X128222102Y-132608774D01*
X128033744Y-132686795D01*
X127864226Y-132800063D01*
X127720063Y-132944226D01*
X127606795Y-133113744D01*
X127528774Y-133302102D01*
X127489000Y-133502061D01*
X102997000Y-133502061D01*
X102997000Y-130962061D01*
X115805000Y-130962061D01*
X115805000Y-131165939D01*
X115844774Y-131365898D01*
X115922795Y-131554256D01*
X116036063Y-131723774D01*
X116180226Y-131867937D01*
X116349744Y-131981205D01*
X116538102Y-132059226D01*
X116738061Y-132099000D01*
X116941939Y-132099000D01*
X116953984Y-132096604D01*
X117047410Y-132236427D01*
X117191573Y-132380590D01*
X117361091Y-132493858D01*
X117549449Y-132571879D01*
X117749408Y-132611653D01*
X117953286Y-132611653D01*
X118153245Y-132571879D01*
X118341603Y-132493858D01*
X118511121Y-132380590D01*
X118655284Y-132236427D01*
X118768552Y-132066909D01*
X118846573Y-131878551D01*
X118886347Y-131678592D01*
X118886347Y-131474714D01*
X118846573Y-131274755D01*
X118768552Y-131086397D01*
X118655284Y-130916879D01*
X118511121Y-130772716D01*
X118341603Y-130659448D01*
X118153245Y-130581427D01*
X117953286Y-130541653D01*
X117749408Y-130541653D01*
X117737363Y-130544049D01*
X117643937Y-130404226D01*
X117499774Y-130260063D01*
X117330256Y-130146795D01*
X117141898Y-130068774D01*
X116941939Y-130029000D01*
X116738061Y-130029000D01*
X116538102Y-130068774D01*
X116349744Y-130146795D01*
X116180226Y-130260063D01*
X116036063Y-130404226D01*
X115922795Y-130573744D01*
X115844774Y-130762102D01*
X115805000Y-130962061D01*
X102997000Y-130962061D01*
X102997000Y-129381059D01*
X129013000Y-129381059D01*
X129013000Y-129584937D01*
X129052774Y-129784896D01*
X129130795Y-129973254D01*
X129244063Y-130142772D01*
X129388226Y-130286935D01*
X129557744Y-130400203D01*
X129746102Y-130478224D01*
X129946061Y-130517998D01*
X130149939Y-130517998D01*
X130349898Y-130478224D01*
X130538256Y-130400203D01*
X130707774Y-130286935D01*
X130851937Y-130142772D01*
X130965205Y-129973254D01*
X131043226Y-129784896D01*
X131083000Y-129584937D01*
X131083000Y-129381059D01*
X131043226Y-129181100D01*
X130965205Y-128992742D01*
X130851937Y-128823224D01*
X130707774Y-128679061D01*
X130538256Y-128565793D01*
X130349898Y-128487772D01*
X130149939Y-128447998D01*
X129946061Y-128447998D01*
X129746102Y-128487772D01*
X129557744Y-128565793D01*
X129388226Y-128679061D01*
X129244063Y-128823224D01*
X129130795Y-128992742D01*
X129052774Y-129181100D01*
X129013000Y-129381059D01*
X102997000Y-129381059D01*
X102997000Y-127533061D01*
X118345000Y-127533061D01*
X118345000Y-127736939D01*
X118384774Y-127936898D01*
X118462795Y-128125256D01*
X118576063Y-128294774D01*
X118720226Y-128438937D01*
X118889744Y-128552205D01*
X119078102Y-128630226D01*
X119278061Y-128670000D01*
X119481939Y-128670000D01*
X119681898Y-128630226D01*
X119870256Y-128552205D01*
X120039774Y-128438937D01*
X120183937Y-128294774D01*
X120297205Y-128125256D01*
X120375226Y-127936898D01*
X120415000Y-127736939D01*
X120415000Y-127533061D01*
X120375226Y-127333102D01*
X120297205Y-127144744D01*
X120183937Y-126975226D01*
X120039774Y-126831063D01*
X119870256Y-126717795D01*
X119681898Y-126639774D01*
X119481939Y-126600000D01*
X119278061Y-126600000D01*
X119078102Y-126639774D01*
X118889744Y-126717795D01*
X118720226Y-126831063D01*
X118576063Y-126975226D01*
X118462795Y-127144744D01*
X118384774Y-127333102D01*
X118345000Y-127533061D01*
X102997000Y-127533061D01*
X102997000Y-125628061D01*
X120795000Y-125628061D01*
X120795000Y-125831939D01*
X120834774Y-126031898D01*
X120912795Y-126220256D01*
X121026063Y-126389774D01*
X121170226Y-126533937D01*
X121339744Y-126647205D01*
X121528102Y-126725226D01*
X121728061Y-126765000D01*
X121931939Y-126765000D01*
X122131898Y-126725226D01*
X122320256Y-126647205D01*
X122489774Y-126533937D01*
X122633937Y-126389774D01*
X122747205Y-126220256D01*
X122825226Y-126031898D01*
X122865000Y-125831939D01*
X122865000Y-125628061D01*
X122825226Y-125428102D01*
X122747205Y-125239744D01*
X122633937Y-125070226D01*
X122489774Y-124926063D01*
X122320256Y-124812795D01*
X122131898Y-124734774D01*
X121931939Y-124695000D01*
X121728061Y-124695000D01*
X121528102Y-124734774D01*
X121339744Y-124812795D01*
X121170226Y-124926063D01*
X121026063Y-125070226D01*
X120912795Y-125239744D01*
X120834774Y-125428102D01*
X120795000Y-125628061D01*
X102997000Y-125628061D01*
X102997000Y-123342061D01*
X118345000Y-123342061D01*
X118345000Y-123545939D01*
X118384774Y-123745898D01*
X118462795Y-123934256D01*
X118576063Y-124103774D01*
X118720226Y-124247937D01*
X118889744Y-124361205D01*
X119078102Y-124439226D01*
X119278061Y-124479000D01*
X119481939Y-124479000D01*
X119681898Y-124439226D01*
X119870256Y-124361205D01*
X119874961Y-124358061D01*
X134855000Y-124358061D01*
X134855000Y-124561939D01*
X134894774Y-124761898D01*
X134972795Y-124950256D01*
X135086063Y-125119774D01*
X135230226Y-125263937D01*
X135399744Y-125377205D01*
X135588102Y-125455226D01*
X135788061Y-125495000D01*
X135991939Y-125495000D01*
X136191898Y-125455226D01*
X136380256Y-125377205D01*
X136549774Y-125263937D01*
X136693937Y-125119774D01*
X136807205Y-124950256D01*
X136885226Y-124761898D01*
X136925000Y-124561939D01*
X136925000Y-124358061D01*
X136885226Y-124158102D01*
X136807205Y-123969744D01*
X136693937Y-123800226D01*
X136616772Y-123723061D01*
X139665003Y-123723061D01*
X139665003Y-123926939D01*
X139704777Y-124126898D01*
X139782798Y-124315256D01*
X139896066Y-124484774D01*
X140040229Y-124628937D01*
X140209747Y-124742205D01*
X140398105Y-124820226D01*
X140598064Y-124860000D01*
X140801942Y-124860000D01*
X141001901Y-124820226D01*
X141190259Y-124742205D01*
X141359777Y-124628937D01*
X141503940Y-124484774D01*
X141617208Y-124315256D01*
X141695229Y-124126898D01*
X141735003Y-123926939D01*
X141735003Y-123723061D01*
X141695229Y-123523102D01*
X141617208Y-123334744D01*
X141503940Y-123165226D01*
X141359777Y-123021063D01*
X141190259Y-122907795D01*
X141001901Y-122829774D01*
X140801942Y-122790000D01*
X140598064Y-122790000D01*
X140398105Y-122829774D01*
X140209747Y-122907795D01*
X140040229Y-123021063D01*
X139896066Y-123165226D01*
X139782798Y-123334744D01*
X139704777Y-123523102D01*
X139665003Y-123723061D01*
X136616772Y-123723061D01*
X136549774Y-123656063D01*
X136380256Y-123542795D01*
X136191898Y-123464774D01*
X135991939Y-123425000D01*
X135788061Y-123425000D01*
X135588102Y-123464774D01*
X135399744Y-123542795D01*
X135230226Y-123656063D01*
X135086063Y-123800226D01*
X134972795Y-123969744D01*
X134894774Y-124158102D01*
X134855000Y-124358061D01*
X119874961Y-124358061D01*
X120039774Y-124247937D01*
X120183937Y-124103774D01*
X120297205Y-123934256D01*
X120375226Y-123745898D01*
X120415000Y-123545939D01*
X120415000Y-123342061D01*
X120375226Y-123142102D01*
X120297205Y-122953744D01*
X120183937Y-122784226D01*
X120039774Y-122640063D01*
X119870256Y-122526795D01*
X119681898Y-122448774D01*
X119481939Y-122409000D01*
X119278061Y-122409000D01*
X119078102Y-122448774D01*
X118889744Y-122526795D01*
X118720226Y-122640063D01*
X118576063Y-122784226D01*
X118462795Y-122953744D01*
X118384774Y-123142102D01*
X118345000Y-123342061D01*
X102997000Y-123342061D01*
X102997000Y-120548061D01*
X133585000Y-120548061D01*
X133585000Y-120751939D01*
X133624774Y-120951898D01*
X133702795Y-121140256D01*
X133816063Y-121309774D01*
X133960226Y-121453937D01*
X134129744Y-121567205D01*
X134318102Y-121645226D01*
X134518061Y-121685000D01*
X134721939Y-121685000D01*
X134921898Y-121645226D01*
X135110256Y-121567205D01*
X135279774Y-121453937D01*
X135423937Y-121309774D01*
X135537205Y-121140256D01*
X135615226Y-120951898D01*
X135655000Y-120751939D01*
X135655000Y-120548061D01*
X135615226Y-120348102D01*
X135537205Y-120159744D01*
X135423937Y-119990226D01*
X135346772Y-119913061D01*
X143110000Y-119913061D01*
X143110000Y-120116939D01*
X143149774Y-120316898D01*
X143227795Y-120505256D01*
X143341063Y-120674774D01*
X143485226Y-120818937D01*
X143654744Y-120932205D01*
X143843102Y-121010226D01*
X144043061Y-121050000D01*
X144246939Y-121050000D01*
X144446898Y-121010226D01*
X144635256Y-120932205D01*
X144804774Y-120818937D01*
X144948937Y-120674774D01*
X145062205Y-120505256D01*
X145140226Y-120316898D01*
X145180000Y-120116939D01*
X145180000Y-119913061D01*
X145140226Y-119713102D01*
X145062205Y-119524744D01*
X144948937Y-119355226D01*
X144804774Y-119211063D01*
X144635256Y-119097795D01*
X144446898Y-119019774D01*
X144246939Y-118980000D01*
X144043061Y-118980000D01*
X143843102Y-119019774D01*
X143654744Y-119097795D01*
X143485226Y-119211063D01*
X143341063Y-119355226D01*
X143227795Y-119524744D01*
X143149774Y-119713102D01*
X143110000Y-119913061D01*
X135346772Y-119913061D01*
X135279774Y-119846063D01*
X135110256Y-119732795D01*
X134921898Y-119654774D01*
X134721939Y-119615000D01*
X134518061Y-119615000D01*
X134318102Y-119654774D01*
X134129744Y-119732795D01*
X133960226Y-119846063D01*
X133816063Y-119990226D01*
X133702795Y-120159744D01*
X133624774Y-120348102D01*
X133585000Y-120548061D01*
X102997000Y-120548061D01*
X102997000Y-118643061D01*
X108820000Y-118643061D01*
X108820000Y-118846939D01*
X108859774Y-119046898D01*
X108937795Y-119235256D01*
X109051063Y-119404774D01*
X109195226Y-119548937D01*
X109364744Y-119662205D01*
X109553102Y-119740226D01*
X109753061Y-119780000D01*
X109956939Y-119780000D01*
X110156898Y-119740226D01*
X110345256Y-119662205D01*
X110514774Y-119548937D01*
X110658937Y-119404774D01*
X110743603Y-119278061D01*
X115439997Y-119278061D01*
X115439997Y-119481939D01*
X115479771Y-119681898D01*
X115557792Y-119870256D01*
X115671060Y-120039774D01*
X115815223Y-120183937D01*
X115984741Y-120297205D01*
X116173099Y-120375226D01*
X116373058Y-120415000D01*
X116576936Y-120415000D01*
X116776895Y-120375226D01*
X116965253Y-120297205D01*
X117134771Y-120183937D01*
X117278934Y-120039774D01*
X117392202Y-119870256D01*
X117470223Y-119681898D01*
X117509997Y-119481939D01*
X117509997Y-119278061D01*
X117470223Y-119078102D01*
X117392202Y-118889744D01*
X117278934Y-118720226D01*
X117134771Y-118576063D01*
X116965253Y-118462795D01*
X116776895Y-118384774D01*
X116576936Y-118345000D01*
X116373058Y-118345000D01*
X116173099Y-118384774D01*
X115984741Y-118462795D01*
X115815223Y-118576063D01*
X115671060Y-118720226D01*
X115557792Y-118889744D01*
X115479771Y-119078102D01*
X115439997Y-119278061D01*
X110743603Y-119278061D01*
X110772205Y-119235256D01*
X110850226Y-119046898D01*
X110890000Y-118846939D01*
X110890000Y-118643061D01*
X110850226Y-118443102D01*
X110772205Y-118254744D01*
X110658937Y-118085226D01*
X110514774Y-117941063D01*
X110345256Y-117827795D01*
X110156898Y-117749774D01*
X109956939Y-117710000D01*
X109753061Y-117710000D01*
X109553102Y-117749774D01*
X109364744Y-117827795D01*
X109195226Y-117941063D01*
X109051063Y-118085226D01*
X108937795Y-118254744D01*
X108859774Y-118443102D01*
X108820000Y-118643061D01*
X102997000Y-118643061D01*
X102997000Y-116230061D01*
X119361000Y-116230061D01*
X119361000Y-116433939D01*
X119400774Y-116633898D01*
X119478795Y-116822256D01*
X119592063Y-116991774D01*
X119736226Y-117135937D01*
X119905744Y-117249205D01*
X120094102Y-117327226D01*
X120294061Y-117367000D01*
X120497939Y-117367000D01*
X120697898Y-117327226D01*
X120886256Y-117249205D01*
X121055774Y-117135937D01*
X121199937Y-116991774D01*
X121313205Y-116822256D01*
X121391226Y-116633898D01*
X121431000Y-116433939D01*
X121431000Y-116230061D01*
X121391226Y-116030102D01*
X121313205Y-115841744D01*
X121199937Y-115672226D01*
X121055774Y-115528063D01*
X120886256Y-115414795D01*
X120697898Y-115336774D01*
X120497939Y-115297000D01*
X120294061Y-115297000D01*
X120094102Y-115336774D01*
X119905744Y-115414795D01*
X119736226Y-115528063D01*
X119592063Y-115672226D01*
X119478795Y-115841744D01*
X119400774Y-116030102D01*
X119361000Y-116230061D01*
X102997000Y-116230061D01*
X102997000Y-114198061D01*
X110090000Y-114198061D01*
X110090000Y-114401939D01*
X110129774Y-114601898D01*
X110207795Y-114790256D01*
X110321063Y-114959774D01*
X110465226Y-115103937D01*
X110634744Y-115217205D01*
X110823102Y-115295226D01*
X111023061Y-115335000D01*
X111226939Y-115335000D01*
X111426898Y-115295226D01*
X111615256Y-115217205D01*
X111784774Y-115103937D01*
X111928937Y-114959774D01*
X112042205Y-114790256D01*
X112120226Y-114601898D01*
X112160000Y-114401939D01*
X112160000Y-114198061D01*
X120340000Y-114198061D01*
X120340000Y-114401939D01*
X120379774Y-114601898D01*
X120457795Y-114790256D01*
X120571063Y-114959774D01*
X120715226Y-115103937D01*
X120884744Y-115217205D01*
X121073102Y-115295226D01*
X121273061Y-115335000D01*
X121476939Y-115335000D01*
X121591011Y-115312310D01*
X121637795Y-115425256D01*
X121751063Y-115594774D01*
X121895226Y-115738937D01*
X122064744Y-115852205D01*
X122253102Y-115930226D01*
X122453061Y-115970000D01*
X122656939Y-115970000D01*
X122856898Y-115930226D01*
X123045256Y-115852205D01*
X123214774Y-115738937D01*
X123358937Y-115594774D01*
X123472205Y-115425256D01*
X123550226Y-115236898D01*
X123590000Y-115036939D01*
X123590000Y-114833061D01*
X123550226Y-114633102D01*
X123472205Y-114444744D01*
X123358937Y-114275226D01*
X123214774Y-114131063D01*
X123045256Y-114017795D01*
X122856898Y-113939774D01*
X122656939Y-113900000D01*
X122453061Y-113900000D01*
X122338989Y-113922690D01*
X122292205Y-113809744D01*
X122178937Y-113640226D01*
X122101772Y-113563061D01*
X127870000Y-113563061D01*
X127870000Y-113766939D01*
X127909774Y-113966898D01*
X127987795Y-114155256D01*
X128101063Y-114324774D01*
X128245226Y-114468937D01*
X128414744Y-114582205D01*
X128544229Y-114635840D01*
X128505000Y-114833061D01*
X128505000Y-115036939D01*
X128544774Y-115236898D01*
X128622795Y-115425256D01*
X128736063Y-115594774D01*
X128880226Y-115738937D01*
X129049744Y-115852205D01*
X129238102Y-115930226D01*
X129249596Y-115932512D01*
X129251882Y-115944006D01*
X129329903Y-116132364D01*
X129443171Y-116301882D01*
X129587334Y-116446045D01*
X129756852Y-116559313D01*
X129945210Y-116637334D01*
X130145169Y-116677108D01*
X130349047Y-116677108D01*
X130549006Y-116637334D01*
X130737364Y-116559313D01*
X130906882Y-116446045D01*
X131051045Y-116301882D01*
X131164313Y-116132364D01*
X131242334Y-115944006D01*
X131282108Y-115744047D01*
X131282108Y-115540169D01*
X131242334Y-115340210D01*
X131164313Y-115151852D01*
X131051045Y-114982334D01*
X130906882Y-114838171D01*
X130737364Y-114724903D01*
X130549006Y-114646882D01*
X130537512Y-114644596D01*
X130535226Y-114633102D01*
X130457205Y-114444744D01*
X130343937Y-114275226D01*
X130199774Y-114131063D01*
X130030256Y-114017795D01*
X129900771Y-113964160D01*
X129940000Y-113766939D01*
X129940000Y-113563061D01*
X129900226Y-113363102D01*
X129822205Y-113174744D01*
X129708937Y-113005226D01*
X129631772Y-112928061D01*
X130410000Y-112928061D01*
X130410000Y-113131939D01*
X130449774Y-113331898D01*
X130527795Y-113520256D01*
X130641063Y-113689774D01*
X130785226Y-113833937D01*
X130954744Y-113947205D01*
X131143102Y-114025226D01*
X131154596Y-114027512D01*
X131156882Y-114039006D01*
X131234903Y-114227364D01*
X131348171Y-114396882D01*
X131492334Y-114541045D01*
X131661852Y-114654313D01*
X131850210Y-114732334D01*
X132050169Y-114772108D01*
X132254047Y-114772108D01*
X132454006Y-114732334D01*
X132642364Y-114654313D01*
X132811882Y-114541045D01*
X132956045Y-114396882D01*
X133069313Y-114227364D01*
X133147334Y-114039006D01*
X133187108Y-113839047D01*
X133187108Y-113690061D01*
X133585000Y-113690061D01*
X133585000Y-113893939D01*
X133624774Y-114093898D01*
X133702795Y-114282256D01*
X133816063Y-114451774D01*
X133960226Y-114595937D01*
X134129744Y-114709205D01*
X134318102Y-114787226D01*
X134518061Y-114827000D01*
X134721939Y-114827000D01*
X134921898Y-114787226D01*
X135110256Y-114709205D01*
X135279774Y-114595937D01*
X135423937Y-114451774D01*
X135537205Y-114282256D01*
X135615226Y-114093898D01*
X135655000Y-113893939D01*
X135655000Y-113690061D01*
X135629739Y-113563061D01*
X145015000Y-113563061D01*
X145015000Y-113766939D01*
X145054774Y-113966898D01*
X145132795Y-114155256D01*
X145246063Y-114324774D01*
X145390226Y-114468937D01*
X145559744Y-114582205D01*
X145748102Y-114660226D01*
X145948061Y-114700000D01*
X146151939Y-114700000D01*
X146351898Y-114660226D01*
X146540256Y-114582205D01*
X146709774Y-114468937D01*
X146853937Y-114324774D01*
X146943963Y-114190040D01*
X146949176Y-114202624D01*
X147014241Y-114300000D01*
X146949176Y-114397376D01*
X146863617Y-114603933D01*
X146820000Y-114823212D01*
X146820000Y-115046788D01*
X146863617Y-115266067D01*
X146909888Y-115377774D01*
X146865498Y-115460820D01*
X146829188Y-115580518D01*
X146816928Y-115705000D01*
X146816928Y-116705000D01*
X146829188Y-116829482D01*
X146865498Y-116949180D01*
X146924463Y-117059494D01*
X147003815Y-117156185D01*
X147100506Y-117235537D01*
X147210820Y-117294502D01*
X147330518Y-117330812D01*
X147455000Y-117343072D01*
X148455000Y-117343072D01*
X148579482Y-117330812D01*
X148699180Y-117294502D01*
X148787894Y-117247082D01*
X148923124Y-117299126D01*
X149098000Y-117174129D01*
X149098000Y-116332000D01*
X149352000Y-116332000D01*
X149352000Y-117174129D01*
X149526876Y-117299126D01*
X149734529Y-117219210D01*
X149922601Y-117100318D01*
X150083865Y-116947020D01*
X150212123Y-116765206D01*
X150302446Y-116561864D01*
X150319119Y-116506874D01*
X150192954Y-116332000D01*
X149352000Y-116332000D01*
X149098000Y-116332000D01*
X149093072Y-116332000D01*
X149093072Y-116078000D01*
X149098000Y-116078000D01*
X149098000Y-116066974D01*
X149113212Y-116070000D01*
X149336788Y-116070000D01*
X149352000Y-116066974D01*
X149352000Y-116078000D01*
X150192954Y-116078000D01*
X150319119Y-115903126D01*
X150302446Y-115848136D01*
X150212123Y-115644794D01*
X150162647Y-115574658D01*
X150230824Y-115472624D01*
X150316383Y-115266067D01*
X150360000Y-115046788D01*
X150360000Y-114823212D01*
X150316383Y-114603933D01*
X150230824Y-114397376D01*
X150165759Y-114300000D01*
X150230824Y-114202624D01*
X150316383Y-113996067D01*
X150360000Y-113776788D01*
X150360000Y-113553212D01*
X150316383Y-113333933D01*
X150230824Y-113127376D01*
X150106612Y-112941480D01*
X149948520Y-112783388D01*
X149762624Y-112659176D01*
X149556067Y-112573617D01*
X149336788Y-112530000D01*
X149113212Y-112530000D01*
X148893933Y-112573617D01*
X148687376Y-112659176D01*
X148590000Y-112724241D01*
X148492624Y-112659176D01*
X148286067Y-112573617D01*
X148066788Y-112530000D01*
X147843212Y-112530000D01*
X147623933Y-112573617D01*
X147417376Y-112659176D01*
X147231480Y-112783388D01*
X147073388Y-112941480D01*
X146949176Y-113127376D01*
X146943963Y-113139960D01*
X146853937Y-113005226D01*
X146709774Y-112861063D01*
X146540256Y-112747795D01*
X146351898Y-112669774D01*
X146151939Y-112630000D01*
X145948061Y-112630000D01*
X145748102Y-112669774D01*
X145559744Y-112747795D01*
X145390226Y-112861063D01*
X145246063Y-113005226D01*
X145132795Y-113174744D01*
X145054774Y-113363102D01*
X145015000Y-113563061D01*
X135629739Y-113563061D01*
X135615226Y-113490102D01*
X135537205Y-113301744D01*
X135423937Y-113132226D01*
X135279774Y-112988063D01*
X135110256Y-112874795D01*
X134921898Y-112796774D01*
X134721939Y-112757000D01*
X134518061Y-112757000D01*
X134318102Y-112796774D01*
X134129744Y-112874795D01*
X133960226Y-112988063D01*
X133816063Y-113132226D01*
X133702795Y-113301744D01*
X133624774Y-113490102D01*
X133585000Y-113690061D01*
X133187108Y-113690061D01*
X133187108Y-113635169D01*
X133147334Y-113435210D01*
X133069313Y-113246852D01*
X132956045Y-113077334D01*
X132811882Y-112933171D01*
X132642364Y-112819903D01*
X132454006Y-112741882D01*
X132442512Y-112739596D01*
X132440226Y-112728102D01*
X132362205Y-112539744D01*
X132248937Y-112370226D01*
X132104774Y-112226063D01*
X131935256Y-112112795D01*
X131746898Y-112034774D01*
X131546939Y-111995000D01*
X131343061Y-111995000D01*
X131143102Y-112034774D01*
X130954744Y-112112795D01*
X130785226Y-112226063D01*
X130641063Y-112370226D01*
X130527795Y-112539744D01*
X130449774Y-112728102D01*
X130410000Y-112928061D01*
X129631772Y-112928061D01*
X129564774Y-112861063D01*
X129395256Y-112747795D01*
X129206898Y-112669774D01*
X129006939Y-112630000D01*
X128803061Y-112630000D01*
X128603102Y-112669774D01*
X128414744Y-112747795D01*
X128245226Y-112861063D01*
X128101063Y-113005226D01*
X127987795Y-113174744D01*
X127909774Y-113363102D01*
X127870000Y-113563061D01*
X122101772Y-113563061D01*
X122034774Y-113496063D01*
X121865256Y-113382795D01*
X121676898Y-113304774D01*
X121476939Y-113265000D01*
X121273061Y-113265000D01*
X121073102Y-113304774D01*
X120884744Y-113382795D01*
X120715226Y-113496063D01*
X120571063Y-113640226D01*
X120457795Y-113809744D01*
X120379774Y-113998102D01*
X120340000Y-114198061D01*
X112160000Y-114198061D01*
X112120226Y-113998102D01*
X112042205Y-113809744D01*
X111928937Y-113640226D01*
X111784774Y-113496063D01*
X111615256Y-113382795D01*
X111426898Y-113304774D01*
X111226939Y-113265000D01*
X111023061Y-113265000D01*
X110823102Y-113304774D01*
X110634744Y-113382795D01*
X110465226Y-113496063D01*
X110321063Y-113640226D01*
X110207795Y-113809744D01*
X110129774Y-113998102D01*
X110090000Y-114198061D01*
X102997000Y-114198061D01*
X102997000Y-112928061D01*
X113900000Y-112928061D01*
X113900000Y-113131939D01*
X113939774Y-113331898D01*
X114017795Y-113520256D01*
X114131063Y-113689774D01*
X114275226Y-113833937D01*
X114444744Y-113947205D01*
X114633102Y-114025226D01*
X114833061Y-114065000D01*
X115036939Y-114065000D01*
X115236898Y-114025226D01*
X115425256Y-113947205D01*
X115594774Y-113833937D01*
X115738937Y-113689774D01*
X115852205Y-113520256D01*
X115930226Y-113331898D01*
X115970000Y-113131939D01*
X115970000Y-112928061D01*
X115930226Y-112728102D01*
X115852205Y-112539744D01*
X115738937Y-112370226D01*
X115594774Y-112226063D01*
X115425256Y-112112795D01*
X115236898Y-112034774D01*
X115036939Y-111995000D01*
X114833061Y-111995000D01*
X114633102Y-112034774D01*
X114444744Y-112112795D01*
X114275226Y-112226063D01*
X114131063Y-112370226D01*
X114017795Y-112539744D01*
X113939774Y-112728102D01*
X113900000Y-112928061D01*
X102997000Y-112928061D01*
X102997000Y-111658061D01*
X118345000Y-111658061D01*
X118345000Y-111861939D01*
X118384774Y-112061898D01*
X118462795Y-112250256D01*
X118576063Y-112419774D01*
X118720226Y-112563937D01*
X118889744Y-112677205D01*
X119078102Y-112755226D01*
X119278061Y-112795000D01*
X119481939Y-112795000D01*
X119681898Y-112755226D01*
X119870256Y-112677205D01*
X120039774Y-112563937D01*
X120183937Y-112419774D01*
X120297205Y-112250256D01*
X120375226Y-112061898D01*
X120415000Y-111861939D01*
X120415000Y-111658061D01*
X122409000Y-111658061D01*
X122409000Y-111861939D01*
X122448774Y-112061898D01*
X122526795Y-112250256D01*
X122640063Y-112419774D01*
X122784226Y-112563937D01*
X122953744Y-112677205D01*
X123142102Y-112755226D01*
X123342061Y-112795000D01*
X123545939Y-112795000D01*
X123745898Y-112755226D01*
X123934256Y-112677205D01*
X124103774Y-112563937D01*
X124247937Y-112419774D01*
X124361205Y-112250256D01*
X124439226Y-112061898D01*
X124479000Y-111861939D01*
X124479000Y-111658061D01*
X124439226Y-111458102D01*
X124361205Y-111269744D01*
X124247937Y-111100226D01*
X124103774Y-110956063D01*
X123934256Y-110842795D01*
X123745898Y-110764774D01*
X123545939Y-110725000D01*
X123342061Y-110725000D01*
X123142102Y-110764774D01*
X122953744Y-110842795D01*
X122784226Y-110956063D01*
X122640063Y-111100226D01*
X122526795Y-111269744D01*
X122448774Y-111458102D01*
X122409000Y-111658061D01*
X120415000Y-111658061D01*
X120375226Y-111458102D01*
X120297205Y-111269744D01*
X120183937Y-111100226D01*
X120039774Y-110956063D01*
X119870256Y-110842795D01*
X119681898Y-110764774D01*
X119481939Y-110725000D01*
X119278061Y-110725000D01*
X119078102Y-110764774D01*
X118889744Y-110842795D01*
X118720226Y-110956063D01*
X118576063Y-111100226D01*
X118462795Y-111269744D01*
X118384774Y-111458102D01*
X118345000Y-111658061D01*
X102997000Y-111658061D01*
X102997000Y-110388061D01*
X127870000Y-110388061D01*
X127870000Y-110591939D01*
X127909774Y-110791898D01*
X127987795Y-110980256D01*
X128101063Y-111149774D01*
X128245226Y-111293937D01*
X128414744Y-111407205D01*
X128603102Y-111485226D01*
X128803061Y-111525000D01*
X129006939Y-111525000D01*
X129206898Y-111485226D01*
X129395256Y-111407205D01*
X129564774Y-111293937D01*
X129708937Y-111149774D01*
X129822205Y-110980256D01*
X129900226Y-110791898D01*
X129940000Y-110591939D01*
X129940000Y-110388061D01*
X129900226Y-110188102D01*
X129822205Y-109999744D01*
X129708937Y-109830226D01*
X129564774Y-109686063D01*
X129395256Y-109572795D01*
X129206898Y-109494774D01*
X129006939Y-109455000D01*
X128803061Y-109455000D01*
X128603102Y-109494774D01*
X128414744Y-109572795D01*
X128245226Y-109686063D01*
X128101063Y-109830226D01*
X127987795Y-109999744D01*
X127909774Y-110188102D01*
X127870000Y-110388061D01*
X102997000Y-110388061D01*
X102997000Y-105943061D01*
X113900000Y-105943061D01*
X113900000Y-106146939D01*
X113939774Y-106346898D01*
X114017795Y-106535256D01*
X114131063Y-106704774D01*
X114275226Y-106848937D01*
X114444744Y-106962205D01*
X114633102Y-107040226D01*
X114833061Y-107080000D01*
X115036939Y-107080000D01*
X115236898Y-107040226D01*
X115425256Y-106962205D01*
X115594774Y-106848937D01*
X115738937Y-106704774D01*
X115852205Y-106535256D01*
X115930226Y-106346898D01*
X115970000Y-106146939D01*
X115970000Y-105943061D01*
X115930226Y-105743102D01*
X115852205Y-105554744D01*
X115738937Y-105385226D01*
X115594774Y-105241063D01*
X115425256Y-105127795D01*
X115236898Y-105049774D01*
X115036939Y-105010000D01*
X114833061Y-105010000D01*
X114633102Y-105049774D01*
X114444744Y-105127795D01*
X114275226Y-105241063D01*
X114131063Y-105385226D01*
X114017795Y-105554744D01*
X113939774Y-105743102D01*
X113900000Y-105943061D01*
X102997000Y-105943061D01*
X102997000Y-102133061D01*
X124614401Y-102133061D01*
X124614401Y-102336939D01*
X124654175Y-102536898D01*
X124732196Y-102725256D01*
X124845464Y-102894774D01*
X124989627Y-103038937D01*
X125159145Y-103152205D01*
X125347503Y-103230226D01*
X125547462Y-103270000D01*
X125751340Y-103270000D01*
X125951299Y-103230226D01*
X126139657Y-103152205D01*
X126309175Y-103038937D01*
X126453338Y-102894774D01*
X126566606Y-102725256D01*
X126644627Y-102536898D01*
X126684401Y-102336939D01*
X126684401Y-102133061D01*
X126644627Y-101933102D01*
X126566606Y-101744744D01*
X126453338Y-101575226D01*
X126309175Y-101431063D01*
X126139657Y-101317795D01*
X125951299Y-101239774D01*
X125751340Y-101200000D01*
X125547462Y-101200000D01*
X125347503Y-101239774D01*
X125159145Y-101317795D01*
X124989627Y-101431063D01*
X124845464Y-101575226D01*
X124732196Y-101744744D01*
X124654175Y-101933102D01*
X124614401Y-102133061D01*
X102997000Y-102133061D01*
X102997000Y-98958061D01*
X113900000Y-98958061D01*
X113900000Y-99161939D01*
X113939774Y-99361898D01*
X114017795Y-99550256D01*
X114131063Y-99719774D01*
X114275226Y-99863937D01*
X114444744Y-99977205D01*
X114633102Y-100055226D01*
X114833061Y-100095000D01*
X115036939Y-100095000D01*
X115236898Y-100055226D01*
X115425256Y-99977205D01*
X115594774Y-99863937D01*
X115738937Y-99719774D01*
X115852205Y-99550256D01*
X115930226Y-99361898D01*
X115970000Y-99161939D01*
X115970000Y-98958061D01*
X115930226Y-98758102D01*
X115852205Y-98569744D01*
X115738937Y-98400226D01*
X115594774Y-98256063D01*
X115425256Y-98142795D01*
X115236898Y-98064774D01*
X115036939Y-98025000D01*
X114833061Y-98025000D01*
X114633102Y-98064774D01*
X114444744Y-98142795D01*
X114275226Y-98256063D01*
X114131063Y-98400226D01*
X114017795Y-98569744D01*
X113939774Y-98758102D01*
X113900000Y-98958061D01*
X102997000Y-98958061D01*
X102997000Y-90068061D01*
X127870000Y-90068061D01*
X127870000Y-90271939D01*
X127909774Y-90471898D01*
X127987795Y-90660256D01*
X128101063Y-90829774D01*
X128245226Y-90973937D01*
X128414744Y-91087205D01*
X128603102Y-91165226D01*
X128803061Y-91205000D01*
X129006939Y-91205000D01*
X129206898Y-91165226D01*
X129395256Y-91087205D01*
X129564774Y-90973937D01*
X129708937Y-90829774D01*
X129822205Y-90660256D01*
X129900226Y-90471898D01*
X129940000Y-90271939D01*
X129940000Y-90068061D01*
X129900226Y-89868102D01*
X129822205Y-89679744D01*
X129708937Y-89510226D01*
X129564774Y-89366063D01*
X129395256Y-89252795D01*
X129206898Y-89174774D01*
X129006939Y-89135000D01*
X128803061Y-89135000D01*
X128603102Y-89174774D01*
X128414744Y-89252795D01*
X128245226Y-89366063D01*
X128101063Y-89510226D01*
X127987795Y-89679744D01*
X127909774Y-89868102D01*
X127870000Y-90068061D01*
X102997000Y-90068061D01*
X102997000Y-80543061D01*
X123425000Y-80543061D01*
X123425000Y-80746939D01*
X123464774Y-80946898D01*
X123542795Y-81135256D01*
X123656063Y-81304774D01*
X123800226Y-81448937D01*
X123969744Y-81562205D01*
X124158102Y-81640226D01*
X124358061Y-81680000D01*
X124561939Y-81680000D01*
X124761898Y-81640226D01*
X124950256Y-81562205D01*
X125119774Y-81448937D01*
X125263937Y-81304774D01*
X125377205Y-81135256D01*
X125455226Y-80946898D01*
X125495000Y-80746939D01*
X125495000Y-80543061D01*
X125965000Y-80543061D01*
X125965000Y-80746939D01*
X126004774Y-80946898D01*
X126082795Y-81135256D01*
X126196063Y-81304774D01*
X126340226Y-81448937D01*
X126509744Y-81562205D01*
X126698102Y-81640226D01*
X126898061Y-81680000D01*
X127101939Y-81680000D01*
X127301898Y-81640226D01*
X127490256Y-81562205D01*
X127659774Y-81448937D01*
X127803937Y-81304774D01*
X127917205Y-81135256D01*
X127995226Y-80946898D01*
X128035000Y-80746939D01*
X128035000Y-80543061D01*
X128505000Y-80543061D01*
X128505000Y-80746939D01*
X128544774Y-80946898D01*
X128622795Y-81135256D01*
X128736063Y-81304774D01*
X128880226Y-81448937D01*
X129049744Y-81562205D01*
X129238102Y-81640226D01*
X129438061Y-81680000D01*
X129641939Y-81680000D01*
X129841898Y-81640226D01*
X130030256Y-81562205D01*
X130199774Y-81448937D01*
X130343937Y-81304774D01*
X130457205Y-81135256D01*
X130535226Y-80946898D01*
X130575000Y-80746939D01*
X130575000Y-80543061D01*
X130535226Y-80343102D01*
X130457205Y-80154744D01*
X130343937Y-79985226D01*
X130199774Y-79841063D01*
X130030256Y-79727795D01*
X129841898Y-79649774D01*
X129641939Y-79610000D01*
X129438061Y-79610000D01*
X129238102Y-79649774D01*
X129049744Y-79727795D01*
X128880226Y-79841063D01*
X128736063Y-79985226D01*
X128622795Y-80154744D01*
X128544774Y-80343102D01*
X128505000Y-80543061D01*
X128035000Y-80543061D01*
X127995226Y-80343102D01*
X127917205Y-80154744D01*
X127803937Y-79985226D01*
X127659774Y-79841063D01*
X127490256Y-79727795D01*
X127301898Y-79649774D01*
X127101939Y-79610000D01*
X126898061Y-79610000D01*
X126698102Y-79649774D01*
X126509744Y-79727795D01*
X126340226Y-79841063D01*
X126196063Y-79985226D01*
X126082795Y-80154744D01*
X126004774Y-80343102D01*
X125965000Y-80543061D01*
X125495000Y-80543061D01*
X125455226Y-80343102D01*
X125377205Y-80154744D01*
X125263937Y-79985226D01*
X125119774Y-79841063D01*
X124950256Y-79727795D01*
X124761898Y-79649774D01*
X124561939Y-79610000D01*
X124358061Y-79610000D01*
X124158102Y-79649774D01*
X123969744Y-79727795D01*
X123800226Y-79841063D01*
X123656063Y-79985226D01*
X123542795Y-80154744D01*
X123464774Y-80343102D01*
X123425000Y-80543061D01*
X102997000Y-80543061D01*
X102997000Y-68478061D01*
X129775000Y-68478061D01*
X129775000Y-68681939D01*
X129814774Y-68881898D01*
X129892795Y-69070256D01*
X130006063Y-69239774D01*
X130150226Y-69383937D01*
X130319744Y-69497205D01*
X130508102Y-69575226D01*
X130708061Y-69615000D01*
X130911939Y-69615000D01*
X131111898Y-69575226D01*
X131300256Y-69497205D01*
X131469774Y-69383937D01*
X131613937Y-69239774D01*
X131727205Y-69070256D01*
X131805226Y-68881898D01*
X131845000Y-68681939D01*
X131845000Y-68478061D01*
X131805226Y-68278102D01*
X131727205Y-68089744D01*
X131613937Y-67920226D01*
X131469774Y-67776063D01*
X131300256Y-67662795D01*
X131111898Y-67584774D01*
X130911939Y-67545000D01*
X130708061Y-67545000D01*
X130508102Y-67584774D01*
X130319744Y-67662795D01*
X130150226Y-67776063D01*
X130006063Y-67920226D01*
X129892795Y-68089744D01*
X129814774Y-68278102D01*
X129775000Y-68478061D01*
X102997000Y-68478061D01*
X102997000Y-66802000D01*
X153543000Y-66802000D01*
X153543000Y-149098000D01*
G37*
%TD.AperFunction*%
%TD*%
M02*
