%TF.GenerationSoftware,KiCad,Pcbnew,(5.1.9)-1*%
%TF.CreationDate,2021-04-18T17:00:14-02:30*%
%TF.ProjectId,flamingo,666c616d-696e-4676-9f2e-6b696361645f,rev?*%
%TF.SameCoordinates,Original*%
%TF.FileFunction,Copper,L1,Top*%
%TF.FilePolarity,Positive*%
%FSLAX46Y46*%
G04 Gerber Fmt 4.6, Leading zero omitted, Abs format (unit mm)*
G04 Created by KiCad (PCBNEW (5.1.9)-1) date 2021-04-18 17:00:14*
%MOMM*%
%LPD*%
G01*
G04 APERTURE LIST*
%TA.AperFunction,SMDPad,CuDef*%
%ADD10R,1.470000X0.895000*%
%TD*%
%TA.AperFunction,SMDPad,CuDef*%
%ADD11R,1.050000X0.450000*%
%TD*%
%TA.AperFunction,SMDPad,CuDef*%
%ADD12R,2.510000X1.000000*%
%TD*%
%TA.AperFunction,SMDPad,CuDef*%
%ADD13R,1.000000X2.510000*%
%TD*%
%TA.AperFunction,SMDPad,CuDef*%
%ADD14R,0.800000X0.900000*%
%TD*%
%TA.AperFunction,SMDPad,CuDef*%
%ADD15R,0.650000X1.560000*%
%TD*%
%TA.AperFunction,SMDPad,CuDef*%
%ADD16R,0.863600X0.558800*%
%TD*%
%TA.AperFunction,SMDPad,CuDef*%
%ADD17R,0.558800X0.863600*%
%TD*%
%TA.AperFunction,SMDPad,CuDef*%
%ADD18R,0.900000X1.700000*%
%TD*%
%TA.AperFunction,ComponentPad*%
%ADD19O,1.000000X1.000000*%
%TD*%
%TA.AperFunction,ComponentPad*%
%ADD20R,1.000000X1.000000*%
%TD*%
%TA.AperFunction,ViaPad*%
%ADD21C,0.800000*%
%TD*%
%TA.AperFunction,Conductor*%
%ADD22C,0.250000*%
%TD*%
%TA.AperFunction,Conductor*%
%ADD23C,0.254000*%
%TD*%
%TA.AperFunction,Conductor*%
%ADD24C,0.100000*%
%TD*%
G04 APERTURE END LIST*
D10*
%TO.P,U3,17*%
%TO.N,GND*%
X112930000Y-138357500D03*
X112930000Y-139252500D03*
X112930000Y-140147500D03*
X112930000Y-141042500D03*
X114400000Y-138357500D03*
X114400000Y-139252500D03*
X114400000Y-140147500D03*
X114400000Y-141042500D03*
D11*
%TO.P,U3,16*%
X116440000Y-137425000D03*
%TO.P,U3,15*%
X116440000Y-138075000D03*
%TO.P,U3,14*%
%TO.N,Net-(C303-Pad1)*%
X116440000Y-138725000D03*
%TO.P,U3,13*%
%TO.N,Net-(C303-Pad2)*%
X116440000Y-139375000D03*
%TO.P,U3,12*%
%TO.N,Net-(C302-Pad1)*%
X116440000Y-140025000D03*
%TO.P,U3,11*%
%TO.N,VCC*%
X116440000Y-140675000D03*
%TO.P,U3,10*%
%TO.N,OUT2_MOTOR1*%
X116440000Y-141325000D03*
%TO.P,U3,9*%
%TO.N,GND*%
X116440000Y-141975000D03*
%TO.P,U3,8*%
%TO.N,OUT1_MOTOR1*%
X110890000Y-141975000D03*
%TO.P,U3,7*%
%TO.N,GND*%
X110890000Y-141325000D03*
%TO.P,U3,6*%
X110890000Y-140675000D03*
%TO.P,U3,5*%
%TO.N,VCC*%
X110890000Y-140025000D03*
%TO.P,U3,4*%
%TO.N,PA2_nFAULT*%
X110890000Y-139375000D03*
%TO.P,U3,3*%
%TO.N,PA3_nSLEEP*%
X110890000Y-138725000D03*
%TO.P,U3,2*%
%TO.N,PA4_PHIN2*%
X110890000Y-138075000D03*
%TO.P,U3,1*%
%TO.N,PA1_TIM2CH2*%
X110890000Y-137425000D03*
%TD*%
D10*
%TO.P,U4,17*%
%TO.N,GND*%
X141505000Y-138357500D03*
X141505000Y-139252500D03*
X141505000Y-140147500D03*
X141505000Y-141042500D03*
X142975000Y-138357500D03*
X142975000Y-139252500D03*
X142975000Y-140147500D03*
X142975000Y-141042500D03*
D11*
%TO.P,U4,16*%
X145015000Y-137425000D03*
%TO.P,U4,15*%
X145015000Y-138075000D03*
%TO.P,U4,14*%
%TO.N,Net-(C403-Pad1)*%
X145015000Y-138725000D03*
%TO.P,U4,13*%
%TO.N,Net-(C403-Pad2)*%
X145015000Y-139375000D03*
%TO.P,U4,12*%
%TO.N,Net-(C402-Pad2)*%
X145015000Y-140025000D03*
%TO.P,U4,11*%
%TO.N,VCC*%
X145015000Y-140675000D03*
%TO.P,U4,10*%
%TO.N,OUT2_MOTOR2*%
X145015000Y-141325000D03*
%TO.P,U4,9*%
%TO.N,GND*%
X145015000Y-141975000D03*
%TO.P,U4,8*%
%TO.N,OUT1_MOTOR2*%
X139465000Y-141975000D03*
%TO.P,U4,7*%
%TO.N,GND*%
X139465000Y-141325000D03*
%TO.P,U4,6*%
X139465000Y-140675000D03*
%TO.P,U4,5*%
%TO.N,VCC*%
X139465000Y-140025000D03*
%TO.P,U4,4*%
%TO.N,PA5_nFAULT*%
X139465000Y-139375000D03*
%TO.P,U4,3*%
%TO.N,PA6_nSLEEP*%
X139465000Y-138725000D03*
%TO.P,U4,2*%
%TO.N,PA7_PHIN2*%
X139465000Y-138075000D03*
%TO.P,U4,1*%
%TO.N,PA0_TIM2CH1*%
X139465000Y-137425000D03*
%TD*%
%TO.P,C402,2*%
%TO.N,Net-(C402-Pad2)*%
%TA.AperFunction,SMDPad,CuDef*%
G36*
G01*
X149762500Y-140732500D02*
X149762500Y-141207500D01*
G75*
G02*
X149525000Y-141445000I-237500J0D01*
G01*
X148925000Y-141445000D01*
G75*
G02*
X148687500Y-141207500I0J237500D01*
G01*
X148687500Y-140732500D01*
G75*
G02*
X148925000Y-140495000I237500J0D01*
G01*
X149525000Y-140495000D01*
G75*
G02*
X149762500Y-140732500I0J-237500D01*
G01*
G37*
%TD.AperFunction*%
%TO.P,C402,1*%
%TO.N,VCC*%
%TA.AperFunction,SMDPad,CuDef*%
G36*
G01*
X151487500Y-140732500D02*
X151487500Y-141207500D01*
G75*
G02*
X151250000Y-141445000I-237500J0D01*
G01*
X150650000Y-141445000D01*
G75*
G02*
X150412500Y-141207500I0J237500D01*
G01*
X150412500Y-140732500D01*
G75*
G02*
X150650000Y-140495000I237500J0D01*
G01*
X151250000Y-140495000D01*
G75*
G02*
X151487500Y-140732500I0J-237500D01*
G01*
G37*
%TD.AperFunction*%
%TD*%
D12*
%TO.P,J4,3*%
%TO.N,GND*%
X149995000Y-107950000D03*
%TO.P,J4,1*%
%TO.N,PB4_USART2_RX*%
X149995000Y-102870000D03*
%TO.P,J4,2*%
%TO.N,PB3_USART2_TX*%
X146685000Y-105410000D03*
%TD*%
%TO.P,R5,2*%
%TO.N,RST_SW*%
%TA.AperFunction,SMDPad,CuDef*%
G36*
G01*
X109617500Y-122067500D02*
X110092500Y-122067500D01*
G75*
G02*
X110330000Y-122305000I0J-237500D01*
G01*
X110330000Y-122805000D01*
G75*
G02*
X110092500Y-123042500I-237500J0D01*
G01*
X109617500Y-123042500D01*
G75*
G02*
X109380000Y-122805000I0J237500D01*
G01*
X109380000Y-122305000D01*
G75*
G02*
X109617500Y-122067500I237500J0D01*
G01*
G37*
%TD.AperFunction*%
%TO.P,R5,1*%
%TO.N,+3V3*%
%TA.AperFunction,SMDPad,CuDef*%
G36*
G01*
X109617500Y-120242500D02*
X110092500Y-120242500D01*
G75*
G02*
X110330000Y-120480000I0J-237500D01*
G01*
X110330000Y-120980000D01*
G75*
G02*
X110092500Y-121217500I-237500J0D01*
G01*
X109617500Y-121217500D01*
G75*
G02*
X109380000Y-120980000I0J237500D01*
G01*
X109380000Y-120480000D01*
G75*
G02*
X109617500Y-120242500I237500J0D01*
G01*
G37*
%TD.AperFunction*%
%TD*%
D13*
%TO.P,J3,1*%
%TO.N,OUT1_MOTOR2*%
X140970000Y-145415000D03*
%TO.P,J3,2*%
%TO.N,OUT2_MOTOR2*%
X143510000Y-148725000D03*
%TD*%
%TO.P,J2,1*%
%TO.N,OUT1_MOTOR1*%
X111760000Y-145415000D03*
%TO.P,J2,2*%
%TO.N,OUT2_MOTOR1*%
X114300000Y-148725000D03*
%TD*%
%TO.P,C400,2*%
%TO.N,GND*%
%TA.AperFunction,SMDPad,CuDef*%
G36*
G01*
X148759999Y-145337500D02*
X150960001Y-145337500D01*
G75*
G02*
X151210000Y-145587499I0J-249999D01*
G01*
X151210000Y-146412501D01*
G75*
G02*
X150960001Y-146662500I-249999J0D01*
G01*
X148759999Y-146662500D01*
G75*
G02*
X148510000Y-146412501I0J249999D01*
G01*
X148510000Y-145587499D01*
G75*
G02*
X148759999Y-145337500I249999J0D01*
G01*
G37*
%TD.AperFunction*%
%TO.P,C400,1*%
%TO.N,VCC*%
%TA.AperFunction,SMDPad,CuDef*%
G36*
G01*
X148759999Y-142212500D02*
X150960001Y-142212500D01*
G75*
G02*
X151210000Y-142462499I0J-249999D01*
G01*
X151210000Y-143287501D01*
G75*
G02*
X150960001Y-143537500I-249999J0D01*
G01*
X148759999Y-143537500D01*
G75*
G02*
X148510000Y-143287501I0J249999D01*
G01*
X148510000Y-142462499D01*
G75*
G02*
X148759999Y-142212500I249999J0D01*
G01*
G37*
%TD.AperFunction*%
%TD*%
%TO.P,C300,2*%
%TO.N,GND*%
%TA.AperFunction,SMDPad,CuDef*%
G36*
G01*
X120184999Y-145972500D02*
X122385001Y-145972500D01*
G75*
G02*
X122635000Y-146222499I0J-249999D01*
G01*
X122635000Y-147047501D01*
G75*
G02*
X122385001Y-147297500I-249999J0D01*
G01*
X120184999Y-147297500D01*
G75*
G02*
X119935000Y-147047501I0J249999D01*
G01*
X119935000Y-146222499D01*
G75*
G02*
X120184999Y-145972500I249999J0D01*
G01*
G37*
%TD.AperFunction*%
%TO.P,C300,1*%
%TO.N,VCC*%
%TA.AperFunction,SMDPad,CuDef*%
G36*
G01*
X120184999Y-142847500D02*
X122385001Y-142847500D01*
G75*
G02*
X122635000Y-143097499I0J-249999D01*
G01*
X122635000Y-143922501D01*
G75*
G02*
X122385001Y-144172500I-249999J0D01*
G01*
X120184999Y-144172500D01*
G75*
G02*
X119935000Y-143922501I0J249999D01*
G01*
X119935000Y-143097499D01*
G75*
G02*
X120184999Y-142847500I249999J0D01*
G01*
G37*
%TD.AperFunction*%
%TD*%
%TO.P,C202,2*%
%TO.N,GND*%
%TA.AperFunction,SMDPad,CuDef*%
G36*
G01*
X125967500Y-79457500D02*
X125492500Y-79457500D01*
G75*
G02*
X125255000Y-79220000I0J237500D01*
G01*
X125255000Y-78620000D01*
G75*
G02*
X125492500Y-78382500I237500J0D01*
G01*
X125967500Y-78382500D01*
G75*
G02*
X126205000Y-78620000I0J-237500D01*
G01*
X126205000Y-79220000D01*
G75*
G02*
X125967500Y-79457500I-237500J0D01*
G01*
G37*
%TD.AperFunction*%
%TO.P,C202,1*%
%TO.N,+3V3*%
%TA.AperFunction,SMDPad,CuDef*%
G36*
G01*
X125967500Y-81182500D02*
X125492500Y-81182500D01*
G75*
G02*
X125255000Y-80945000I0J237500D01*
G01*
X125255000Y-80345000D01*
G75*
G02*
X125492500Y-80107500I237500J0D01*
G01*
X125967500Y-80107500D01*
G75*
G02*
X126205000Y-80345000I0J-237500D01*
G01*
X126205000Y-80945000D01*
G75*
G02*
X125967500Y-81182500I-237500J0D01*
G01*
G37*
%TD.AperFunction*%
%TD*%
%TO.P,C201,2*%
%TO.N,GND*%
%TA.AperFunction,SMDPad,CuDef*%
G36*
G01*
X128507500Y-79457500D02*
X128032500Y-79457500D01*
G75*
G02*
X127795000Y-79220000I0J237500D01*
G01*
X127795000Y-78620000D01*
G75*
G02*
X128032500Y-78382500I237500J0D01*
G01*
X128507500Y-78382500D01*
G75*
G02*
X128745000Y-78620000I0J-237500D01*
G01*
X128745000Y-79220000D01*
G75*
G02*
X128507500Y-79457500I-237500J0D01*
G01*
G37*
%TD.AperFunction*%
%TO.P,C201,1*%
%TO.N,+3V3*%
%TA.AperFunction,SMDPad,CuDef*%
G36*
G01*
X128507500Y-81182500D02*
X128032500Y-81182500D01*
G75*
G02*
X127795000Y-80945000I0J237500D01*
G01*
X127795000Y-80345000D01*
G75*
G02*
X128032500Y-80107500I237500J0D01*
G01*
X128507500Y-80107500D01*
G75*
G02*
X128745000Y-80345000I0J-237500D01*
G01*
X128745000Y-80945000D01*
G75*
G02*
X128507500Y-81182500I-237500J0D01*
G01*
G37*
%TD.AperFunction*%
%TD*%
%TO.P,C200,2*%
%TO.N,GND*%
%TA.AperFunction,SMDPad,CuDef*%
G36*
G01*
X131047500Y-79457500D02*
X130572500Y-79457500D01*
G75*
G02*
X130335000Y-79220000I0J237500D01*
G01*
X130335000Y-78620000D01*
G75*
G02*
X130572500Y-78382500I237500J0D01*
G01*
X131047500Y-78382500D01*
G75*
G02*
X131285000Y-78620000I0J-237500D01*
G01*
X131285000Y-79220000D01*
G75*
G02*
X131047500Y-79457500I-237500J0D01*
G01*
G37*
%TD.AperFunction*%
%TO.P,C200,1*%
%TO.N,+3V3*%
%TA.AperFunction,SMDPad,CuDef*%
G36*
G01*
X131047500Y-81182500D02*
X130572500Y-81182500D01*
G75*
G02*
X130335000Y-80945000I0J237500D01*
G01*
X130335000Y-80345000D01*
G75*
G02*
X130572500Y-80107500I237500J0D01*
G01*
X131047500Y-80107500D01*
G75*
G02*
X131285000Y-80345000I0J-237500D01*
G01*
X131285000Y-80945000D01*
G75*
G02*
X131047500Y-81182500I-237500J0D01*
G01*
G37*
%TD.AperFunction*%
%TD*%
%TO.P,C103,2*%
%TO.N,GND*%
%TA.AperFunction,SMDPad,CuDef*%
G36*
G01*
X137077500Y-124697500D02*
X137077500Y-124222500D01*
G75*
G02*
X137315000Y-123985000I237500J0D01*
G01*
X137915000Y-123985000D01*
G75*
G02*
X138152500Y-124222500I0J-237500D01*
G01*
X138152500Y-124697500D01*
G75*
G02*
X137915000Y-124935000I-237500J0D01*
G01*
X137315000Y-124935000D01*
G75*
G02*
X137077500Y-124697500I0J237500D01*
G01*
G37*
%TD.AperFunction*%
%TO.P,C103,1*%
%TO.N,+3V3*%
%TA.AperFunction,SMDPad,CuDef*%
G36*
G01*
X135352500Y-124697500D02*
X135352500Y-124222500D01*
G75*
G02*
X135590000Y-123985000I237500J0D01*
G01*
X136190000Y-123985000D01*
G75*
G02*
X136427500Y-124222500I0J-237500D01*
G01*
X136427500Y-124697500D01*
G75*
G02*
X136190000Y-124935000I-237500J0D01*
G01*
X135590000Y-124935000D01*
G75*
G02*
X135352500Y-124697500I0J237500D01*
G01*
G37*
%TD.AperFunction*%
%TD*%
%TO.P,C102,2*%
%TO.N,GND*%
%TA.AperFunction,SMDPad,CuDef*%
G36*
G01*
X124062500Y-113747500D02*
X123587500Y-113747500D01*
G75*
G02*
X123350000Y-113510000I0J237500D01*
G01*
X123350000Y-112910000D01*
G75*
G02*
X123587500Y-112672500I237500J0D01*
G01*
X124062500Y-112672500D01*
G75*
G02*
X124300000Y-112910000I0J-237500D01*
G01*
X124300000Y-113510000D01*
G75*
G02*
X124062500Y-113747500I-237500J0D01*
G01*
G37*
%TD.AperFunction*%
%TO.P,C102,1*%
%TO.N,+3V3*%
%TA.AperFunction,SMDPad,CuDef*%
G36*
G01*
X124062500Y-115472500D02*
X123587500Y-115472500D01*
G75*
G02*
X123350000Y-115235000I0J237500D01*
G01*
X123350000Y-114635000D01*
G75*
G02*
X123587500Y-114397500I237500J0D01*
G01*
X124062500Y-114397500D01*
G75*
G02*
X124300000Y-114635000I0J-237500D01*
G01*
X124300000Y-115235000D01*
G75*
G02*
X124062500Y-115472500I-237500J0D01*
G01*
G37*
%TD.AperFunction*%
%TD*%
%TO.P,C101,2*%
%TO.N,GND*%
%TA.AperFunction,SMDPad,CuDef*%
G36*
G01*
X120412500Y-124377500D02*
X120887500Y-124377500D01*
G75*
G02*
X121125000Y-124615000I0J-237500D01*
G01*
X121125000Y-125215000D01*
G75*
G02*
X120887500Y-125452500I-237500J0D01*
G01*
X120412500Y-125452500D01*
G75*
G02*
X120175000Y-125215000I0J237500D01*
G01*
X120175000Y-124615000D01*
G75*
G02*
X120412500Y-124377500I237500J0D01*
G01*
G37*
%TD.AperFunction*%
%TO.P,C101,1*%
%TO.N,+3V3*%
%TA.AperFunction,SMDPad,CuDef*%
G36*
G01*
X120412500Y-122652500D02*
X120887500Y-122652500D01*
G75*
G02*
X121125000Y-122890000I0J-237500D01*
G01*
X121125000Y-123490000D01*
G75*
G02*
X120887500Y-123727500I-237500J0D01*
G01*
X120412500Y-123727500D01*
G75*
G02*
X120175000Y-123490000I0J237500D01*
G01*
X120175000Y-122890000D01*
G75*
G02*
X120412500Y-122652500I237500J0D01*
G01*
G37*
%TD.AperFunction*%
%TD*%
%TO.P,U1,32*%
%TO.N,GND*%
%TA.AperFunction,SMDPad,CuDef*%
G36*
G01*
X125220000Y-117735000D02*
X125220000Y-116485000D01*
G75*
G02*
X125345000Y-116360000I125000J0D01*
G01*
X125595000Y-116360000D01*
G75*
G02*
X125720000Y-116485000I0J-125000D01*
G01*
X125720000Y-117735000D01*
G75*
G02*
X125595000Y-117860000I-125000J0D01*
G01*
X125345000Y-117860000D01*
G75*
G02*
X125220000Y-117735000I0J125000D01*
G01*
G37*
%TD.AperFunction*%
%TO.P,U1,31*%
%TO.N,Net-(U1-Pad31)*%
%TA.AperFunction,SMDPad,CuDef*%
G36*
G01*
X126020000Y-117735000D02*
X126020000Y-116485000D01*
G75*
G02*
X126145000Y-116360000I125000J0D01*
G01*
X126395000Y-116360000D01*
G75*
G02*
X126520000Y-116485000I0J-125000D01*
G01*
X126520000Y-117735000D01*
G75*
G02*
X126395000Y-117860000I-125000J0D01*
G01*
X126145000Y-117860000D01*
G75*
G02*
X126020000Y-117735000I0J125000D01*
G01*
G37*
%TD.AperFunction*%
%TO.P,U1,30*%
%TO.N,PB7_I2C1_SDA*%
%TA.AperFunction,SMDPad,CuDef*%
G36*
G01*
X126820000Y-117735000D02*
X126820000Y-116485000D01*
G75*
G02*
X126945000Y-116360000I125000J0D01*
G01*
X127195000Y-116360000D01*
G75*
G02*
X127320000Y-116485000I0J-125000D01*
G01*
X127320000Y-117735000D01*
G75*
G02*
X127195000Y-117860000I-125000J0D01*
G01*
X126945000Y-117860000D01*
G75*
G02*
X126820000Y-117735000I0J125000D01*
G01*
G37*
%TD.AperFunction*%
%TO.P,U1,29*%
%TO.N,Net-(U1-Pad29)*%
%TA.AperFunction,SMDPad,CuDef*%
G36*
G01*
X127620000Y-117735000D02*
X127620000Y-116485000D01*
G75*
G02*
X127745000Y-116360000I125000J0D01*
G01*
X127995000Y-116360000D01*
G75*
G02*
X128120000Y-116485000I0J-125000D01*
G01*
X128120000Y-117735000D01*
G75*
G02*
X127995000Y-117860000I-125000J0D01*
G01*
X127745000Y-117860000D01*
G75*
G02*
X127620000Y-117735000I0J125000D01*
G01*
G37*
%TD.AperFunction*%
%TO.P,U1,28*%
%TO.N,PB2_CS*%
%TA.AperFunction,SMDPad,CuDef*%
G36*
G01*
X128420000Y-117735000D02*
X128420000Y-116485000D01*
G75*
G02*
X128545000Y-116360000I125000J0D01*
G01*
X128795000Y-116360000D01*
G75*
G02*
X128920000Y-116485000I0J-125000D01*
G01*
X128920000Y-117735000D01*
G75*
G02*
X128795000Y-117860000I-125000J0D01*
G01*
X128545000Y-117860000D01*
G75*
G02*
X128420000Y-117735000I0J125000D01*
G01*
G37*
%TD.AperFunction*%
%TO.P,U1,27*%
%TO.N,PB4_USART2_RX*%
%TA.AperFunction,SMDPad,CuDef*%
G36*
G01*
X129220000Y-117735000D02*
X129220000Y-116485000D01*
G75*
G02*
X129345000Y-116360000I125000J0D01*
G01*
X129595000Y-116360000D01*
G75*
G02*
X129720000Y-116485000I0J-125000D01*
G01*
X129720000Y-117735000D01*
G75*
G02*
X129595000Y-117860000I-125000J0D01*
G01*
X129345000Y-117860000D01*
G75*
G02*
X129220000Y-117735000I0J125000D01*
G01*
G37*
%TD.AperFunction*%
%TO.P,U1,26*%
%TO.N,PB3_USART2_TX*%
%TA.AperFunction,SMDPad,CuDef*%
G36*
G01*
X130020000Y-117735000D02*
X130020000Y-116485000D01*
G75*
G02*
X130145000Y-116360000I125000J0D01*
G01*
X130395000Y-116360000D01*
G75*
G02*
X130520000Y-116485000I0J-125000D01*
G01*
X130520000Y-117735000D01*
G75*
G02*
X130395000Y-117860000I-125000J0D01*
G01*
X130145000Y-117860000D01*
G75*
G02*
X130020000Y-117735000I0J125000D01*
G01*
G37*
%TD.AperFunction*%
%TO.P,U1,25*%
%TO.N,PA15_I2C1_SCL*%
%TA.AperFunction,SMDPad,CuDef*%
G36*
G01*
X130820000Y-117735000D02*
X130820000Y-116485000D01*
G75*
G02*
X130945000Y-116360000I125000J0D01*
G01*
X131195000Y-116360000D01*
G75*
G02*
X131320000Y-116485000I0J-125000D01*
G01*
X131320000Y-117735000D01*
G75*
G02*
X131195000Y-117860000I-125000J0D01*
G01*
X130945000Y-117860000D01*
G75*
G02*
X130820000Y-117735000I0J125000D01*
G01*
G37*
%TD.AperFunction*%
%TO.P,U1,24*%
%TO.N,PA14_SWCLK*%
%TA.AperFunction,SMDPad,CuDef*%
G36*
G01*
X131695000Y-118610000D02*
X131695000Y-118360000D01*
G75*
G02*
X131820000Y-118235000I125000J0D01*
G01*
X133070000Y-118235000D01*
G75*
G02*
X133195000Y-118360000I0J-125000D01*
G01*
X133195000Y-118610000D01*
G75*
G02*
X133070000Y-118735000I-125000J0D01*
G01*
X131820000Y-118735000D01*
G75*
G02*
X131695000Y-118610000I0J125000D01*
G01*
G37*
%TD.AperFunction*%
%TO.P,U1,23*%
%TO.N,PA13_SWDAT*%
%TA.AperFunction,SMDPad,CuDef*%
G36*
G01*
X131695000Y-119410000D02*
X131695000Y-119160000D01*
G75*
G02*
X131820000Y-119035000I125000J0D01*
G01*
X133070000Y-119035000D01*
G75*
G02*
X133195000Y-119160000I0J-125000D01*
G01*
X133195000Y-119410000D01*
G75*
G02*
X133070000Y-119535000I-125000J0D01*
G01*
X131820000Y-119535000D01*
G75*
G02*
X131695000Y-119410000I0J125000D01*
G01*
G37*
%TD.AperFunction*%
%TO.P,U1,22*%
%TO.N,Net-(U1-Pad22)*%
%TA.AperFunction,SMDPad,CuDef*%
G36*
G01*
X131695000Y-120210000D02*
X131695000Y-119960000D01*
G75*
G02*
X131820000Y-119835000I125000J0D01*
G01*
X133070000Y-119835000D01*
G75*
G02*
X133195000Y-119960000I0J-125000D01*
G01*
X133195000Y-120210000D01*
G75*
G02*
X133070000Y-120335000I-125000J0D01*
G01*
X131820000Y-120335000D01*
G75*
G02*
X131695000Y-120210000I0J125000D01*
G01*
G37*
%TD.AperFunction*%
%TO.P,U1,21*%
%TO.N,Net-(U1-Pad21)*%
%TA.AperFunction,SMDPad,CuDef*%
G36*
G01*
X131695000Y-121010000D02*
X131695000Y-120760000D01*
G75*
G02*
X131820000Y-120635000I125000J0D01*
G01*
X133070000Y-120635000D01*
G75*
G02*
X133195000Y-120760000I0J-125000D01*
G01*
X133195000Y-121010000D01*
G75*
G02*
X133070000Y-121135000I-125000J0D01*
G01*
X131820000Y-121135000D01*
G75*
G02*
X131695000Y-121010000I0J125000D01*
G01*
G37*
%TD.AperFunction*%
%TO.P,U1,20*%
%TO.N,Net-(U1-Pad20)*%
%TA.AperFunction,SMDPad,CuDef*%
G36*
G01*
X131695000Y-121810000D02*
X131695000Y-121560000D01*
G75*
G02*
X131820000Y-121435000I125000J0D01*
G01*
X133070000Y-121435000D01*
G75*
G02*
X133195000Y-121560000I0J-125000D01*
G01*
X133195000Y-121810000D01*
G75*
G02*
X133070000Y-121935000I-125000J0D01*
G01*
X131820000Y-121935000D01*
G75*
G02*
X131695000Y-121810000I0J125000D01*
G01*
G37*
%TD.AperFunction*%
%TO.P,U1,19*%
%TO.N,PB4_SW*%
%TA.AperFunction,SMDPad,CuDef*%
G36*
G01*
X131695000Y-122610000D02*
X131695000Y-122360000D01*
G75*
G02*
X131820000Y-122235000I125000J0D01*
G01*
X133070000Y-122235000D01*
G75*
G02*
X133195000Y-122360000I0J-125000D01*
G01*
X133195000Y-122610000D01*
G75*
G02*
X133070000Y-122735000I-125000J0D01*
G01*
X131820000Y-122735000D01*
G75*
G02*
X131695000Y-122610000I0J125000D01*
G01*
G37*
%TD.AperFunction*%
%TO.P,U1,18*%
%TO.N,PA8_MCO*%
%TA.AperFunction,SMDPad,CuDef*%
G36*
G01*
X131695000Y-123410000D02*
X131695000Y-123160000D01*
G75*
G02*
X131820000Y-123035000I125000J0D01*
G01*
X133070000Y-123035000D01*
G75*
G02*
X133195000Y-123160000I0J-125000D01*
G01*
X133195000Y-123410000D01*
G75*
G02*
X133070000Y-123535000I-125000J0D01*
G01*
X131820000Y-123535000D01*
G75*
G02*
X131695000Y-123410000I0J125000D01*
G01*
G37*
%TD.AperFunction*%
%TO.P,U1,17*%
%TO.N,+3V3*%
%TA.AperFunction,SMDPad,CuDef*%
G36*
G01*
X131695000Y-124210000D02*
X131695000Y-123960000D01*
G75*
G02*
X131820000Y-123835000I125000J0D01*
G01*
X133070000Y-123835000D01*
G75*
G02*
X133195000Y-123960000I0J-125000D01*
G01*
X133195000Y-124210000D01*
G75*
G02*
X133070000Y-124335000I-125000J0D01*
G01*
X131820000Y-124335000D01*
G75*
G02*
X131695000Y-124210000I0J125000D01*
G01*
G37*
%TD.AperFunction*%
%TO.P,U1,16*%
%TO.N,GND*%
%TA.AperFunction,SMDPad,CuDef*%
G36*
G01*
X130820000Y-126085000D02*
X130820000Y-124835000D01*
G75*
G02*
X130945000Y-124710000I125000J0D01*
G01*
X131195000Y-124710000D01*
G75*
G02*
X131320000Y-124835000I0J-125000D01*
G01*
X131320000Y-126085000D01*
G75*
G02*
X131195000Y-126210000I-125000J0D01*
G01*
X130945000Y-126210000D01*
G75*
G02*
X130820000Y-126085000I0J125000D01*
G01*
G37*
%TD.AperFunction*%
%TO.P,U1,15*%
%TO.N,PB1_SDO*%
%TA.AperFunction,SMDPad,CuDef*%
G36*
G01*
X130020000Y-126085000D02*
X130020000Y-124835000D01*
G75*
G02*
X130145000Y-124710000I125000J0D01*
G01*
X130395000Y-124710000D01*
G75*
G02*
X130520000Y-124835000I0J-125000D01*
G01*
X130520000Y-126085000D01*
G75*
G02*
X130395000Y-126210000I-125000J0D01*
G01*
X130145000Y-126210000D01*
G75*
G02*
X130020000Y-126085000I0J125000D01*
G01*
G37*
%TD.AperFunction*%
%TO.P,U1,14*%
%TO.N,PB0_RDY_INT*%
%TA.AperFunction,SMDPad,CuDef*%
G36*
G01*
X129220000Y-126085000D02*
X129220000Y-124835000D01*
G75*
G02*
X129345000Y-124710000I125000J0D01*
G01*
X129595000Y-124710000D01*
G75*
G02*
X129720000Y-124835000I0J-125000D01*
G01*
X129720000Y-126085000D01*
G75*
G02*
X129595000Y-126210000I-125000J0D01*
G01*
X129345000Y-126210000D01*
G75*
G02*
X129220000Y-126085000I0J125000D01*
G01*
G37*
%TD.AperFunction*%
%TO.P,U1,13*%
%TO.N,PA7_PHIN2*%
%TA.AperFunction,SMDPad,CuDef*%
G36*
G01*
X128420000Y-126085000D02*
X128420000Y-124835000D01*
G75*
G02*
X128545000Y-124710000I125000J0D01*
G01*
X128795000Y-124710000D01*
G75*
G02*
X128920000Y-124835000I0J-125000D01*
G01*
X128920000Y-126085000D01*
G75*
G02*
X128795000Y-126210000I-125000J0D01*
G01*
X128545000Y-126210000D01*
G75*
G02*
X128420000Y-126085000I0J125000D01*
G01*
G37*
%TD.AperFunction*%
%TO.P,U1,12*%
%TO.N,PA6_nSLEEP*%
%TA.AperFunction,SMDPad,CuDef*%
G36*
G01*
X127620000Y-126085000D02*
X127620000Y-124835000D01*
G75*
G02*
X127745000Y-124710000I125000J0D01*
G01*
X127995000Y-124710000D01*
G75*
G02*
X128120000Y-124835000I0J-125000D01*
G01*
X128120000Y-126085000D01*
G75*
G02*
X127995000Y-126210000I-125000J0D01*
G01*
X127745000Y-126210000D01*
G75*
G02*
X127620000Y-126085000I0J125000D01*
G01*
G37*
%TD.AperFunction*%
%TO.P,U1,11*%
%TO.N,PA5_nFAULT*%
%TA.AperFunction,SMDPad,CuDef*%
G36*
G01*
X126820000Y-126085000D02*
X126820000Y-124835000D01*
G75*
G02*
X126945000Y-124710000I125000J0D01*
G01*
X127195000Y-124710000D01*
G75*
G02*
X127320000Y-124835000I0J-125000D01*
G01*
X127320000Y-126085000D01*
G75*
G02*
X127195000Y-126210000I-125000J0D01*
G01*
X126945000Y-126210000D01*
G75*
G02*
X126820000Y-126085000I0J125000D01*
G01*
G37*
%TD.AperFunction*%
%TO.P,U1,10*%
%TO.N,PA4_PHIN2*%
%TA.AperFunction,SMDPad,CuDef*%
G36*
G01*
X126020000Y-126085000D02*
X126020000Y-124835000D01*
G75*
G02*
X126145000Y-124710000I125000J0D01*
G01*
X126395000Y-124710000D01*
G75*
G02*
X126520000Y-124835000I0J-125000D01*
G01*
X126520000Y-126085000D01*
G75*
G02*
X126395000Y-126210000I-125000J0D01*
G01*
X126145000Y-126210000D01*
G75*
G02*
X126020000Y-126085000I0J125000D01*
G01*
G37*
%TD.AperFunction*%
%TO.P,U1,9*%
%TO.N,PA3_nSLEEP*%
%TA.AperFunction,SMDPad,CuDef*%
G36*
G01*
X125220000Y-126085000D02*
X125220000Y-124835000D01*
G75*
G02*
X125345000Y-124710000I125000J0D01*
G01*
X125595000Y-124710000D01*
G75*
G02*
X125720000Y-124835000I0J-125000D01*
G01*
X125720000Y-126085000D01*
G75*
G02*
X125595000Y-126210000I-125000J0D01*
G01*
X125345000Y-126210000D01*
G75*
G02*
X125220000Y-126085000I0J125000D01*
G01*
G37*
%TD.AperFunction*%
%TO.P,U1,8*%
%TO.N,PA2_nFAULT*%
%TA.AperFunction,SMDPad,CuDef*%
G36*
G01*
X123345000Y-124210000D02*
X123345000Y-123960000D01*
G75*
G02*
X123470000Y-123835000I125000J0D01*
G01*
X124720000Y-123835000D01*
G75*
G02*
X124845000Y-123960000I0J-125000D01*
G01*
X124845000Y-124210000D01*
G75*
G02*
X124720000Y-124335000I-125000J0D01*
G01*
X123470000Y-124335000D01*
G75*
G02*
X123345000Y-124210000I0J125000D01*
G01*
G37*
%TD.AperFunction*%
%TO.P,U1,7*%
%TO.N,PA1_TIM2CH2*%
%TA.AperFunction,SMDPad,CuDef*%
G36*
G01*
X123345000Y-123410000D02*
X123345000Y-123160000D01*
G75*
G02*
X123470000Y-123035000I125000J0D01*
G01*
X124720000Y-123035000D01*
G75*
G02*
X124845000Y-123160000I0J-125000D01*
G01*
X124845000Y-123410000D01*
G75*
G02*
X124720000Y-123535000I-125000J0D01*
G01*
X123470000Y-123535000D01*
G75*
G02*
X123345000Y-123410000I0J125000D01*
G01*
G37*
%TD.AperFunction*%
%TO.P,U1,6*%
%TO.N,PA0_TIM2CH1*%
%TA.AperFunction,SMDPad,CuDef*%
G36*
G01*
X123345000Y-122610000D02*
X123345000Y-122360000D01*
G75*
G02*
X123470000Y-122235000I125000J0D01*
G01*
X124720000Y-122235000D01*
G75*
G02*
X124845000Y-122360000I0J-125000D01*
G01*
X124845000Y-122610000D01*
G75*
G02*
X124720000Y-122735000I-125000J0D01*
G01*
X123470000Y-122735000D01*
G75*
G02*
X123345000Y-122610000I0J125000D01*
G01*
G37*
%TD.AperFunction*%
%TO.P,U1,5*%
%TO.N,+3V3*%
%TA.AperFunction,SMDPad,CuDef*%
G36*
G01*
X123345000Y-121810000D02*
X123345000Y-121560000D01*
G75*
G02*
X123470000Y-121435000I125000J0D01*
G01*
X124720000Y-121435000D01*
G75*
G02*
X124845000Y-121560000I0J-125000D01*
G01*
X124845000Y-121810000D01*
G75*
G02*
X124720000Y-121935000I-125000J0D01*
G01*
X123470000Y-121935000D01*
G75*
G02*
X123345000Y-121810000I0J125000D01*
G01*
G37*
%TD.AperFunction*%
%TO.P,U1,4*%
%TO.N,RST_SW*%
%TA.AperFunction,SMDPad,CuDef*%
G36*
G01*
X123345000Y-121010000D02*
X123345000Y-120760000D01*
G75*
G02*
X123470000Y-120635000I125000J0D01*
G01*
X124720000Y-120635000D01*
G75*
G02*
X124845000Y-120760000I0J-125000D01*
G01*
X124845000Y-121010000D01*
G75*
G02*
X124720000Y-121135000I-125000J0D01*
G01*
X123470000Y-121135000D01*
G75*
G02*
X123345000Y-121010000I0J125000D01*
G01*
G37*
%TD.AperFunction*%
%TO.P,U1,3*%
%TO.N,Net-(U1-Pad3)*%
%TA.AperFunction,SMDPad,CuDef*%
G36*
G01*
X123345000Y-120210000D02*
X123345000Y-119960000D01*
G75*
G02*
X123470000Y-119835000I125000J0D01*
G01*
X124720000Y-119835000D01*
G75*
G02*
X124845000Y-119960000I0J-125000D01*
G01*
X124845000Y-120210000D01*
G75*
G02*
X124720000Y-120335000I-125000J0D01*
G01*
X123470000Y-120335000D01*
G75*
G02*
X123345000Y-120210000I0J125000D01*
G01*
G37*
%TD.AperFunction*%
%TO.P,U1,2*%
%TO.N,PF0_STATUSLED*%
%TA.AperFunction,SMDPad,CuDef*%
G36*
G01*
X123345000Y-119410000D02*
X123345000Y-119160000D01*
G75*
G02*
X123470000Y-119035000I125000J0D01*
G01*
X124720000Y-119035000D01*
G75*
G02*
X124845000Y-119160000I0J-125000D01*
G01*
X124845000Y-119410000D01*
G75*
G02*
X124720000Y-119535000I-125000J0D01*
G01*
X123470000Y-119535000D01*
G75*
G02*
X123345000Y-119410000I0J125000D01*
G01*
G37*
%TD.AperFunction*%
%TO.P,U1,1*%
%TO.N,+3V3*%
%TA.AperFunction,SMDPad,CuDef*%
G36*
G01*
X123345000Y-118610000D02*
X123345000Y-118360000D01*
G75*
G02*
X123470000Y-118235000I125000J0D01*
G01*
X124720000Y-118235000D01*
G75*
G02*
X124845000Y-118360000I0J-125000D01*
G01*
X124845000Y-118610000D01*
G75*
G02*
X124720000Y-118735000I-125000J0D01*
G01*
X123470000Y-118735000D01*
G75*
G02*
X123345000Y-118610000I0J125000D01*
G01*
G37*
%TD.AperFunction*%
%TD*%
D14*
%TO.P,Q2,3*%
%TO.N,+3V3*%
X115250000Y-111855000D03*
%TO.P,Q2,2*%
%TO.N,Net-(Q2-Pad2)*%
X114300000Y-109855000D03*
%TO.P,Q2,1*%
%TO.N,PF0_STATUSLED*%
X116200000Y-109855000D03*
%TD*%
D15*
%TO.P,U5,5*%
%TO.N,+3V3*%
X150175000Y-96600000D03*
%TO.P,U5,4*%
%TO.N,Net-(C501-Pad2)*%
X148275000Y-96600000D03*
%TO.P,U5,3*%
%TO.N,VCC*%
X148275000Y-93900000D03*
%TO.P,U5,2*%
%TO.N,GND*%
X149225000Y-93900000D03*
%TO.P,U5,1*%
%TO.N,VCC*%
X150175000Y-93900000D03*
%TD*%
D16*
%TO.P,U2,16*%
%TO.N,GND*%
X124929900Y-87494999D03*
%TO.P,U2,15*%
X124929900Y-86495001D03*
D17*
%TO.P,U2,14*%
X125770000Y-85204300D03*
%TO.P,U2,13*%
%TO.N,+3V3*%
X126770000Y-85204300D03*
%TO.P,U2,12*%
X127770001Y-85204300D03*
%TO.P,U2,11*%
X128769999Y-85204300D03*
%TO.P,U2,10*%
X129770000Y-85204300D03*
%TO.P,U2,9*%
%TO.N,GND*%
X130770000Y-85204300D03*
D16*
%TO.P,U2,8*%
X131610100Y-86495001D03*
%TO.P,U2,7*%
%TO.N,Net-(U2-Pad7)*%
X131610100Y-87494999D03*
D17*
%TO.P,U2,6*%
%TO.N,PB2_CS*%
X130770000Y-88785700D03*
%TO.P,U2,5*%
%TO.N,PA15_I2C1_SCL*%
X129770000Y-88785700D03*
%TO.P,U2,4*%
%TO.N,+3V3*%
X128769999Y-88785700D03*
%TO.P,U2,3*%
%TO.N,PB7_I2C1_SDA*%
X127770001Y-88785700D03*
%TO.P,U2,2*%
%TO.N,PB1_SDO*%
X126770000Y-88785700D03*
%TO.P,U2,1*%
%TO.N,PB0_RDY_INT*%
X125770000Y-88785700D03*
%TD*%
D18*
%TO.P,SW1,2*%
%TO.N,GND*%
X150720000Y-122555000D03*
%TO.P,SW1,1*%
%TO.N,PB4_SW*%
X147320000Y-122555000D03*
%TD*%
%TO.P,SW0,2*%
%TO.N,GND*%
X103075000Y-122555000D03*
%TO.P,SW0,1*%
%TO.N,RST_SW*%
X106475000Y-122555000D03*
%TD*%
%TO.P,R400,2*%
%TO.N,PA5_nFAULT*%
%TA.AperFunction,SMDPad,CuDef*%
G36*
G01*
X135402500Y-139302500D02*
X135402500Y-138827500D01*
G75*
G02*
X135640000Y-138590000I237500J0D01*
G01*
X136140000Y-138590000D01*
G75*
G02*
X136377500Y-138827500I0J-237500D01*
G01*
X136377500Y-139302500D01*
G75*
G02*
X136140000Y-139540000I-237500J0D01*
G01*
X135640000Y-139540000D01*
G75*
G02*
X135402500Y-139302500I0J237500D01*
G01*
G37*
%TD.AperFunction*%
%TO.P,R400,1*%
%TO.N,VCC*%
%TA.AperFunction,SMDPad,CuDef*%
G36*
G01*
X133577500Y-139302500D02*
X133577500Y-138827500D01*
G75*
G02*
X133815000Y-138590000I237500J0D01*
G01*
X134315000Y-138590000D01*
G75*
G02*
X134552500Y-138827500I0J-237500D01*
G01*
X134552500Y-139302500D01*
G75*
G02*
X134315000Y-139540000I-237500J0D01*
G01*
X133815000Y-139540000D01*
G75*
G02*
X133577500Y-139302500I0J237500D01*
G01*
G37*
%TD.AperFunction*%
%TD*%
%TO.P,R300,2*%
%TO.N,PA2_nFAULT*%
%TA.AperFunction,SMDPad,CuDef*%
G36*
G01*
X106747500Y-139302500D02*
X106747500Y-138827500D01*
G75*
G02*
X106985000Y-138590000I237500J0D01*
G01*
X107485000Y-138590000D01*
G75*
G02*
X107722500Y-138827500I0J-237500D01*
G01*
X107722500Y-139302500D01*
G75*
G02*
X107485000Y-139540000I-237500J0D01*
G01*
X106985000Y-139540000D01*
G75*
G02*
X106747500Y-139302500I0J237500D01*
G01*
G37*
%TD.AperFunction*%
%TO.P,R300,1*%
%TO.N,VCC*%
%TA.AperFunction,SMDPad,CuDef*%
G36*
G01*
X104922500Y-139302500D02*
X104922500Y-138827500D01*
G75*
G02*
X105160000Y-138590000I237500J0D01*
G01*
X105660000Y-138590000D01*
G75*
G02*
X105897500Y-138827500I0J-237500D01*
G01*
X105897500Y-139302500D01*
G75*
G02*
X105660000Y-139540000I-237500J0D01*
G01*
X105160000Y-139540000D01*
G75*
G02*
X104922500Y-139302500I0J237500D01*
G01*
G37*
%TD.AperFunction*%
%TD*%
%TO.P,R4,2*%
%TO.N,PB4_SW*%
%TA.AperFunction,SMDPad,CuDef*%
G36*
G01*
X135652500Y-121987500D02*
X136127500Y-121987500D01*
G75*
G02*
X136365000Y-122225000I0J-237500D01*
G01*
X136365000Y-122725000D01*
G75*
G02*
X136127500Y-122962500I-237500J0D01*
G01*
X135652500Y-122962500D01*
G75*
G02*
X135415000Y-122725000I0J237500D01*
G01*
X135415000Y-122225000D01*
G75*
G02*
X135652500Y-121987500I237500J0D01*
G01*
G37*
%TD.AperFunction*%
%TO.P,R4,1*%
%TO.N,+3V3*%
%TA.AperFunction,SMDPad,CuDef*%
G36*
G01*
X135652500Y-120162500D02*
X136127500Y-120162500D01*
G75*
G02*
X136365000Y-120400000I0J-237500D01*
G01*
X136365000Y-120900000D01*
G75*
G02*
X136127500Y-121137500I-237500J0D01*
G01*
X135652500Y-121137500D01*
G75*
G02*
X135415000Y-120900000I0J237500D01*
G01*
X135415000Y-120400000D01*
G75*
G02*
X135652500Y-120162500I237500J0D01*
G01*
G37*
%TD.AperFunction*%
%TD*%
%TO.P,R3,2*%
%TO.N,Net-(D3-Pad2)*%
%TA.AperFunction,SMDPad,CuDef*%
G36*
G01*
X109787500Y-109617500D02*
X109787500Y-110092500D01*
G75*
G02*
X109550000Y-110330000I-237500J0D01*
G01*
X109050000Y-110330000D01*
G75*
G02*
X108812500Y-110092500I0J237500D01*
G01*
X108812500Y-109617500D01*
G75*
G02*
X109050000Y-109380000I237500J0D01*
G01*
X109550000Y-109380000D01*
G75*
G02*
X109787500Y-109617500I0J-237500D01*
G01*
G37*
%TD.AperFunction*%
%TO.P,R3,1*%
%TO.N,Net-(Q2-Pad2)*%
%TA.AperFunction,SMDPad,CuDef*%
G36*
G01*
X111612500Y-109617500D02*
X111612500Y-110092500D01*
G75*
G02*
X111375000Y-110330000I-237500J0D01*
G01*
X110875000Y-110330000D01*
G75*
G02*
X110637500Y-110092500I0J237500D01*
G01*
X110637500Y-109617500D01*
G75*
G02*
X110875000Y-109380000I237500J0D01*
G01*
X111375000Y-109380000D01*
G75*
G02*
X111612500Y-109617500I0J-237500D01*
G01*
G37*
%TD.AperFunction*%
%TD*%
%TO.P,R2,2*%
%TO.N,Net-(D2-Pad2)*%
%TA.AperFunction,SMDPad,CuDef*%
G36*
G01*
X109787500Y-115967500D02*
X109787500Y-116442500D01*
G75*
G02*
X109550000Y-116680000I-237500J0D01*
G01*
X109050000Y-116680000D01*
G75*
G02*
X108812500Y-116442500I0J237500D01*
G01*
X108812500Y-115967500D01*
G75*
G02*
X109050000Y-115730000I237500J0D01*
G01*
X109550000Y-115730000D01*
G75*
G02*
X109787500Y-115967500I0J-237500D01*
G01*
G37*
%TD.AperFunction*%
%TO.P,R2,1*%
%TO.N,+3V3*%
%TA.AperFunction,SMDPad,CuDef*%
G36*
G01*
X111612500Y-115967500D02*
X111612500Y-116442500D01*
G75*
G02*
X111375000Y-116680000I-237500J0D01*
G01*
X110875000Y-116680000D01*
G75*
G02*
X110637500Y-116442500I0J237500D01*
G01*
X110637500Y-115967500D01*
G75*
G02*
X110875000Y-115730000I237500J0D01*
G01*
X111375000Y-115730000D01*
G75*
G02*
X111612500Y-115967500I0J-237500D01*
G01*
G37*
%TD.AperFunction*%
%TD*%
%TO.P,R1,2*%
%TO.N,Net-(D1-Pad2)*%
%TA.AperFunction,SMDPad,CuDef*%
G36*
G01*
X109787500Y-95647500D02*
X109787500Y-96122500D01*
G75*
G02*
X109550000Y-96360000I-237500J0D01*
G01*
X109050000Y-96360000D01*
G75*
G02*
X108812500Y-96122500I0J237500D01*
G01*
X108812500Y-95647500D01*
G75*
G02*
X109050000Y-95410000I237500J0D01*
G01*
X109550000Y-95410000D01*
G75*
G02*
X109787500Y-95647500I0J-237500D01*
G01*
G37*
%TD.AperFunction*%
%TO.P,R1,1*%
%TO.N,Net-(Q1-Pad2)*%
%TA.AperFunction,SMDPad,CuDef*%
G36*
G01*
X111612500Y-95647500D02*
X111612500Y-96122500D01*
G75*
G02*
X111375000Y-96360000I-237500J0D01*
G01*
X110875000Y-96360000D01*
G75*
G02*
X110637500Y-96122500I0J237500D01*
G01*
X110637500Y-95647500D01*
G75*
G02*
X110875000Y-95410000I237500J0D01*
G01*
X111375000Y-95410000D01*
G75*
G02*
X111612500Y-95647500I0J-237500D01*
G01*
G37*
%TD.AperFunction*%
%TD*%
%TO.P,R0,2*%
%TO.N,Net-(D0-Pad2)*%
%TA.AperFunction,SMDPad,CuDef*%
G36*
G01*
X109787500Y-102632500D02*
X109787500Y-103107500D01*
G75*
G02*
X109550000Y-103345000I-237500J0D01*
G01*
X109050000Y-103345000D01*
G75*
G02*
X108812500Y-103107500I0J237500D01*
G01*
X108812500Y-102632500D01*
G75*
G02*
X109050000Y-102395000I237500J0D01*
G01*
X109550000Y-102395000D01*
G75*
G02*
X109787500Y-102632500I0J-237500D01*
G01*
G37*
%TD.AperFunction*%
%TO.P,R0,1*%
%TO.N,Net-(Q0-Pad2)*%
%TA.AperFunction,SMDPad,CuDef*%
G36*
G01*
X111612500Y-102632500D02*
X111612500Y-103107500D01*
G75*
G02*
X111375000Y-103345000I-237500J0D01*
G01*
X110875000Y-103345000D01*
G75*
G02*
X110637500Y-103107500I0J237500D01*
G01*
X110637500Y-102632500D01*
G75*
G02*
X110875000Y-102395000I237500J0D01*
G01*
X111375000Y-102395000D01*
G75*
G02*
X111612500Y-102632500I0J-237500D01*
G01*
G37*
%TD.AperFunction*%
%TD*%
D14*
%TO.P,Q1,3*%
%TO.N,+3V3*%
X115250000Y-97885000D03*
%TO.P,Q1,2*%
%TO.N,Net-(Q1-Pad2)*%
X114300000Y-95885000D03*
%TO.P,Q1,1*%
%TO.N,PA5_nFAULT*%
X116200000Y-95885000D03*
%TD*%
%TO.P,Q0,3*%
%TO.N,+3V3*%
X115250000Y-104870000D03*
%TO.P,Q0,2*%
%TO.N,Net-(Q0-Pad2)*%
X114300000Y-102870000D03*
%TO.P,Q0,1*%
%TO.N,PA2_nFAULT*%
X116200000Y-102870000D03*
%TD*%
D19*
%TO.P,J1,6*%
%TO.N,RST_SW*%
X149225000Y-113665000D03*
%TO.P,J1,5*%
%TO.N,+3V3*%
X147955000Y-113665000D03*
%TO.P,J1,4*%
%TO.N,Net-(J1-Pad4)*%
X149225000Y-114935000D03*
%TO.P,J1,3*%
%TO.N,PA14_SWCLK*%
X147955000Y-114935000D03*
%TO.P,J1,2*%
%TO.N,GND*%
X149225000Y-116205000D03*
D20*
%TO.P,J1,1*%
%TO.N,PA13_SWDAT*%
X147955000Y-116205000D03*
%TD*%
%TO.P,D3,2*%
%TO.N,Net-(D3-Pad2)*%
%TA.AperFunction,SMDPad,CuDef*%
G36*
G01*
X105520000Y-110092500D02*
X105520000Y-109617500D01*
G75*
G02*
X105757500Y-109380000I237500J0D01*
G01*
X106332500Y-109380000D01*
G75*
G02*
X106570000Y-109617500I0J-237500D01*
G01*
X106570000Y-110092500D01*
G75*
G02*
X106332500Y-110330000I-237500J0D01*
G01*
X105757500Y-110330000D01*
G75*
G02*
X105520000Y-110092500I0J237500D01*
G01*
G37*
%TD.AperFunction*%
%TO.P,D3,1*%
%TO.N,GND*%
%TA.AperFunction,SMDPad,CuDef*%
G36*
G01*
X103770000Y-110092500D02*
X103770000Y-109617500D01*
G75*
G02*
X104007500Y-109380000I237500J0D01*
G01*
X104582500Y-109380000D01*
G75*
G02*
X104820000Y-109617500I0J-237500D01*
G01*
X104820000Y-110092500D01*
G75*
G02*
X104582500Y-110330000I-237500J0D01*
G01*
X104007500Y-110330000D01*
G75*
G02*
X103770000Y-110092500I0J237500D01*
G01*
G37*
%TD.AperFunction*%
%TD*%
%TO.P,D2,2*%
%TO.N,Net-(D2-Pad2)*%
%TA.AperFunction,SMDPad,CuDef*%
G36*
G01*
X105520000Y-116442500D02*
X105520000Y-115967500D01*
G75*
G02*
X105757500Y-115730000I237500J0D01*
G01*
X106332500Y-115730000D01*
G75*
G02*
X106570000Y-115967500I0J-237500D01*
G01*
X106570000Y-116442500D01*
G75*
G02*
X106332500Y-116680000I-237500J0D01*
G01*
X105757500Y-116680000D01*
G75*
G02*
X105520000Y-116442500I0J237500D01*
G01*
G37*
%TD.AperFunction*%
%TO.P,D2,1*%
%TO.N,GND*%
%TA.AperFunction,SMDPad,CuDef*%
G36*
G01*
X103770000Y-116442500D02*
X103770000Y-115967500D01*
G75*
G02*
X104007500Y-115730000I237500J0D01*
G01*
X104582500Y-115730000D01*
G75*
G02*
X104820000Y-115967500I0J-237500D01*
G01*
X104820000Y-116442500D01*
G75*
G02*
X104582500Y-116680000I-237500J0D01*
G01*
X104007500Y-116680000D01*
G75*
G02*
X103770000Y-116442500I0J237500D01*
G01*
G37*
%TD.AperFunction*%
%TD*%
%TO.P,D1,2*%
%TO.N,Net-(D1-Pad2)*%
%TA.AperFunction,SMDPad,CuDef*%
G36*
G01*
X105520000Y-96122500D02*
X105520000Y-95647500D01*
G75*
G02*
X105757500Y-95410000I237500J0D01*
G01*
X106332500Y-95410000D01*
G75*
G02*
X106570000Y-95647500I0J-237500D01*
G01*
X106570000Y-96122500D01*
G75*
G02*
X106332500Y-96360000I-237500J0D01*
G01*
X105757500Y-96360000D01*
G75*
G02*
X105520000Y-96122500I0J237500D01*
G01*
G37*
%TD.AperFunction*%
%TO.P,D1,1*%
%TO.N,GND*%
%TA.AperFunction,SMDPad,CuDef*%
G36*
G01*
X103770000Y-96122500D02*
X103770000Y-95647500D01*
G75*
G02*
X104007500Y-95410000I237500J0D01*
G01*
X104582500Y-95410000D01*
G75*
G02*
X104820000Y-95647500I0J-237500D01*
G01*
X104820000Y-96122500D01*
G75*
G02*
X104582500Y-96360000I-237500J0D01*
G01*
X104007500Y-96360000D01*
G75*
G02*
X103770000Y-96122500I0J237500D01*
G01*
G37*
%TD.AperFunction*%
%TD*%
%TO.P,D0,2*%
%TO.N,Net-(D0-Pad2)*%
%TA.AperFunction,SMDPad,CuDef*%
G36*
G01*
X105520000Y-103107500D02*
X105520000Y-102632500D01*
G75*
G02*
X105757500Y-102395000I237500J0D01*
G01*
X106332500Y-102395000D01*
G75*
G02*
X106570000Y-102632500I0J-237500D01*
G01*
X106570000Y-103107500D01*
G75*
G02*
X106332500Y-103345000I-237500J0D01*
G01*
X105757500Y-103345000D01*
G75*
G02*
X105520000Y-103107500I0J237500D01*
G01*
G37*
%TD.AperFunction*%
%TO.P,D0,1*%
%TO.N,GND*%
%TA.AperFunction,SMDPad,CuDef*%
G36*
G01*
X103770000Y-103107500D02*
X103770000Y-102632500D01*
G75*
G02*
X104007500Y-102395000I237500J0D01*
G01*
X104582500Y-102395000D01*
G75*
G02*
X104820000Y-102632500I0J-237500D01*
G01*
X104820000Y-103107500D01*
G75*
G02*
X104582500Y-103345000I-237500J0D01*
G01*
X104007500Y-103345000D01*
G75*
G02*
X103770000Y-103107500I0J237500D01*
G01*
G37*
%TD.AperFunction*%
%TD*%
%TO.P,C502,2*%
%TO.N,GND*%
%TA.AperFunction,SMDPad,CuDef*%
G36*
G01*
X143112500Y-92157500D02*
X142637500Y-92157500D01*
G75*
G02*
X142400000Y-91920000I0J237500D01*
G01*
X142400000Y-91320000D01*
G75*
G02*
X142637500Y-91082500I237500J0D01*
G01*
X143112500Y-91082500D01*
G75*
G02*
X143350000Y-91320000I0J-237500D01*
G01*
X143350000Y-91920000D01*
G75*
G02*
X143112500Y-92157500I-237500J0D01*
G01*
G37*
%TD.AperFunction*%
%TO.P,C502,1*%
%TO.N,Net-(C501-Pad2)*%
%TA.AperFunction,SMDPad,CuDef*%
G36*
G01*
X143112500Y-93882500D02*
X142637500Y-93882500D01*
G75*
G02*
X142400000Y-93645000I0J237500D01*
G01*
X142400000Y-93045000D01*
G75*
G02*
X142637500Y-92807500I237500J0D01*
G01*
X143112500Y-92807500D01*
G75*
G02*
X143350000Y-93045000I0J-237500D01*
G01*
X143350000Y-93645000D01*
G75*
G02*
X143112500Y-93882500I-237500J0D01*
G01*
G37*
%TD.AperFunction*%
%TD*%
%TO.P,C501,2*%
%TO.N,Net-(C501-Pad2)*%
%TA.AperFunction,SMDPad,CuDef*%
G36*
G01*
X143112500Y-97237500D02*
X142637500Y-97237500D01*
G75*
G02*
X142400000Y-97000000I0J237500D01*
G01*
X142400000Y-96400000D01*
G75*
G02*
X142637500Y-96162500I237500J0D01*
G01*
X143112500Y-96162500D01*
G75*
G02*
X143350000Y-96400000I0J-237500D01*
G01*
X143350000Y-97000000D01*
G75*
G02*
X143112500Y-97237500I-237500J0D01*
G01*
G37*
%TD.AperFunction*%
%TO.P,C501,1*%
%TO.N,+3V3*%
%TA.AperFunction,SMDPad,CuDef*%
G36*
G01*
X143112500Y-98962500D02*
X142637500Y-98962500D01*
G75*
G02*
X142400000Y-98725000I0J237500D01*
G01*
X142400000Y-98125000D01*
G75*
G02*
X142637500Y-97887500I237500J0D01*
G01*
X143112500Y-97887500D01*
G75*
G02*
X143350000Y-98125000I0J-237500D01*
G01*
X143350000Y-98725000D01*
G75*
G02*
X143112500Y-98962500I-237500J0D01*
G01*
G37*
%TD.AperFunction*%
%TD*%
%TO.P,C500,2*%
%TO.N,GND*%
%TA.AperFunction,SMDPad,CuDef*%
G36*
G01*
X149307500Y-88662500D02*
X149307500Y-89137500D01*
G75*
G02*
X149070000Y-89375000I-237500J0D01*
G01*
X148470000Y-89375000D01*
G75*
G02*
X148232500Y-89137500I0J237500D01*
G01*
X148232500Y-88662500D01*
G75*
G02*
X148470000Y-88425000I237500J0D01*
G01*
X149070000Y-88425000D01*
G75*
G02*
X149307500Y-88662500I0J-237500D01*
G01*
G37*
%TD.AperFunction*%
%TO.P,C500,1*%
%TO.N,VCC*%
%TA.AperFunction,SMDPad,CuDef*%
G36*
G01*
X151032500Y-88662500D02*
X151032500Y-89137500D01*
G75*
G02*
X150795000Y-89375000I-237500J0D01*
G01*
X150195000Y-89375000D01*
G75*
G02*
X149957500Y-89137500I0J237500D01*
G01*
X149957500Y-88662500D01*
G75*
G02*
X150195000Y-88425000I237500J0D01*
G01*
X150795000Y-88425000D01*
G75*
G02*
X151032500Y-88662500I0J-237500D01*
G01*
G37*
%TD.AperFunction*%
%TD*%
%TO.P,C403,2*%
%TO.N,Net-(C403-Pad2)*%
%TA.AperFunction,SMDPad,CuDef*%
G36*
G01*
X148987500Y-137892500D02*
X149462500Y-137892500D01*
G75*
G02*
X149700000Y-138130000I0J-237500D01*
G01*
X149700000Y-138730000D01*
G75*
G02*
X149462500Y-138967500I-237500J0D01*
G01*
X148987500Y-138967500D01*
G75*
G02*
X148750000Y-138730000I0J237500D01*
G01*
X148750000Y-138130000D01*
G75*
G02*
X148987500Y-137892500I237500J0D01*
G01*
G37*
%TD.AperFunction*%
%TO.P,C403,1*%
%TO.N,Net-(C403-Pad1)*%
%TA.AperFunction,SMDPad,CuDef*%
G36*
G01*
X148987500Y-136167500D02*
X149462500Y-136167500D01*
G75*
G02*
X149700000Y-136405000I0J-237500D01*
G01*
X149700000Y-137005000D01*
G75*
G02*
X149462500Y-137242500I-237500J0D01*
G01*
X148987500Y-137242500D01*
G75*
G02*
X148750000Y-137005000I0J237500D01*
G01*
X148750000Y-136405000D01*
G75*
G02*
X148987500Y-136167500I237500J0D01*
G01*
G37*
%TD.AperFunction*%
%TD*%
%TO.P,C401,2*%
%TO.N,GND*%
%TA.AperFunction,SMDPad,CuDef*%
G36*
G01*
X133747500Y-143200000D02*
X134222500Y-143200000D01*
G75*
G02*
X134460000Y-143437500I0J-237500D01*
G01*
X134460000Y-144037500D01*
G75*
G02*
X134222500Y-144275000I-237500J0D01*
G01*
X133747500Y-144275000D01*
G75*
G02*
X133510000Y-144037500I0J237500D01*
G01*
X133510000Y-143437500D01*
G75*
G02*
X133747500Y-143200000I237500J0D01*
G01*
G37*
%TD.AperFunction*%
%TO.P,C401,1*%
%TO.N,VCC*%
%TA.AperFunction,SMDPad,CuDef*%
G36*
G01*
X133747500Y-141475000D02*
X134222500Y-141475000D01*
G75*
G02*
X134460000Y-141712500I0J-237500D01*
G01*
X134460000Y-142312500D01*
G75*
G02*
X134222500Y-142550000I-237500J0D01*
G01*
X133747500Y-142550000D01*
G75*
G02*
X133510000Y-142312500I0J237500D01*
G01*
X133510000Y-141712500D01*
G75*
G02*
X133747500Y-141475000I237500J0D01*
G01*
G37*
%TD.AperFunction*%
%TD*%
%TO.P,C303,2*%
%TO.N,Net-(C303-Pad2)*%
%TA.AperFunction,SMDPad,CuDef*%
G36*
G01*
X121047500Y-138120000D02*
X121522500Y-138120000D01*
G75*
G02*
X121760000Y-138357500I0J-237500D01*
G01*
X121760000Y-138957500D01*
G75*
G02*
X121522500Y-139195000I-237500J0D01*
G01*
X121047500Y-139195000D01*
G75*
G02*
X120810000Y-138957500I0J237500D01*
G01*
X120810000Y-138357500D01*
G75*
G02*
X121047500Y-138120000I237500J0D01*
G01*
G37*
%TD.AperFunction*%
%TO.P,C303,1*%
%TO.N,Net-(C303-Pad1)*%
%TA.AperFunction,SMDPad,CuDef*%
G36*
G01*
X121047500Y-136395000D02*
X121522500Y-136395000D01*
G75*
G02*
X121760000Y-136632500I0J-237500D01*
G01*
X121760000Y-137232500D01*
G75*
G02*
X121522500Y-137470000I-237500J0D01*
G01*
X121047500Y-137470000D01*
G75*
G02*
X120810000Y-137232500I0J237500D01*
G01*
X120810000Y-136632500D01*
G75*
G02*
X121047500Y-136395000I237500J0D01*
G01*
G37*
%TD.AperFunction*%
%TD*%
%TO.P,C302,2*%
%TO.N,VCC*%
%TA.AperFunction,SMDPad,CuDef*%
G36*
G01*
X122472500Y-141842500D02*
X122472500Y-141367500D01*
G75*
G02*
X122710000Y-141130000I237500J0D01*
G01*
X123310000Y-141130000D01*
G75*
G02*
X123547500Y-141367500I0J-237500D01*
G01*
X123547500Y-141842500D01*
G75*
G02*
X123310000Y-142080000I-237500J0D01*
G01*
X122710000Y-142080000D01*
G75*
G02*
X122472500Y-141842500I0J237500D01*
G01*
G37*
%TD.AperFunction*%
%TO.P,C302,1*%
%TO.N,Net-(C302-Pad1)*%
%TA.AperFunction,SMDPad,CuDef*%
G36*
G01*
X120747500Y-141842500D02*
X120747500Y-141367500D01*
G75*
G02*
X120985000Y-141130000I237500J0D01*
G01*
X121585000Y-141130000D01*
G75*
G02*
X121822500Y-141367500I0J-237500D01*
G01*
X121822500Y-141842500D01*
G75*
G02*
X121585000Y-142080000I-237500J0D01*
G01*
X120985000Y-142080000D01*
G75*
G02*
X120747500Y-141842500I0J237500D01*
G01*
G37*
%TD.AperFunction*%
%TD*%
%TO.P,C301,2*%
%TO.N,GND*%
%TA.AperFunction,SMDPad,CuDef*%
G36*
G01*
X105172500Y-143427500D02*
X105647500Y-143427500D01*
G75*
G02*
X105885000Y-143665000I0J-237500D01*
G01*
X105885000Y-144265000D01*
G75*
G02*
X105647500Y-144502500I-237500J0D01*
G01*
X105172500Y-144502500D01*
G75*
G02*
X104935000Y-144265000I0J237500D01*
G01*
X104935000Y-143665000D01*
G75*
G02*
X105172500Y-143427500I237500J0D01*
G01*
G37*
%TD.AperFunction*%
%TO.P,C301,1*%
%TO.N,VCC*%
%TA.AperFunction,SMDPad,CuDef*%
G36*
G01*
X105172500Y-141702500D02*
X105647500Y-141702500D01*
G75*
G02*
X105885000Y-141940000I0J-237500D01*
G01*
X105885000Y-142540000D01*
G75*
G02*
X105647500Y-142777500I-237500J0D01*
G01*
X105172500Y-142777500D01*
G75*
G02*
X104935000Y-142540000I0J237500D01*
G01*
X104935000Y-141940000D01*
G75*
G02*
X105172500Y-141702500I237500J0D01*
G01*
G37*
%TD.AperFunction*%
%TD*%
%TO.P,C100,2*%
%TO.N,GND*%
%TA.AperFunction,SMDPad,CuDef*%
G36*
G01*
X120887500Y-119462500D02*
X120412500Y-119462500D01*
G75*
G02*
X120175000Y-119225000I0J237500D01*
G01*
X120175000Y-118625000D01*
G75*
G02*
X120412500Y-118387500I237500J0D01*
G01*
X120887500Y-118387500D01*
G75*
G02*
X121125000Y-118625000I0J-237500D01*
G01*
X121125000Y-119225000D01*
G75*
G02*
X120887500Y-119462500I-237500J0D01*
G01*
G37*
%TD.AperFunction*%
%TO.P,C100,1*%
%TO.N,RST_SW*%
%TA.AperFunction,SMDPad,CuDef*%
G36*
G01*
X120887500Y-121187500D02*
X120412500Y-121187500D01*
G75*
G02*
X120175000Y-120950000I0J237500D01*
G01*
X120175000Y-120350000D01*
G75*
G02*
X120412500Y-120112500I237500J0D01*
G01*
X120887500Y-120112500D01*
G75*
G02*
X121125000Y-120350000I0J-237500D01*
G01*
X121125000Y-120950000D01*
G75*
G02*
X120887500Y-121187500I-237500J0D01*
G01*
G37*
%TD.AperFunction*%
%TD*%
D21*
%TO.N,GND*%
X137668000Y-124460000D03*
X122555000Y-147955000D03*
X120015000Y-147955000D03*
X152400000Y-107950000D03*
X151130000Y-116205000D03*
X122555000Y-113030000D03*
X124460000Y-78740000D03*
X127000000Y-78740000D03*
X129540000Y-78740000D03*
X119380000Y-125095000D03*
X102870000Y-120015000D03*
X149225000Y-92075000D03*
X148590000Y-86995000D03*
X140970000Y-91440000D03*
X104140000Y-107950000D03*
X104140000Y-114300000D03*
X104140000Y-93980000D03*
X104140000Y-100965000D03*
X151130000Y-120015000D03*
X132080000Y-125730000D03*
X125730000Y-68580000D03*
X118745000Y-118745000D03*
X132080000Y-144145000D03*
X137160000Y-140970000D03*
X146685000Y-137795000D03*
X118110000Y-137795000D03*
X108585000Y-140970000D03*
X116332000Y-142748000D03*
X148590000Y-147320000D03*
X151130000Y-147320000D03*
X131064000Y-83312000D03*
X125476000Y-83312000D03*
X123444000Y-86868000D03*
X125476000Y-115316000D03*
X103632000Y-144272000D03*
X133096000Y-86360000D03*
X112930000Y-139252500D03*
X114400000Y-139252500D03*
X112930000Y-141042500D03*
X114400000Y-141042500D03*
X141505000Y-139252500D03*
X142975000Y-139252500D03*
X141505000Y-141042500D03*
X142975000Y-141042500D03*
X145288000Y-142748000D03*
%TO.N,RST_SW*%
X119380000Y-127635000D03*
X144145000Y-120015000D03*
%TO.N,VCC*%
X130810000Y-68580000D03*
X150495000Y-86995000D03*
X150495000Y-92075000D03*
X147955000Y-92075000D03*
X132080000Y-139065000D03*
X103505000Y-139065000D03*
X152400000Y-142875000D03*
X152400000Y-140970000D03*
X124460000Y-143510000D03*
X124460000Y-141605000D03*
%TO.N,+3V3*%
X134620000Y-120650000D03*
X122555000Y-114935000D03*
X128905000Y-90170000D03*
X129540000Y-80645000D03*
X127000000Y-80645000D03*
X124460000Y-80645000D03*
X149860000Y-98425000D03*
X144780000Y-98425000D03*
X146050000Y-113665000D03*
X111125000Y-114300000D03*
X109855000Y-118745000D03*
X114935000Y-113030000D03*
X114935000Y-106045000D03*
X114935000Y-99060000D03*
X135890000Y-124460000D03*
X119380000Y-123444000D03*
%TO.N,PB2_CS*%
X128905000Y-113665000D03*
X128905000Y-110490000D03*
%TO.N,PB1_SDO*%
X126345000Y-104140000D03*
X139700000Y-123825000D03*
%TO.N,PB0_RDY_INT*%
X125649401Y-102235000D03*
X140700003Y-123825000D03*
%TO.N,PA1_TIM2CH2*%
X117851347Y-131576653D03*
X112776000Y-136652000D03*
%TO.N,PA0_TIM2CH1*%
X121830000Y-125730000D03*
X130048000Y-129482998D03*
%TO.N,PB3_USART2_TX*%
X130247108Y-115642108D03*
X132152108Y-113737108D03*
%TO.N,PB4_USART2_RX*%
X129540000Y-114935000D03*
X131445000Y-113030000D03*
%TO.N,PF0_STATUSLED*%
X121375000Y-114300000D03*
X119380000Y-111760000D03*
%TO.N,PA5_nFAULT*%
X128524000Y-133604000D03*
X120396000Y-116332000D03*
%TO.N,PA2_nFAULT*%
X116474997Y-119380000D03*
X116840000Y-131064000D03*
%TD*%
D22*
%TO.N,GND*%
X104295000Y-108105000D02*
X104140000Y-107950000D01*
X104295000Y-109855000D02*
X104295000Y-108105000D01*
X104295000Y-114455000D02*
X104140000Y-114300000D01*
X104295000Y-116205000D02*
X104295000Y-114455000D01*
X104295000Y-94135000D02*
X104140000Y-93980000D01*
X104295000Y-95885000D02*
X104295000Y-94135000D01*
X104295000Y-101120000D02*
X104140000Y-100965000D01*
X104295000Y-102870000D02*
X104295000Y-101120000D01*
X141150000Y-91620000D02*
X140970000Y-91440000D01*
X142875000Y-91620000D02*
X141150000Y-91620000D01*
X148770000Y-87175000D02*
X148590000Y-86995000D01*
X148770000Y-88900000D02*
X148770000Y-87175000D01*
X150720000Y-120425000D02*
X151130000Y-120015000D01*
X150720000Y-122555000D02*
X150720000Y-120425000D01*
X103075000Y-120220000D02*
X102870000Y-120015000D01*
X103075000Y-122555000D02*
X103075000Y-120220000D01*
X149225000Y-93900000D02*
X149225000Y-92075000D01*
X120470000Y-125095000D02*
X120650000Y-124915000D01*
X119380000Y-125095000D02*
X120470000Y-125095000D01*
X131810000Y-125460000D02*
X132080000Y-125730000D01*
X131070000Y-125460000D02*
X131810000Y-125460000D01*
X124640000Y-78920000D02*
X124460000Y-78740000D01*
X125730000Y-78920000D02*
X124640000Y-78920000D01*
X127180000Y-78920000D02*
X127000000Y-78740000D01*
X128270000Y-78920000D02*
X127180000Y-78920000D01*
X129720000Y-78920000D02*
X129540000Y-78740000D01*
X130810000Y-78920000D02*
X129720000Y-78920000D01*
X122735000Y-113210000D02*
X122555000Y-113030000D01*
X123825000Y-113210000D02*
X122735000Y-113210000D01*
X149225000Y-116205000D02*
X151130000Y-116205000D01*
X149995000Y-107950000D02*
X152400000Y-107950000D01*
X118925000Y-118925000D02*
X118745000Y-118745000D01*
X120650000Y-118925000D02*
X118925000Y-118925000D01*
X132487500Y-143737500D02*
X132080000Y-144145000D01*
X133985000Y-143737500D02*
X132487500Y-143737500D01*
X137455000Y-140675000D02*
X137160000Y-140970000D01*
X139377500Y-140675000D02*
X137455000Y-140675000D01*
X137515000Y-141325000D02*
X137160000Y-140970000D01*
X139377500Y-141325000D02*
X137515000Y-141325000D01*
X146315000Y-137425000D02*
X146685000Y-137795000D01*
X145102500Y-137425000D02*
X146315000Y-137425000D01*
X146405000Y-138075000D02*
X146685000Y-137795000D01*
X145102500Y-138075000D02*
X146405000Y-138075000D01*
X117740000Y-137425000D02*
X118110000Y-137795000D01*
X116527500Y-137425000D02*
X117740000Y-137425000D01*
X117830000Y-138075000D02*
X118110000Y-137795000D01*
X116527500Y-138075000D02*
X117830000Y-138075000D01*
X108880000Y-140675000D02*
X108585000Y-140970000D01*
X110802500Y-140675000D02*
X108880000Y-140675000D01*
X108940000Y-141325000D02*
X108585000Y-140970000D01*
X110802500Y-141325000D02*
X108940000Y-141325000D01*
X130770000Y-83606000D02*
X131064000Y-83312000D01*
X130770000Y-85204300D02*
X130770000Y-83606000D01*
X125770000Y-83606000D02*
X125476000Y-83312000D01*
X125770000Y-85204300D02*
X125770000Y-83606000D01*
X123816999Y-86495001D02*
X123444000Y-86868000D01*
X124929900Y-86495001D02*
X123816999Y-86495001D01*
X124070999Y-87494999D02*
X123444000Y-86868000D01*
X124929900Y-87494999D02*
X124070999Y-87494999D01*
X125470000Y-115322000D02*
X125476000Y-115316000D01*
X125470000Y-117110000D02*
X125470000Y-115322000D01*
X103939000Y-143965000D02*
X103632000Y-144272000D01*
X105410000Y-143965000D02*
X103939000Y-143965000D01*
X132960999Y-86495001D02*
X133096000Y-86360000D01*
X131610100Y-86495001D02*
X132960999Y-86495001D01*
X116440000Y-142640000D02*
X116332000Y-142748000D01*
X116440000Y-141975000D02*
X116440000Y-142640000D01*
X112930000Y-138357500D02*
X112930000Y-139252500D01*
X114400000Y-138357500D02*
X114400000Y-139252500D01*
X112930000Y-140147500D02*
X112930000Y-141042500D01*
X114400000Y-140147500D02*
X114400000Y-141042500D01*
X141505000Y-138357500D02*
X141505000Y-139252500D01*
X142975000Y-138357500D02*
X142975000Y-139252500D01*
X141505000Y-140147500D02*
X141505000Y-141042500D01*
X142975000Y-140147500D02*
X142975000Y-141042500D01*
X145015000Y-142475000D02*
X145288000Y-142748000D01*
X145015000Y-141975000D02*
X145015000Y-142475000D01*
%TO.N,RST_SW*%
X114300000Y-120650000D02*
X112395000Y-122555000D01*
X120885000Y-120885000D02*
X120650000Y-120650000D01*
X124095000Y-120885000D02*
X120885000Y-120885000D01*
X106475000Y-122555000D02*
X109855000Y-122555000D01*
X109855000Y-122555000D02*
X112395000Y-122555000D01*
X118745000Y-120650000D02*
X118110000Y-121285000D01*
X120650000Y-120650000D02*
X118745000Y-120650000D01*
X118745000Y-120650000D02*
X114300000Y-120650000D01*
X118110000Y-126365000D02*
X119380000Y-127635000D01*
X118110000Y-121285000D02*
X118110000Y-126365000D01*
X151130000Y-113665000D02*
X149225000Y-113665000D01*
X152400000Y-114935000D02*
X151130000Y-113665000D01*
X151130000Y-118745000D02*
X152400000Y-117475000D01*
X145415000Y-118745000D02*
X151130000Y-118745000D01*
X152400000Y-117475000D02*
X152400000Y-114935000D01*
X144145000Y-120015000D02*
X145415000Y-118745000D01*
%TO.N,VCC*%
X145102500Y-140675000D02*
X145120000Y-140675000D01*
X150495000Y-88900000D02*
X150495000Y-86995000D01*
X150175000Y-92395000D02*
X150495000Y-92075000D01*
X150175000Y-93900000D02*
X150175000Y-92395000D01*
X148275000Y-92395000D02*
X147955000Y-92075000D01*
X148275000Y-93900000D02*
X148275000Y-92395000D01*
X134065000Y-139065000D02*
X132080000Y-139065000D01*
X105410000Y-139065000D02*
X103505000Y-139065000D01*
X133985000Y-139145000D02*
X134065000Y-139065000D01*
X133985000Y-142012500D02*
X133985000Y-139145000D01*
X105410000Y-142240000D02*
X105410000Y-139065000D01*
X137905010Y-140224990D02*
X135224990Y-140224990D01*
X135224990Y-140224990D02*
X134065000Y-139065000D01*
X138105000Y-140025000D02*
X137905010Y-140224990D01*
X139377500Y-140025000D02*
X138105000Y-140025000D01*
X106370000Y-140025000D02*
X105410000Y-139065000D01*
X110802500Y-140025000D02*
X106370000Y-140025000D01*
X116440000Y-140675000D02*
X118323000Y-140675000D01*
X118323000Y-140675000D02*
X118872000Y-141224000D01*
X145015000Y-140675000D02*
X146771000Y-140675000D01*
X146771000Y-140675000D02*
X147320000Y-141224000D01*
%TO.N,Net-(C302-Pad1)*%
X116527500Y-140025000D02*
X116530000Y-140025000D01*
X116527500Y-140025000D02*
X116527500Y-140022500D01*
X119705000Y-140025000D02*
X121285000Y-141605000D01*
X116440000Y-140025000D02*
X119705000Y-140025000D01*
%TO.N,Net-(C303-Pad2)*%
X116527500Y-139375000D02*
X116530000Y-139375000D01*
X120567500Y-139375000D02*
X121285000Y-138657500D01*
X116440000Y-139375000D02*
X120567500Y-139375000D01*
%TO.N,Net-(C303-Pad1)*%
X119492500Y-138725000D02*
X116527500Y-138725000D01*
X121285000Y-136932500D02*
X119492500Y-138725000D01*
%TO.N,Net-(C402-Pad2)*%
X145102500Y-140025000D02*
X145105000Y-140025000D01*
X145102500Y-140025000D02*
X145102500Y-140022500D01*
X148379999Y-140124999D02*
X149225000Y-140970000D01*
X145204999Y-140124999D02*
X148379999Y-140124999D01*
X145105000Y-140025000D02*
X145204999Y-140124999D01*
X145015000Y-140025000D02*
X145105000Y-140025000D01*
%TO.N,Net-(C403-Pad2)*%
X145102500Y-139375000D02*
X145105000Y-139375000D01*
X145204999Y-139275001D02*
X148379999Y-139275001D01*
X148379999Y-139275001D02*
X149225000Y-138430000D01*
X145105000Y-139375000D02*
X145204999Y-139275001D01*
X145015000Y-139375000D02*
X145105000Y-139375000D01*
%TO.N,Net-(C403-Pad1)*%
X147329990Y-138600010D02*
X149225000Y-136705000D01*
X145102500Y-138725000D02*
X145120000Y-138725000D01*
X147205000Y-138725000D02*
X147329990Y-138600010D01*
X145015000Y-138725000D02*
X147205000Y-138725000D01*
%TO.N,Net-(C501-Pad2)*%
X142975000Y-96600000D02*
X142875000Y-96700000D01*
X148275000Y-96600000D02*
X142975000Y-96600000D01*
X142875000Y-93345000D02*
X142875000Y-96700000D01*
%TO.N,+3V3*%
X128769999Y-90034999D02*
X128905000Y-90170000D01*
X128769999Y-88785700D02*
X128769999Y-90034999D01*
X122155000Y-121685000D02*
X120650000Y-123190000D01*
X124095000Y-121685000D02*
X122155000Y-121685000D01*
X132830000Y-124460000D02*
X135890000Y-124460000D01*
X132455000Y-124085000D02*
X132830000Y-124460000D01*
X132445000Y-124085000D02*
X132455000Y-124085000D01*
X129770000Y-81685000D02*
X130810000Y-80645000D01*
X129770000Y-85204300D02*
X129770000Y-81685000D01*
X128769999Y-81144999D02*
X128270000Y-80645000D01*
X128769999Y-85204300D02*
X128769999Y-81144999D01*
X127770001Y-81144999D02*
X128270000Y-80645000D01*
X127770001Y-85204300D02*
X127770001Y-81144999D01*
X126770000Y-81685000D02*
X125730000Y-80645000D01*
X126770000Y-85204300D02*
X126770000Y-81685000D01*
X123825000Y-118225000D02*
X123825000Y-114935000D01*
X124085000Y-118485000D02*
X123825000Y-118225000D01*
X124095000Y-118485000D02*
X124085000Y-118485000D01*
X122555000Y-114935000D02*
X123825000Y-114935000D01*
X134620000Y-120650000D02*
X135890000Y-120650000D01*
X130810000Y-80645000D02*
X129540000Y-80645000D01*
X128270000Y-80645000D02*
X127000000Y-80645000D01*
X125730000Y-80645000D02*
X124460000Y-80645000D01*
X150175000Y-98110000D02*
X149860000Y-98425000D01*
X150175000Y-96600000D02*
X150175000Y-98110000D01*
X142875000Y-98425000D02*
X144780000Y-98425000D01*
X111125000Y-116205000D02*
X111125000Y-114300000D01*
X109855000Y-120730000D02*
X109855000Y-118745000D01*
X115250000Y-112715000D02*
X114935000Y-113030000D01*
X115250000Y-111855000D02*
X115250000Y-112715000D01*
X115250000Y-105730000D02*
X114935000Y-106045000D01*
X115250000Y-104870000D02*
X115250000Y-105730000D01*
X115250000Y-98745000D02*
X114935000Y-99060000D01*
X115250000Y-97885000D02*
X115250000Y-98745000D01*
X135890000Y-124460000D02*
X135890000Y-124460000D01*
X119634000Y-123190000D02*
X119380000Y-123444000D01*
X120650000Y-123190000D02*
X119634000Y-123190000D01*
%TO.N,Net-(D0-Pad2)*%
X106045000Y-102870000D02*
X109300000Y-102870000D01*
%TO.N,Net-(D1-Pad2)*%
X106045000Y-95885000D02*
X109300000Y-95885000D01*
%TO.N,Net-(D2-Pad2)*%
X106045000Y-116205000D02*
X109300000Y-116205000D01*
%TO.N,Net-(D3-Pad2)*%
X106045000Y-109855000D02*
X109300000Y-109855000D01*
%TO.N,PA13_SWDAT*%
X132445000Y-119285000D02*
X143606410Y-119285000D01*
X146686410Y-116205000D02*
X147955000Y-116205000D01*
X143606410Y-119285000D02*
X146686410Y-116205000D01*
%TO.N,PB4_SW*%
X132445000Y-122485000D02*
X133195000Y-122485000D01*
X138420000Y-122485000D02*
X138430000Y-122475000D01*
X147240000Y-122475000D02*
X147320000Y-122555000D01*
X135880000Y-122485000D02*
X135890000Y-122475000D01*
X132445000Y-122485000D02*
X135880000Y-122485000D01*
X135890000Y-122475000D02*
X140415000Y-122475000D01*
X140415000Y-122475000D02*
X147240000Y-122475000D01*
X138430000Y-122475000D02*
X140415000Y-122475000D01*
%TO.N,PB2_CS*%
X128670000Y-113900000D02*
X128905000Y-113665000D01*
X128670000Y-117110000D02*
X128670000Y-113900000D01*
X128905000Y-110490000D02*
X128905000Y-109855000D01*
X128270000Y-109220000D02*
X128270000Y-92711410D01*
X128905000Y-109855000D02*
X128270000Y-109220000D01*
X130770000Y-90211410D02*
X130770000Y-88785700D01*
X128270000Y-92711410D02*
X130770000Y-90211410D01*
%TO.N,PA15_I2C1_SCL*%
X131070000Y-117110000D02*
X131070000Y-114560000D01*
X131070000Y-114560000D02*
X127635000Y-111125000D01*
X127635000Y-111125000D02*
X127635000Y-92710000D01*
X129630001Y-88925699D02*
X129770000Y-88785700D01*
X129630001Y-90714999D02*
X129630001Y-88925699D01*
X127635000Y-92710000D02*
X129630001Y-90714999D01*
%TO.N,PB1_SDO*%
X130270000Y-126210000D02*
X131060000Y-127000000D01*
X130270000Y-125460000D02*
X130270000Y-126210000D01*
X131060000Y-127000000D02*
X136525000Y-127000000D01*
X126374401Y-104110599D02*
X126374401Y-91430599D01*
X126345000Y-104140000D02*
X126374401Y-104110599D01*
X126770000Y-91035000D02*
X126770000Y-88785700D01*
X126374401Y-91430599D02*
X126770000Y-91035000D01*
X136525000Y-127000000D02*
X137795000Y-127000000D01*
X139700000Y-125095000D02*
X139700000Y-123825000D01*
X137795000Y-127000000D02*
X139700000Y-125095000D01*
%TO.N,PB0_RDY_INT*%
X130710009Y-127450009D02*
X136711401Y-127450009D01*
X129470000Y-126210000D02*
X130710009Y-127450009D01*
X129470000Y-125460000D02*
X129470000Y-126210000D01*
X125649401Y-88906299D02*
X125770000Y-88785700D01*
X125649401Y-102235000D02*
X125649401Y-88906299D01*
X140700003Y-124731407D02*
X140700003Y-123825000D01*
X137981401Y-127450009D02*
X140700003Y-124731407D01*
X136711401Y-127450009D02*
X137981401Y-127450009D01*
%TO.N,PA6_nSLEEP*%
X137725991Y-137747401D02*
X138703590Y-138725000D01*
X137725990Y-137346400D02*
X137725991Y-137747401D01*
X137031590Y-136652000D02*
X137725990Y-137346400D01*
X133347180Y-136652000D02*
X137031590Y-136652000D01*
X138703590Y-138725000D02*
X139465000Y-138725000D01*
X129147982Y-132452802D02*
X133347180Y-136652000D01*
X128219990Y-128003990D02*
X128219991Y-129364401D01*
X129147982Y-130292392D02*
X129147982Y-132452802D01*
X127870000Y-127654000D02*
X128219990Y-128003990D01*
X128219991Y-129364401D02*
X129147982Y-130292392D01*
X127870000Y-125460000D02*
X127870000Y-127654000D01*
%TO.N,PA3_nSLEEP*%
X125470000Y-125460000D02*
X125363590Y-125460000D01*
X110032180Y-138725000D02*
X110890000Y-138725000D01*
X108712000Y-136395180D02*
X108712000Y-137404820D01*
X110037170Y-135070010D02*
X108712000Y-136395180D01*
X116261580Y-135070010D02*
X110037170Y-135070010D01*
X123284990Y-128046600D02*
X116261580Y-135070010D01*
X108712000Y-137404820D02*
X110032180Y-138725000D01*
X123284990Y-127645010D02*
X123284990Y-128046600D01*
X125470000Y-125460000D02*
X123284990Y-127645010D01*
%TO.N,PA1_TIM2CH2*%
X123345000Y-123285000D02*
X122555001Y-124074999D01*
X122555001Y-124074999D02*
X122555001Y-126412695D01*
X124095000Y-123285000D02*
X123345000Y-123285000D01*
X122555001Y-126872999D02*
X117851347Y-131576653D01*
X122555001Y-126412695D02*
X122555001Y-126872999D01*
X111663000Y-136652000D02*
X110890000Y-137425000D01*
X112776000Y-136652000D02*
X111663000Y-136652000D01*
%TO.N,PA0_TIM2CH1*%
X121830000Y-124000000D02*
X121830000Y-125730000D01*
X123345000Y-122485000D02*
X121830000Y-124000000D01*
X124095000Y-122485000D02*
X123345000Y-122485000D01*
X137676000Y-135636000D02*
X139465000Y-137425000D01*
X133604000Y-135636000D02*
X137676000Y-135636000D01*
X130048000Y-129482998D02*
X130048000Y-132080000D01*
X130048000Y-132080000D02*
X133604000Y-135636000D01*
%TO.N,PA14_SWCLK*%
X147320000Y-114935000D02*
X147955000Y-114935000D01*
X143510000Y-118745000D02*
X147320000Y-114935000D01*
X133985000Y-118745000D02*
X143510000Y-118745000D01*
X133725000Y-118485000D02*
X133985000Y-118745000D01*
X132445000Y-118485000D02*
X133725000Y-118485000D01*
%TO.N,PB7_I2C1_SDA*%
X127070000Y-117110000D02*
X127070000Y-116360000D01*
X127070000Y-117110000D02*
X127070000Y-91510000D01*
X127770001Y-90809999D02*
X127770001Y-88785700D01*
X127070000Y-91510000D02*
X127770001Y-90809999D01*
%TO.N,OUT1_MOTOR1*%
X110802500Y-141975000D02*
X110802500Y-143705500D01*
X110890000Y-141975000D02*
X112003000Y-141975000D01*
X112003000Y-141975000D02*
X112268000Y-142240000D01*
%TO.N,OUT2_MOTOR1*%
X117215000Y-141325000D02*
X117348000Y-141458000D01*
X116440000Y-141325000D02*
X117215000Y-141325000D01*
X117348000Y-141458000D02*
X117348000Y-147320000D01*
%TO.N,OUT1_MOTOR2*%
X139465000Y-141975000D02*
X139465000Y-142005000D01*
X139465000Y-141975000D02*
X140451000Y-141975000D01*
%TO.N,OUT2_MOTOR2*%
X146140001Y-141675001D02*
X146140001Y-144435999D01*
X145790000Y-141325000D02*
X146140001Y-141675001D01*
X145015000Y-141325000D02*
X145790000Y-141325000D01*
%TO.N,PB3_USART2_TX*%
X130270000Y-115665000D02*
X130247108Y-115642108D01*
X130270000Y-117110000D02*
X130270000Y-115665000D01*
X132152108Y-113737108D02*
X132715705Y-113173511D01*
X132715705Y-113173511D02*
X132715705Y-112395705D01*
X139701410Y-105410000D02*
X146685000Y-105410000D01*
X132715705Y-112395705D02*
X139701410Y-105410000D01*
%TO.N,PB4_USART2_RX*%
X129470000Y-115005000D02*
X129540000Y-114935000D01*
X129470000Y-117110000D02*
X129470000Y-115005000D01*
X131445000Y-113030000D02*
X141605000Y-102870000D01*
X141605000Y-102870000D02*
X149995000Y-102870000D01*
%TO.N,Net-(Q0-Pad2)*%
X111125000Y-102870000D02*
X114300000Y-102870000D01*
%TO.N,Net-(Q1-Pad2)*%
X111125000Y-95885000D02*
X114300000Y-95885000D01*
%TO.N,Net-(Q2-Pad2)*%
X111125000Y-109855000D02*
X114300000Y-109855000D01*
%TO.N,PF0_STATUSLED*%
X123345000Y-119285000D02*
X121285000Y-117225000D01*
X124095000Y-119285000D02*
X123345000Y-119285000D01*
X121285000Y-114390000D02*
X121375000Y-114300000D01*
X121285000Y-117225000D02*
X121285000Y-114390000D01*
X119380000Y-111760000D02*
X119380000Y-110490000D01*
X118745000Y-109855000D02*
X116200000Y-109855000D01*
X119380000Y-110490000D02*
X118745000Y-109855000D01*
%TO.N,PA7_PHIN2*%
X138176000Y-137561000D02*
X138690000Y-138075000D01*
X138176000Y-137160000D02*
X138176000Y-137561000D01*
X137160000Y-136144000D02*
X138176000Y-137160000D01*
X133475590Y-136144000D02*
X137160000Y-136144000D01*
X129597991Y-132266401D02*
X133475590Y-136144000D01*
X129597990Y-130105990D02*
X129597991Y-132266401D01*
X138690000Y-138075000D02*
X139465000Y-138075000D01*
X128670000Y-129178000D02*
X129597990Y-130105990D01*
X128670000Y-125460000D02*
X128670000Y-129178000D01*
%TO.N,PA5_nFAULT*%
X136200000Y-139375000D02*
X139465000Y-139375000D01*
X135890000Y-139065000D02*
X136200000Y-139375000D01*
X135890000Y-137922000D02*
X135890000Y-139065000D01*
X133160780Y-137102010D02*
X135070010Y-137102010D01*
X128697973Y-132639203D02*
X133160780Y-137102010D01*
X128697972Y-130729972D02*
X128697973Y-132639203D01*
X127769982Y-129801982D02*
X128697972Y-130729972D01*
X127769982Y-128524001D02*
X127769982Y-129801982D01*
X135070010Y-137102010D02*
X135890000Y-137922000D01*
X127070000Y-127824019D02*
X127769982Y-128524001D01*
X127070000Y-125460000D02*
X127070000Y-127824019D01*
X128697973Y-133430027D02*
X128524000Y-133604000D01*
X128697973Y-132639203D02*
X128697973Y-133430027D01*
X120649999Y-116078001D02*
X120649999Y-96773999D01*
X120396000Y-116332000D02*
X120649999Y-116078001D01*
X119761000Y-95885000D02*
X116200000Y-95885000D01*
X120649999Y-96773999D02*
X119761000Y-95885000D01*
%TO.N,PA4_PHIN2*%
X125121988Y-126535010D02*
X125944990Y-126535010D01*
X126270000Y-126210000D02*
X126270000Y-125460000D01*
X123734999Y-128233001D02*
X123734999Y-127921999D01*
X116341306Y-135626694D02*
X123734999Y-128233001D01*
X110116896Y-135626694D02*
X116341306Y-135626694D01*
X109220000Y-136523590D02*
X110116896Y-135626694D01*
X125944990Y-126535010D02*
X126270000Y-126210000D01*
X123734999Y-127921999D02*
X125121988Y-126535010D01*
X109220000Y-137276410D02*
X109220000Y-136523590D01*
X110018590Y-138075000D02*
X109220000Y-137276410D01*
X110890000Y-138075000D02*
X110018590Y-138075000D01*
%TO.N,PA2_nFAULT*%
X116200000Y-102870000D02*
X119437990Y-102870000D01*
X119437990Y-102870000D02*
X120199990Y-103632000D01*
X116474997Y-118473593D02*
X116474997Y-119380000D01*
X120199990Y-114748600D02*
X116474997Y-118473593D01*
X120199990Y-103632000D02*
X120199990Y-114748600D01*
X107545000Y-139375000D02*
X107235000Y-139065000D01*
X110890000Y-139375000D02*
X107545000Y-139375000D01*
X107235000Y-137235770D02*
X107235000Y-139065000D01*
X109850770Y-134620000D02*
X107235000Y-137235770D01*
X116075180Y-134620000D02*
X109850770Y-134620000D01*
X122834980Y-127458610D02*
X122834980Y-127860200D01*
X124095000Y-126198590D02*
X122834980Y-127458610D01*
X124095000Y-124085000D02*
X124095000Y-126198590D01*
X116474997Y-119380000D02*
X116332000Y-119380000D01*
X117661282Y-132459590D02*
X118235590Y-132459590D01*
X116840000Y-131638308D02*
X117661282Y-132459590D01*
X116840000Y-131064000D02*
X116840000Y-131638308D01*
X118235590Y-132459590D02*
X116075180Y-134620000D01*
X122834980Y-127860200D02*
X118235590Y-132459590D01*
%TD*%
D23*
%TO.N,GND*%
X151638000Y-147828000D02*
X148082000Y-147828000D01*
X148082000Y-145542000D01*
X151638000Y-145542000D01*
X151638000Y-147828000D01*
%TA.AperFunction,Conductor*%
D24*
G36*
X151638000Y-147828000D02*
G01*
X148082000Y-147828000D01*
X148082000Y-145542000D01*
X151638000Y-145542000D01*
X151638000Y-147828000D01*
G37*
%TD.AperFunction*%
%TD*%
D23*
%TO.N,VCC*%
X152908000Y-143383000D02*
X146939000Y-143383000D01*
X146939000Y-140884999D01*
X147701000Y-140884999D01*
X147701000Y-142176500D01*
X147703440Y-142201276D01*
X147710667Y-142225101D01*
X147722403Y-142247057D01*
X147738197Y-142266303D01*
X147757443Y-142282097D01*
X147779399Y-142293833D01*
X147803224Y-142301060D01*
X147824977Y-142303464D01*
X150491977Y-142366964D01*
X150516805Y-142365114D01*
X150540794Y-142358456D01*
X150563024Y-142347246D01*
X150582640Y-142331915D01*
X150598887Y-142313051D01*
X150611143Y-142291380D01*
X150618935Y-142267734D01*
X150622000Y-142240000D01*
X150622000Y-140462000D01*
X152908000Y-140462000D01*
X152908000Y-143383000D01*
%TA.AperFunction,Conductor*%
D24*
G36*
X152908000Y-143383000D02*
G01*
X146939000Y-143383000D01*
X146939000Y-140884999D01*
X147701000Y-140884999D01*
X147701000Y-142176500D01*
X147703440Y-142201276D01*
X147710667Y-142225101D01*
X147722403Y-142247057D01*
X147738197Y-142266303D01*
X147757443Y-142282097D01*
X147779399Y-142293833D01*
X147803224Y-142301060D01*
X147824977Y-142303464D01*
X150491977Y-142366964D01*
X150516805Y-142365114D01*
X150540794Y-142358456D01*
X150563024Y-142347246D01*
X150582640Y-142331915D01*
X150598887Y-142313051D01*
X150611143Y-142291380D01*
X150618935Y-142267734D01*
X150622000Y-142240000D01*
X150622000Y-140462000D01*
X152908000Y-140462000D01*
X152908000Y-143383000D01*
G37*
%TD.AperFunction*%
%TD*%
D23*
%TO.N,VCC*%
X119253000Y-142875000D02*
X119255440Y-142899776D01*
X119262667Y-142923601D01*
X119274403Y-142945557D01*
X119290197Y-142964803D01*
X119309443Y-142980597D01*
X119331399Y-142992333D01*
X119355224Y-142999560D01*
X119380000Y-143002000D01*
X122555000Y-143002000D01*
X122579776Y-142999560D01*
X122603601Y-142992333D01*
X122625557Y-142980597D01*
X122644803Y-142964803D01*
X122660597Y-142945557D01*
X122672333Y-142923601D01*
X122679560Y-142899776D01*
X122682000Y-142875000D01*
X122682000Y-141097000D01*
X124968000Y-141097000D01*
X124968000Y-144018000D01*
X118237000Y-144018000D01*
X118237000Y-140785000D01*
X119253000Y-140785000D01*
X119253000Y-142875000D01*
%TA.AperFunction,Conductor*%
D24*
G36*
X119253000Y-142875000D02*
G01*
X119255440Y-142899776D01*
X119262667Y-142923601D01*
X119274403Y-142945557D01*
X119290197Y-142964803D01*
X119309443Y-142980597D01*
X119331399Y-142992333D01*
X119355224Y-142999560D01*
X119380000Y-143002000D01*
X122555000Y-143002000D01*
X122579776Y-142999560D01*
X122603601Y-142992333D01*
X122625557Y-142980597D01*
X122644803Y-142964803D01*
X122660597Y-142945557D01*
X122672333Y-142923601D01*
X122679560Y-142899776D01*
X122682000Y-142875000D01*
X122682000Y-141097000D01*
X124968000Y-141097000D01*
X124968000Y-144018000D01*
X118237000Y-144018000D01*
X118237000Y-140785000D01*
X119253000Y-140785000D01*
X119253000Y-142875000D01*
G37*
%TD.AperFunction*%
%TD*%
D23*
%TO.N,GND*%
X123063000Y-148463000D02*
X119507000Y-148463000D01*
X119507000Y-146177000D01*
X123063000Y-146177000D01*
X123063000Y-148463000D01*
%TA.AperFunction,Conductor*%
D24*
G36*
X123063000Y-148463000D02*
G01*
X119507000Y-148463000D01*
X119507000Y-146177000D01*
X123063000Y-146177000D01*
X123063000Y-148463000D01*
G37*
%TD.AperFunction*%
%TD*%
D23*
%TO.N,OUT1_MOTOR1*%
X111950820Y-142079502D02*
X112070518Y-142115812D01*
X112195000Y-142128072D01*
X112649000Y-142128072D01*
X112649000Y-147193000D01*
X109855000Y-147193000D01*
X109855000Y-142085000D01*
X110018856Y-142085000D01*
X110120820Y-142139502D01*
X110240518Y-142175812D01*
X110365000Y-142188072D01*
X111415000Y-142188072D01*
X111539482Y-142175812D01*
X111659180Y-142139502D01*
X111769494Y-142080537D01*
X111841777Y-142021216D01*
X111950820Y-142079502D01*
%TA.AperFunction,Conductor*%
D24*
G36*
X111950820Y-142079502D02*
G01*
X112070518Y-142115812D01*
X112195000Y-142128072D01*
X112649000Y-142128072D01*
X112649000Y-147193000D01*
X109855000Y-147193000D01*
X109855000Y-142085000D01*
X110018856Y-142085000D01*
X110120820Y-142139502D01*
X110240518Y-142175812D01*
X110365000Y-142188072D01*
X111415000Y-142188072D01*
X111539482Y-142175812D01*
X111659180Y-142139502D01*
X111769494Y-142080537D01*
X111841777Y-142021216D01*
X111950820Y-142079502D01*
G37*
%TD.AperFunction*%
%TD*%
D23*
%TO.N,OUT2_MOTOR1*%
X115528063Y-143407774D02*
X115672226Y-143551937D01*
X115841744Y-143665205D01*
X116030102Y-143743226D01*
X116230061Y-143783000D01*
X116433939Y-143783000D01*
X116633898Y-143743226D01*
X116822256Y-143665205D01*
X116991774Y-143551937D01*
X117135937Y-143407774D01*
X117152490Y-143383000D01*
X117221000Y-143383000D01*
X117221000Y-149835000D01*
X113411000Y-149835000D01*
X113411000Y-143383000D01*
X115511510Y-143383000D01*
X115528063Y-143407774D01*
%TA.AperFunction,Conductor*%
D24*
G36*
X115528063Y-143407774D02*
G01*
X115672226Y-143551937D01*
X115841744Y-143665205D01*
X116030102Y-143743226D01*
X116230061Y-143783000D01*
X116433939Y-143783000D01*
X116633898Y-143743226D01*
X116822256Y-143665205D01*
X116991774Y-143551937D01*
X117135937Y-143407774D01*
X117152490Y-143383000D01*
X117221000Y-143383000D01*
X117221000Y-149835000D01*
X113411000Y-149835000D01*
X113411000Y-143383000D01*
X115511510Y-143383000D01*
X115528063Y-143407774D01*
G37*
%TD.AperFunction*%
%TD*%
D23*
%TO.N,OUT2_MOTOR2*%
X144292774Y-143049898D02*
X144370795Y-143238256D01*
X144484063Y-143407774D01*
X144628226Y-143551937D01*
X144797744Y-143665205D01*
X144986102Y-143743226D01*
X145186061Y-143783000D01*
X145389939Y-143783000D01*
X145589898Y-143743226D01*
X145778256Y-143665205D01*
X145947774Y-143551937D01*
X146091937Y-143407774D01*
X146177000Y-143280468D01*
X146177000Y-149835000D01*
X142367000Y-149835000D01*
X142367000Y-142875000D01*
X144257985Y-142875000D01*
X144292774Y-143049898D01*
%TA.AperFunction,Conductor*%
D24*
G36*
X144292774Y-143049898D02*
G01*
X144370795Y-143238256D01*
X144484063Y-143407774D01*
X144628226Y-143551937D01*
X144797744Y-143665205D01*
X144986102Y-143743226D01*
X145186061Y-143783000D01*
X145389939Y-143783000D01*
X145589898Y-143743226D01*
X145778256Y-143665205D01*
X145947774Y-143551937D01*
X146091937Y-143407774D01*
X146177000Y-143280468D01*
X146177000Y-149835000D01*
X142367000Y-149835000D01*
X142367000Y-142875000D01*
X144257985Y-142875000D01*
X144292774Y-143049898D01*
G37*
%TD.AperFunction*%
%TD*%
D23*
%TO.N,OUT1_MOTOR2*%
X140525820Y-142079502D02*
X140645518Y-142115812D01*
X140770000Y-142128072D01*
X141605000Y-142128072D01*
X141605000Y-147193000D01*
X138811000Y-147193000D01*
X138811000Y-142174441D01*
X138815518Y-142175812D01*
X138940000Y-142188072D01*
X139990000Y-142188072D01*
X140114482Y-142175812D01*
X140234180Y-142139502D01*
X140344494Y-142080537D01*
X140416777Y-142021216D01*
X140525820Y-142079502D01*
%TA.AperFunction,Conductor*%
D24*
G36*
X140525820Y-142079502D02*
G01*
X140645518Y-142115812D01*
X140770000Y-142128072D01*
X141605000Y-142128072D01*
X141605000Y-147193000D01*
X138811000Y-147193000D01*
X138811000Y-142174441D01*
X138815518Y-142175812D01*
X138940000Y-142188072D01*
X139990000Y-142188072D01*
X140114482Y-142175812D01*
X140234180Y-142139502D01*
X140344494Y-142080537D01*
X140416777Y-142021216D01*
X140525820Y-142079502D01*
G37*
%TD.AperFunction*%
%TD*%
M02*
